%TF.GenerationSoftware,Altium Limited,Altium Designer,20.0.11 (256)*%
G04 Layer_Color=32896*
%FSLAX26Y26*%
%MOIN*%
%TF.FileFunction,Legend,Bot*%
%TF.Part,Single*%
G01*
G75*
%TA.AperFunction,NonConductor*%
%ADD38C,0.009842*%
%ADD39C,0.007874*%
G36*
X7832302Y1314569D02*
X7833589Y1314491D01*
X7834798Y1314335D01*
X7835968Y1314140D01*
X7837099Y1313906D01*
X7838152Y1313672D01*
X7839127Y1313399D01*
X7839985Y1313126D01*
X7840804Y1312853D01*
X7841545Y1312580D01*
X7842169Y1312346D01*
X7842676Y1312112D01*
X7843105Y1311917D01*
X7843417Y1311761D01*
X7843573Y1311683D01*
X7843651Y1311644D01*
X7844665Y1311059D01*
X7845601Y1310396D01*
X7846459Y1309694D01*
X7847278Y1308992D01*
X7848058Y1308251D01*
X7848721Y1307471D01*
X7849345Y1306730D01*
X7849930Y1306028D01*
X7850437Y1305326D01*
X7850866Y1304663D01*
X7851217Y1304117D01*
X7851529Y1303610D01*
X7851763Y1303181D01*
X7851919Y1302869D01*
X7852036Y1302674D01*
X7852075Y1302596D01*
X7852582Y1301465D01*
X7853050Y1300295D01*
X7853440Y1299164D01*
X7853752Y1297994D01*
X7854064Y1296902D01*
X7854298Y1295810D01*
X7854493Y1294796D01*
X7854649Y1293821D01*
X7854766Y1292924D01*
X7854844Y1292105D01*
X7854922Y1291364D01*
X7854961Y1290740D01*
Y1290272D01*
X7855000Y1289882D01*
Y1289648D01*
Y1289609D01*
Y1289570D01*
X7854961Y1288244D01*
X7854883Y1286996D01*
X7854727Y1285748D01*
X7854532Y1284578D01*
X7854337Y1283447D01*
X7854064Y1282394D01*
X7853791Y1281419D01*
X7853518Y1280483D01*
X7853245Y1279664D01*
X7853011Y1278923D01*
X7852738Y1278299D01*
X7852543Y1277753D01*
X7852348Y1277324D01*
X7852192Y1277012D01*
X7852114Y1276817D01*
X7852075Y1276739D01*
X7851490Y1275686D01*
X7850866Y1274711D01*
X7850164Y1273814D01*
X7849462Y1272956D01*
X7848721Y1272176D01*
X7848019Y1271474D01*
X7847278Y1270811D01*
X7846576Y1270226D01*
X7845952Y1269719D01*
X7845328Y1269251D01*
X7844782Y1268900D01*
X7844275Y1268588D01*
X7843885Y1268315D01*
X7843573Y1268159D01*
X7843417Y1268042D01*
X7843339Y1268003D01*
X7842247Y1267457D01*
X7841116Y1267028D01*
X7840024Y1266599D01*
X7838893Y1266287D01*
X7837801Y1265975D01*
X7836748Y1265741D01*
X7835695Y1265546D01*
X7834720Y1265390D01*
X7833823Y1265234D01*
X7833004Y1265156D01*
X7832302Y1265078D01*
X7831678Y1265039D01*
X7831171D01*
X7830781Y1265000D01*
X7830469D01*
X7829494Y1265039D01*
X7828519Y1265078D01*
X7826686Y1265312D01*
X7825789Y1265429D01*
X7824931Y1265585D01*
X7824151Y1265780D01*
X7823410Y1265936D01*
X7822747Y1266131D01*
X7822123Y1266287D01*
X7821616Y1266443D01*
X7821148Y1266599D01*
X7820797Y1266716D01*
X7820524Y1266794D01*
X7820329Y1266833D01*
X7820290Y1266872D01*
X7819354Y1267262D01*
X7818457Y1267652D01*
X7816663Y1268549D01*
X7815805Y1268978D01*
X7815025Y1269446D01*
X7814284Y1269914D01*
X7813543Y1270382D01*
X7812919Y1270772D01*
X7812334Y1271162D01*
X7811827Y1271552D01*
X7811398Y1271825D01*
X7811047Y1272098D01*
X7810774Y1272293D01*
X7810618Y1272410D01*
X7810579Y1272449D01*
Y1290272D01*
X7830937D01*
Y1284617D01*
X7816780D01*
Y1275686D01*
X7817170Y1275335D01*
X7817638Y1275023D01*
X7818574Y1274399D01*
X7819588Y1273814D01*
X7820563Y1273307D01*
X7820992Y1273112D01*
X7821421Y1272878D01*
X7821811Y1272722D01*
X7822123Y1272566D01*
X7822396Y1272449D01*
X7822630Y1272371D01*
X7822747Y1272332D01*
X7822786Y1272293D01*
X7824268Y1271786D01*
X7825672Y1271396D01*
X7827037Y1271123D01*
X7827661Y1271006D01*
X7828246Y1270928D01*
X7828792Y1270850D01*
X7829299Y1270811D01*
X7829728Y1270772D01*
X7830118D01*
X7830430Y1270733D01*
X7830820D01*
X7831717Y1270772D01*
X7832575Y1270811D01*
X7834252Y1271045D01*
X7835032Y1271201D01*
X7835773Y1271396D01*
X7836475Y1271591D01*
X7837099Y1271786D01*
X7837684Y1271942D01*
X7838230Y1272137D01*
X7838698Y1272332D01*
X7839088Y1272488D01*
X7839400Y1272605D01*
X7839634Y1272722D01*
X7839790Y1272761D01*
X7839829Y1272800D01*
X7840609Y1273229D01*
X7841311Y1273697D01*
X7841974Y1274165D01*
X7842598Y1274672D01*
X7843183Y1275218D01*
X7843729Y1275764D01*
X7844197Y1276271D01*
X7844626Y1276778D01*
X7845016Y1277285D01*
X7845328Y1277714D01*
X7845601Y1278143D01*
X7845835Y1278494D01*
X7846030Y1278806D01*
X7846147Y1279001D01*
X7846225Y1279157D01*
X7846264Y1279196D01*
X7846654Y1280015D01*
X7846966Y1280912D01*
X7847278Y1281809D01*
X7847512Y1282706D01*
X7847902Y1284500D01*
X7848058Y1285358D01*
X7848175Y1286216D01*
X7848253Y1286996D01*
X7848331Y1287698D01*
X7848370Y1288322D01*
X7848409Y1288907D01*
X7848448Y1289336D01*
Y1289687D01*
Y1289882D01*
Y1289960D01*
X7848409Y1290935D01*
X7848370Y1291871D01*
X7848292Y1292768D01*
X7848175Y1293665D01*
X7848019Y1294484D01*
X7847863Y1295303D01*
X7847707Y1296044D01*
X7847512Y1296707D01*
X7847356Y1297370D01*
X7847200Y1297916D01*
X7847044Y1298423D01*
X7846888Y1298813D01*
X7846771Y1299164D01*
X7846693Y1299398D01*
X7846615Y1299554D01*
Y1299593D01*
X7846186Y1300568D01*
X7845718Y1301426D01*
X7845211Y1302245D01*
X7844704Y1302947D01*
X7844275Y1303532D01*
X7844080Y1303766D01*
X7843924Y1303961D01*
X7843807Y1304156D01*
X7843690Y1304273D01*
X7843651Y1304312D01*
X7843612Y1304351D01*
X7842832Y1305131D01*
X7841974Y1305833D01*
X7841155Y1306418D01*
X7840336Y1306925D01*
X7839595Y1307315D01*
X7839283Y1307471D01*
X7839010Y1307627D01*
X7838815Y1307744D01*
X7838659Y1307783D01*
X7838542Y1307861D01*
X7838503D01*
X7837255Y1308290D01*
X7835968Y1308641D01*
X7834720Y1308875D01*
X7833511Y1309031D01*
X7832965Y1309070D01*
X7832497Y1309109D01*
X7832029Y1309148D01*
X7831678Y1309187D01*
X7830937D01*
X7829611Y1309148D01*
X7828363Y1308992D01*
X7827232Y1308797D01*
X7826725Y1308680D01*
X7826257Y1308563D01*
X7825828Y1308407D01*
X7825438Y1308290D01*
X7825087Y1308212D01*
X7824814Y1308095D01*
X7824619Y1308017D01*
X7824424Y1307939D01*
X7824346Y1307900D01*
X7824307D01*
X7823254Y1307393D01*
X7822318Y1306847D01*
X7821538Y1306301D01*
X7820875Y1305755D01*
X7820368Y1305287D01*
X7820017Y1304897D01*
X7819861Y1304741D01*
X7819783Y1304624D01*
X7819705Y1304585D01*
Y1304546D01*
X7819120Y1303688D01*
X7818613Y1302752D01*
X7818145Y1301777D01*
X7817755Y1300880D01*
X7817599Y1300451D01*
X7817443Y1300061D01*
X7817326Y1299671D01*
X7817209Y1299398D01*
X7817131Y1299125D01*
X7817053Y1298930D01*
X7817014Y1298813D01*
Y1298774D01*
X7811320Y1300334D01*
X7811554Y1301231D01*
X7811827Y1302089D01*
X7812100Y1302869D01*
X7812412Y1303610D01*
X7812724Y1304312D01*
X7812997Y1304975D01*
X7813309Y1305560D01*
X7813582Y1306106D01*
X7813855Y1306574D01*
X7814128Y1307003D01*
X7814362Y1307354D01*
X7814557Y1307666D01*
X7814713Y1307900D01*
X7814830Y1308056D01*
X7814908Y1308173D01*
X7814947Y1308212D01*
X7815415Y1308758D01*
X7815922Y1309265D01*
X7816975Y1310201D01*
X7818067Y1311020D01*
X7819120Y1311683D01*
X7819627Y1311956D01*
X7820095Y1312190D01*
X7820485Y1312424D01*
X7820836Y1312580D01*
X7821148Y1312736D01*
X7821343Y1312814D01*
X7821499Y1312892D01*
X7821538D01*
X7822318Y1313204D01*
X7823137Y1313477D01*
X7824775Y1313867D01*
X7826374Y1314179D01*
X7827115Y1314296D01*
X7827817Y1314413D01*
X7828480Y1314452D01*
X7829104Y1314530D01*
X7829650Y1314569D01*
X7830079D01*
X7830469Y1314608D01*
X7830976D01*
X7832302Y1314569D01*
D02*
G37*
G36*
X7801102Y1265819D02*
X7765261D01*
Y1271474D01*
X7794745D01*
Y1287815D01*
X7768186D01*
Y1293470D01*
X7794745D01*
Y1308173D01*
X7766392D01*
Y1313828D01*
X7801102D01*
Y1265819D01*
D02*
G37*
G36*
X7761751D02*
X7755043D01*
X7749778Y1280366D01*
X7729693D01*
X7724116Y1265819D01*
X7716901D01*
X7736479Y1313828D01*
X7743382D01*
X7761751Y1265819D01*
D02*
G37*
G36*
X7711675D02*
X7705318D01*
Y1287152D01*
X7697128D01*
X7696387Y1287113D01*
X7695763Y1287074D01*
X7695295Y1287035D01*
X7694905Y1286996D01*
X7694632Y1286957D01*
X7694476Y1286918D01*
X7694437D01*
X7693891Y1286762D01*
X7693384Y1286567D01*
X7692916Y1286333D01*
X7692487Y1286099D01*
X7692097Y1285904D01*
X7691824Y1285748D01*
X7691668Y1285631D01*
X7691590Y1285592D01*
X7691044Y1285202D01*
X7690459Y1284734D01*
X7689913Y1284188D01*
X7689445Y1283642D01*
X7688977Y1283174D01*
X7688665Y1282784D01*
X7688509Y1282628D01*
X7688431Y1282511D01*
X7688353Y1282433D01*
Y1282394D01*
X7688002Y1281926D01*
X7687612Y1281458D01*
X7686871Y1280405D01*
X7686091Y1279313D01*
X7685350Y1278221D01*
X7685038Y1277753D01*
X7684726Y1277285D01*
X7684453Y1276856D01*
X7684219Y1276505D01*
X7684024Y1276232D01*
X7683868Y1275998D01*
X7683790Y1275842D01*
X7683751Y1275803D01*
X7677394Y1265819D01*
X7669477D01*
X7677784Y1278884D01*
X7678720Y1280249D01*
X7679656Y1281497D01*
X7680085Y1282043D01*
X7680514Y1282589D01*
X7680943Y1283057D01*
X7681333Y1283486D01*
X7681684Y1283876D01*
X7682035Y1284227D01*
X7682308Y1284539D01*
X7682581Y1284773D01*
X7682776Y1284968D01*
X7682932Y1285124D01*
X7683010Y1285202D01*
X7683049Y1285241D01*
X7683595Y1285670D01*
X7684180Y1286099D01*
X7684804Y1286528D01*
X7685428Y1286879D01*
X7686013Y1287191D01*
X7686442Y1287464D01*
X7686637Y1287542D01*
X7686754Y1287620D01*
X7686832Y1287659D01*
X7686871D01*
X7685623Y1287854D01*
X7684453Y1288127D01*
X7683361Y1288400D01*
X7682347Y1288751D01*
X7681450Y1289102D01*
X7680592Y1289492D01*
X7679851Y1289843D01*
X7679188Y1290233D01*
X7678564Y1290584D01*
X7678057Y1290935D01*
X7677628Y1291247D01*
X7677277Y1291559D01*
X7677004Y1291793D01*
X7676809Y1291949D01*
X7676692Y1292066D01*
X7676653Y1292105D01*
X7676068Y1292768D01*
X7675561Y1293470D01*
X7675132Y1294211D01*
X7674742Y1294952D01*
X7674430Y1295654D01*
X7674157Y1296395D01*
X7673923Y1297058D01*
X7673767Y1297721D01*
X7673611Y1298345D01*
X7673494Y1298930D01*
X7673455Y1299437D01*
X7673377Y1299866D01*
Y1300217D01*
X7673338Y1300490D01*
Y1300685D01*
Y1300724D01*
X7673377Y1301465D01*
X7673416Y1302167D01*
X7673650Y1303532D01*
X7673962Y1304741D01*
X7674157Y1305287D01*
X7674352Y1305794D01*
X7674547Y1306262D01*
X7674742Y1306691D01*
X7674898Y1307042D01*
X7675054Y1307354D01*
X7675171Y1307627D01*
X7675288Y1307783D01*
X7675327Y1307900D01*
X7675366Y1307939D01*
X7675756Y1308524D01*
X7676146Y1309070D01*
X7676614Y1309577D01*
X7677043Y1310045D01*
X7677472Y1310435D01*
X7677940Y1310825D01*
X7678369Y1311176D01*
X7678798Y1311449D01*
X7679539Y1311917D01*
X7679851Y1312112D01*
X7680163Y1312268D01*
X7680397Y1312346D01*
X7680553Y1312424D01*
X7680670Y1312502D01*
X7680709D01*
X7681372Y1312736D01*
X7682074Y1312931D01*
X7682854Y1313126D01*
X7683634Y1313282D01*
X7685233Y1313516D01*
X7686793Y1313672D01*
X7687534Y1313711D01*
X7688236Y1313750D01*
X7688821Y1313789D01*
X7689367Y1313828D01*
X7711675D01*
Y1265819D01*
D02*
G37*
G36*
X6142102D02*
X6135979D01*
Y1306691D01*
X6122095Y1265819D01*
X6116401D01*
X6102361Y1305989D01*
Y1265819D01*
X6096238D01*
Y1313828D01*
X6104779D01*
X6116323Y1280405D01*
X6116635Y1279469D01*
X6116947Y1278611D01*
X6117220Y1277831D01*
X6117454Y1277051D01*
X6117688Y1276388D01*
X6117922Y1275764D01*
X6118117Y1275179D01*
X6118273Y1274672D01*
X6118429Y1274204D01*
X6118546Y1273814D01*
X6118663Y1273502D01*
X6118741Y1273229D01*
X6118819Y1272995D01*
X6118858Y1272839D01*
X6118897Y1272761D01*
Y1272722D01*
X6119053Y1273190D01*
X6119209Y1273697D01*
X6119560Y1274828D01*
X6119950Y1275998D01*
X6120340Y1277168D01*
X6120496Y1277714D01*
X6120652Y1278221D01*
X6120808Y1278650D01*
X6120925Y1279040D01*
X6121042Y1279352D01*
X6121120Y1279625D01*
X6121198Y1279781D01*
Y1279820D01*
X6132586Y1313828D01*
X6142102D01*
Y1265819D01*
D02*
G37*
G36*
X6190189Y1286060D02*
X6190150Y1284656D01*
X6190111Y1283369D01*
X6190033Y1282121D01*
X6189916Y1280990D01*
X6189760Y1279898D01*
X6189604Y1278923D01*
X6189448Y1278026D01*
X6189292Y1277207D01*
X6189136Y1276466D01*
X6188980Y1275842D01*
X6188824Y1275296D01*
X6188668Y1274867D01*
X6188551Y1274516D01*
X6188473Y1274243D01*
X6188395Y1274087D01*
Y1274048D01*
X6188005Y1273229D01*
X6187615Y1272488D01*
X6187147Y1271786D01*
X6186679Y1271123D01*
X6186172Y1270538D01*
X6185665Y1269992D01*
X6185158Y1269485D01*
X6184651Y1269017D01*
X6184183Y1268627D01*
X6183715Y1268276D01*
X6183325Y1267964D01*
X6182974Y1267730D01*
X6182662Y1267535D01*
X6182467Y1267418D01*
X6182311Y1267340D01*
X6182272Y1267301D01*
X6181453Y1266911D01*
X6180556Y1266560D01*
X6179659Y1266248D01*
X6178723Y1265975D01*
X6177826Y1265741D01*
X6176890Y1265546D01*
X6175993Y1265429D01*
X6175135Y1265273D01*
X6174355Y1265195D01*
X6173614Y1265117D01*
X6172912Y1265078D01*
X6172366Y1265039D01*
X6171898Y1265000D01*
X6171235D01*
X6169948Y1265039D01*
X6168778Y1265117D01*
X6167608Y1265234D01*
X6166555Y1265429D01*
X6165580Y1265624D01*
X6164644Y1265858D01*
X6163786Y1266092D01*
X6163045Y1266326D01*
X6162343Y1266560D01*
X6161758Y1266833D01*
X6161251Y1267028D01*
X6160822Y1267223D01*
X6160471Y1267418D01*
X6160237Y1267535D01*
X6160081Y1267613D01*
X6160042Y1267652D01*
X6159262Y1268159D01*
X6158560Y1268705D01*
X6157897Y1269290D01*
X6157312Y1269836D01*
X6156766Y1270421D01*
X6156298Y1271006D01*
X6155830Y1271552D01*
X6155479Y1272098D01*
X6155128Y1272605D01*
X6154855Y1273073D01*
X6154621Y1273502D01*
X6154426Y1273853D01*
X6154309Y1274165D01*
X6154192Y1274360D01*
X6154114Y1274516D01*
Y1274555D01*
X6153841Y1275374D01*
X6153568Y1276271D01*
X6153178Y1278182D01*
X6152866Y1280093D01*
X6152749Y1281029D01*
X6152671Y1281926D01*
X6152593Y1282784D01*
X6152554Y1283564D01*
X6152515Y1284266D01*
Y1284851D01*
X6152476Y1285358D01*
Y1285748D01*
Y1285982D01*
Y1286021D01*
Y1286060D01*
Y1313828D01*
X6158833D01*
Y1286099D01*
X6158872Y1284461D01*
X6158950Y1282979D01*
X6159106Y1281614D01*
X6159301Y1280366D01*
X6159535Y1279274D01*
X6159769Y1278260D01*
X6160042Y1277363D01*
X6160315Y1276622D01*
X6160627Y1275920D01*
X6160900Y1275374D01*
X6161134Y1274906D01*
X6161368Y1274516D01*
X6161563Y1274243D01*
X6161719Y1274048D01*
X6161797Y1273931D01*
X6161836Y1273892D01*
X6162421Y1273346D01*
X6163123Y1272839D01*
X6163864Y1272410D01*
X6164644Y1272059D01*
X6165463Y1271747D01*
X6166282Y1271513D01*
X6167101Y1271279D01*
X6167920Y1271123D01*
X6168700Y1271006D01*
X6169402Y1270889D01*
X6170065Y1270850D01*
X6170650Y1270772D01*
X6171118D01*
X6171469Y1270733D01*
X6171781D01*
X6173263Y1270811D01*
X6174589Y1270967D01*
X6175213Y1271123D01*
X6175759Y1271240D01*
X6176305Y1271396D01*
X6176773Y1271552D01*
X6177202Y1271669D01*
X6177592Y1271825D01*
X6177943Y1271981D01*
X6178216Y1272098D01*
X6178450Y1272176D01*
X6178606Y1272254D01*
X6178684Y1272332D01*
X6178723D01*
X6179698Y1272995D01*
X6180517Y1273736D01*
X6181219Y1274477D01*
X6181765Y1275218D01*
X6182194Y1275881D01*
X6182350Y1276154D01*
X6182467Y1276427D01*
X6182584Y1276622D01*
X6182662Y1276778D01*
X6182701Y1276856D01*
Y1276895D01*
X6182896Y1277480D01*
X6183091Y1278143D01*
X6183208Y1278845D01*
X6183364Y1279586D01*
X6183559Y1281107D01*
X6183676Y1282628D01*
X6183754Y1283330D01*
Y1283954D01*
X6183793Y1284578D01*
X6183832Y1285085D01*
Y1285514D01*
Y1285826D01*
Y1286021D01*
Y1286099D01*
Y1313828D01*
X6190189D01*
Y1286060D01*
D02*
G37*
G36*
X6235000Y1265819D02*
X6228643D01*
Y1285358D01*
X6216358D01*
X6214525Y1285397D01*
X6212848Y1285553D01*
X6211288Y1285748D01*
X6209845Y1286021D01*
X6208597Y1286333D01*
X6207427Y1286684D01*
X6206413Y1287074D01*
X6205516Y1287464D01*
X6204697Y1287854D01*
X6204034Y1288244D01*
X6203488Y1288595D01*
X6203059Y1288907D01*
X6202708Y1289180D01*
X6202474Y1289375D01*
X6202318Y1289531D01*
X6202279Y1289570D01*
X6201577Y1290389D01*
X6200992Y1291247D01*
X6200485Y1292105D01*
X6200017Y1293002D01*
X6199627Y1293860D01*
X6199315Y1294718D01*
X6199081Y1295537D01*
X6198847Y1296356D01*
X6198691Y1297097D01*
X6198574Y1297799D01*
X6198496Y1298384D01*
X6198457Y1298930D01*
X6198418Y1299359D01*
X6198379Y1299671D01*
Y1299866D01*
Y1299944D01*
X6198457Y1301231D01*
X6198613Y1302479D01*
X6198847Y1303571D01*
X6198964Y1304078D01*
X6199120Y1304546D01*
X6199276Y1304936D01*
X6199393Y1305326D01*
X6199510Y1305677D01*
X6199627Y1305950D01*
X6199705Y1306145D01*
X6199783Y1306340D01*
X6199861Y1306418D01*
Y1306457D01*
X6200446Y1307510D01*
X6201070Y1308446D01*
X6201733Y1309265D01*
X6202318Y1309889D01*
X6202864Y1310435D01*
X6203332Y1310786D01*
X6203488Y1310942D01*
X6203605Y1311020D01*
X6203683Y1311098D01*
X6203722D01*
X6204658Y1311683D01*
X6205633Y1312151D01*
X6206647Y1312541D01*
X6207544Y1312853D01*
X6207973Y1312970D01*
X6208363Y1313087D01*
X6208714Y1313165D01*
X6209026Y1313243D01*
X6209260Y1313282D01*
X6209455Y1313321D01*
X6209572Y1313360D01*
X6209611D01*
X6210118Y1313438D01*
X6210664Y1313516D01*
X6211834Y1313633D01*
X6213043Y1313711D01*
X6214213Y1313789D01*
X6215266D01*
X6215734Y1313828D01*
X6235000D01*
Y1265819D01*
D02*
G37*
G36*
X6086020D02*
X6079663D01*
Y1285358D01*
X6067378D01*
X6065545Y1285397D01*
X6063868Y1285553D01*
X6062308Y1285748D01*
X6060865Y1286021D01*
X6059617Y1286333D01*
X6058447Y1286684D01*
X6057433Y1287074D01*
X6056536Y1287464D01*
X6055717Y1287854D01*
X6055054Y1288244D01*
X6054508Y1288595D01*
X6054079Y1288907D01*
X6053728Y1289180D01*
X6053494Y1289375D01*
X6053338Y1289531D01*
X6053299Y1289570D01*
X6052597Y1290389D01*
X6052012Y1291247D01*
X6051505Y1292105D01*
X6051037Y1293002D01*
X6050647Y1293860D01*
X6050335Y1294718D01*
X6050101Y1295537D01*
X6049867Y1296356D01*
X6049711Y1297097D01*
X6049594Y1297799D01*
X6049516Y1298384D01*
X6049477Y1298930D01*
X6049438Y1299359D01*
X6049399Y1299671D01*
Y1299866D01*
Y1299944D01*
X6049477Y1301231D01*
X6049633Y1302479D01*
X6049867Y1303571D01*
X6049984Y1304078D01*
X6050140Y1304546D01*
X6050296Y1304936D01*
X6050413Y1305326D01*
X6050530Y1305677D01*
X6050647Y1305950D01*
X6050725Y1306145D01*
X6050803Y1306340D01*
X6050881Y1306418D01*
Y1306457D01*
X6051466Y1307510D01*
X6052090Y1308446D01*
X6052753Y1309265D01*
X6053338Y1309889D01*
X6053884Y1310435D01*
X6054352Y1310786D01*
X6054508Y1310942D01*
X6054625Y1311020D01*
X6054703Y1311098D01*
X6054742D01*
X6055678Y1311683D01*
X6056653Y1312151D01*
X6057667Y1312541D01*
X6058564Y1312853D01*
X6058993Y1312970D01*
X6059383Y1313087D01*
X6059734Y1313165D01*
X6060046Y1313243D01*
X6060280Y1313282D01*
X6060475Y1313321D01*
X6060592Y1313360D01*
X6060631D01*
X6061138Y1313438D01*
X6061684Y1313516D01*
X6062854Y1313633D01*
X6064063Y1313711D01*
X6065233Y1313789D01*
X6066286D01*
X6066754Y1313828D01*
X6086020D01*
Y1265819D01*
D02*
G37*
G36*
X5594817Y1314569D02*
X5595987Y1314491D01*
X5597079Y1314335D01*
X5598132Y1314140D01*
X5599185Y1313945D01*
X5600121Y1313672D01*
X5601018Y1313438D01*
X5601876Y1313165D01*
X5602617Y1312892D01*
X5603280Y1312619D01*
X5603865Y1312346D01*
X5604372Y1312151D01*
X5604762Y1311956D01*
X5605074Y1311800D01*
X5605230Y1311722D01*
X5605308Y1311683D01*
X5606283Y1311098D01*
X5607180Y1310474D01*
X5607999Y1309850D01*
X5608779Y1309148D01*
X5609520Y1308446D01*
X5610183Y1307744D01*
X5610807Y1307042D01*
X5611353Y1306379D01*
X5611821Y1305716D01*
X5612250Y1305131D01*
X5612601Y1304585D01*
X5612874Y1304156D01*
X5613108Y1303766D01*
X5613303Y1303454D01*
X5613381Y1303298D01*
X5613420Y1303220D01*
X5613927Y1302167D01*
X5614356Y1301075D01*
X5614746Y1299944D01*
X5615058Y1298813D01*
X5615331Y1297721D01*
X5615565Y1296629D01*
X5615760Y1295576D01*
X5615916Y1294601D01*
X5616033Y1293665D01*
X5616111Y1292807D01*
X5616189Y1292066D01*
X5616228Y1291403D01*
Y1290896D01*
X5616267Y1290506D01*
Y1290350D01*
Y1290233D01*
Y1290194D01*
Y1290155D01*
X5616228Y1288868D01*
X5616150Y1287620D01*
X5616033Y1286411D01*
X5615877Y1285241D01*
X5615682Y1284149D01*
X5615448Y1283057D01*
X5615253Y1282082D01*
X5614980Y1281146D01*
X5614746Y1280288D01*
X5614551Y1279547D01*
X5614317Y1278884D01*
X5614122Y1278338D01*
X5613966Y1277870D01*
X5613849Y1277558D01*
X5613771Y1277363D01*
X5613732Y1277285D01*
X5613225Y1276193D01*
X5612679Y1275179D01*
X5612094Y1274204D01*
X5611509Y1273307D01*
X5610885Y1272488D01*
X5610300Y1271747D01*
X5609676Y1271045D01*
X5609091Y1270460D01*
X5608545Y1269914D01*
X5608038Y1269446D01*
X5607570Y1269056D01*
X5607141Y1268705D01*
X5606829Y1268471D01*
X5606556Y1268276D01*
X5606400Y1268159D01*
X5606361Y1268120D01*
X5605425Y1267574D01*
X5604411Y1267106D01*
X5603397Y1266677D01*
X5602344Y1266326D01*
X5601291Y1266014D01*
X5600238Y1265780D01*
X5599224Y1265546D01*
X5598249Y1265390D01*
X5597313Y1265273D01*
X5596455Y1265156D01*
X5595714Y1265078D01*
X5595051Y1265039D01*
X5594505D01*
X5594115Y1265000D01*
X5593764D01*
X5592399Y1265039D01*
X5591073Y1265195D01*
X5589825Y1265390D01*
X5588616Y1265624D01*
X5587524Y1265936D01*
X5586471Y1266287D01*
X5585496Y1266677D01*
X5584599Y1267067D01*
X5583819Y1267418D01*
X5583117Y1267808D01*
X5582532Y1268159D01*
X5582025Y1268471D01*
X5581635Y1268705D01*
X5581323Y1268939D01*
X5581167Y1269056D01*
X5581089Y1269095D01*
X5580153Y1269914D01*
X5579295Y1270772D01*
X5578515Y1271708D01*
X5577774Y1272683D01*
X5577111Y1273697D01*
X5576526Y1274672D01*
X5575980Y1275647D01*
X5575551Y1276583D01*
X5575122Y1277480D01*
X5574771Y1278338D01*
X5574498Y1279079D01*
X5574264Y1279742D01*
X5574108Y1280288D01*
X5573952Y1280678D01*
X5573913Y1280834D01*
Y1280951D01*
X5573874Y1280990D01*
Y1281029D01*
X5580231Y1282628D01*
X5580504Y1281536D01*
X5580816Y1280483D01*
X5581167Y1279508D01*
X5581557Y1278650D01*
X5581986Y1277792D01*
X5582415Y1277051D01*
X5582844Y1276388D01*
X5583234Y1275764D01*
X5583624Y1275218D01*
X5584014Y1274750D01*
X5584365Y1274360D01*
X5584677Y1274048D01*
X5584911Y1273775D01*
X5585106Y1273619D01*
X5585223Y1273502D01*
X5585262Y1273463D01*
X5585964Y1272917D01*
X5586705Y1272449D01*
X5587446Y1272059D01*
X5588226Y1271708D01*
X5588967Y1271396D01*
X5589708Y1271162D01*
X5590449Y1270967D01*
X5591151Y1270811D01*
X5591775Y1270694D01*
X5592399Y1270577D01*
X5592906Y1270499D01*
X5593374Y1270460D01*
X5593764D01*
X5594037Y1270421D01*
X5594271D01*
X5595090Y1270460D01*
X5595870Y1270499D01*
X5596650Y1270616D01*
X5597391Y1270772D01*
X5598093Y1270928D01*
X5598756Y1271123D01*
X5599380Y1271318D01*
X5599965Y1271552D01*
X5600511Y1271747D01*
X5600979Y1271942D01*
X5601408Y1272137D01*
X5601759Y1272293D01*
X5602032Y1272449D01*
X5602266Y1272566D01*
X5602383Y1272605D01*
X5602422Y1272644D01*
X5603085Y1273112D01*
X5603748Y1273580D01*
X5604333Y1274126D01*
X5604879Y1274672D01*
X5605347Y1275218D01*
X5605815Y1275803D01*
X5606244Y1276349D01*
X5606595Y1276895D01*
X5606907Y1277441D01*
X5607180Y1277909D01*
X5607414Y1278338D01*
X5607609Y1278728D01*
X5607765Y1279040D01*
X5607882Y1279274D01*
X5607921Y1279430D01*
X5607960Y1279469D01*
X5608272Y1280366D01*
X5608545Y1281263D01*
X5608974Y1283096D01*
X5609286Y1284890D01*
X5609403Y1285748D01*
X5609481Y1286567D01*
X5609559Y1287308D01*
X5609637Y1288010D01*
X5609676Y1288634D01*
Y1289180D01*
X5609715Y1289609D01*
Y1289921D01*
Y1290116D01*
Y1290194D01*
X5609637Y1291949D01*
X5609481Y1293626D01*
X5609364Y1294406D01*
X5609247Y1295186D01*
X5609130Y1295888D01*
X5608974Y1296551D01*
X5608818Y1297175D01*
X5608701Y1297721D01*
X5608584Y1298228D01*
X5608467Y1298618D01*
X5608350Y1298969D01*
X5608311Y1299203D01*
X5608233Y1299359D01*
Y1299398D01*
X5607921Y1300217D01*
X5607570Y1300997D01*
X5607180Y1301738D01*
X5606790Y1302401D01*
X5606361Y1303025D01*
X5605893Y1303610D01*
X5605464Y1304156D01*
X5605035Y1304663D01*
X5604645Y1305092D01*
X5604255Y1305443D01*
X5603904Y1305794D01*
X5603592Y1306067D01*
X5603358Y1306262D01*
X5603163Y1306418D01*
X5603046Y1306496D01*
X5603007Y1306535D01*
X5602305Y1307003D01*
X5601564Y1307393D01*
X5600784Y1307783D01*
X5600004Y1308056D01*
X5599224Y1308329D01*
X5598444Y1308524D01*
X5597703Y1308719D01*
X5597001Y1308875D01*
X5596338Y1308953D01*
X5595714Y1309031D01*
X5595168Y1309109D01*
X5594700Y1309148D01*
X5594310Y1309187D01*
X5593764D01*
X5592867Y1309148D01*
X5592048Y1309070D01*
X5591229Y1308953D01*
X5590488Y1308797D01*
X5589786Y1308641D01*
X5589123Y1308407D01*
X5588538Y1308212D01*
X5587992Y1307978D01*
X5587485Y1307744D01*
X5587056Y1307549D01*
X5586705Y1307315D01*
X5586393Y1307159D01*
X5586120Y1307003D01*
X5585964Y1306886D01*
X5585847Y1306808D01*
X5585808Y1306769D01*
X5585223Y1306301D01*
X5584677Y1305755D01*
X5584170Y1305170D01*
X5583702Y1304585D01*
X5582844Y1303337D01*
X5582181Y1302089D01*
X5581869Y1301504D01*
X5581635Y1300958D01*
X5581401Y1300451D01*
X5581245Y1300022D01*
X5581089Y1299671D01*
X5581011Y1299398D01*
X5580933Y1299242D01*
Y1299164D01*
X5574693Y1300607D01*
X5575083Y1301816D01*
X5575551Y1302986D01*
X5576058Y1304039D01*
X5576604Y1305053D01*
X5577150Y1305950D01*
X5577735Y1306808D01*
X5578281Y1307588D01*
X5578866Y1308290D01*
X5579412Y1308875D01*
X5579880Y1309421D01*
X5580348Y1309889D01*
X5580738Y1310279D01*
X5581089Y1310552D01*
X5581323Y1310786D01*
X5581518Y1310903D01*
X5581557Y1310942D01*
X5582493Y1311605D01*
X5583468Y1312151D01*
X5584482Y1312658D01*
X5585535Y1313048D01*
X5586549Y1313399D01*
X5587524Y1313711D01*
X5588499Y1313945D01*
X5589435Y1314140D01*
X5590332Y1314296D01*
X5591112Y1314413D01*
X5591814Y1314491D01*
X5592438Y1314569D01*
X5592945D01*
X5593335Y1314608D01*
X5593647D01*
X5594817Y1314569D01*
D02*
G37*
G36*
X5700000Y1265819D02*
X5664159D01*
Y1271474D01*
X5693643D01*
Y1287815D01*
X5667084D01*
Y1293470D01*
X5693643D01*
Y1308173D01*
X5665290D01*
Y1313828D01*
X5700000D01*
Y1265819D01*
D02*
G37*
G36*
X5658972Y1308173D02*
X5643177D01*
Y1265819D01*
X5636820D01*
Y1308173D01*
X5620947D01*
Y1313828D01*
X5658972D01*
Y1308173D01*
D02*
G37*
G36*
X6589134Y1314569D02*
X6590304Y1314491D01*
X6591396Y1314335D01*
X6592449Y1314140D01*
X6593502Y1313945D01*
X6594438Y1313672D01*
X6595335Y1313438D01*
X6596193Y1313165D01*
X6596934Y1312892D01*
X6597597Y1312619D01*
X6598182Y1312346D01*
X6598689Y1312151D01*
X6599079Y1311956D01*
X6599391Y1311800D01*
X6599547Y1311722D01*
X6599625Y1311683D01*
X6600600Y1311098D01*
X6601497Y1310474D01*
X6602316Y1309850D01*
X6603096Y1309148D01*
X6603837Y1308446D01*
X6604500Y1307744D01*
X6605124Y1307042D01*
X6605670Y1306379D01*
X6606138Y1305716D01*
X6606567Y1305131D01*
X6606918Y1304585D01*
X6607191Y1304156D01*
X6607425Y1303766D01*
X6607620Y1303454D01*
X6607698Y1303298D01*
X6607737Y1303220D01*
X6608244Y1302167D01*
X6608673Y1301075D01*
X6609063Y1299944D01*
X6609375Y1298813D01*
X6609648Y1297721D01*
X6609882Y1296629D01*
X6610077Y1295576D01*
X6610233Y1294601D01*
X6610350Y1293665D01*
X6610428Y1292807D01*
X6610506Y1292066D01*
X6610545Y1291403D01*
Y1290896D01*
X6610584Y1290506D01*
Y1290350D01*
Y1290233D01*
Y1290194D01*
Y1290155D01*
X6610545Y1288868D01*
X6610467Y1287620D01*
X6610350Y1286411D01*
X6610194Y1285241D01*
X6609999Y1284149D01*
X6609765Y1283057D01*
X6609570Y1282082D01*
X6609297Y1281146D01*
X6609063Y1280288D01*
X6608868Y1279547D01*
X6608634Y1278884D01*
X6608439Y1278338D01*
X6608283Y1277870D01*
X6608166Y1277558D01*
X6608088Y1277363D01*
X6608049Y1277285D01*
X6607542Y1276193D01*
X6606996Y1275179D01*
X6606411Y1274204D01*
X6605826Y1273307D01*
X6605202Y1272488D01*
X6604617Y1271747D01*
X6603993Y1271045D01*
X6603408Y1270460D01*
X6602862Y1269914D01*
X6602355Y1269446D01*
X6601887Y1269056D01*
X6601458Y1268705D01*
X6601146Y1268471D01*
X6600873Y1268276D01*
X6600717Y1268159D01*
X6600678Y1268120D01*
X6599742Y1267574D01*
X6598728Y1267106D01*
X6597714Y1266677D01*
X6596661Y1266326D01*
X6595608Y1266014D01*
X6594555Y1265780D01*
X6593541Y1265546D01*
X6592566Y1265390D01*
X6591630Y1265273D01*
X6590772Y1265156D01*
X6590031Y1265078D01*
X6589368Y1265039D01*
X6588822D01*
X6588432Y1265000D01*
X6588081D01*
X6586716Y1265039D01*
X6585390Y1265195D01*
X6584142Y1265390D01*
X6582933Y1265624D01*
X6581841Y1265936D01*
X6580788Y1266287D01*
X6579813Y1266677D01*
X6578916Y1267067D01*
X6578136Y1267418D01*
X6577434Y1267808D01*
X6576849Y1268159D01*
X6576342Y1268471D01*
X6575952Y1268705D01*
X6575640Y1268939D01*
X6575484Y1269056D01*
X6575406Y1269095D01*
X6574470Y1269914D01*
X6573612Y1270772D01*
X6572832Y1271708D01*
X6572091Y1272683D01*
X6571428Y1273697D01*
X6570843Y1274672D01*
X6570297Y1275647D01*
X6569868Y1276583D01*
X6569439Y1277480D01*
X6569088Y1278338D01*
X6568815Y1279079D01*
X6568581Y1279742D01*
X6568425Y1280288D01*
X6568269Y1280678D01*
X6568230Y1280834D01*
Y1280951D01*
X6568191Y1280990D01*
Y1281029D01*
X6574548Y1282628D01*
X6574821Y1281536D01*
X6575133Y1280483D01*
X6575484Y1279508D01*
X6575874Y1278650D01*
X6576303Y1277792D01*
X6576732Y1277051D01*
X6577161Y1276388D01*
X6577551Y1275764D01*
X6577941Y1275218D01*
X6578331Y1274750D01*
X6578682Y1274360D01*
X6578994Y1274048D01*
X6579228Y1273775D01*
X6579423Y1273619D01*
X6579540Y1273502D01*
X6579579Y1273463D01*
X6580281Y1272917D01*
X6581022Y1272449D01*
X6581763Y1272059D01*
X6582543Y1271708D01*
X6583284Y1271396D01*
X6584025Y1271162D01*
X6584766Y1270967D01*
X6585468Y1270811D01*
X6586092Y1270694D01*
X6586716Y1270577D01*
X6587223Y1270499D01*
X6587691Y1270460D01*
X6588081D01*
X6588354Y1270421D01*
X6588588D01*
X6589407Y1270460D01*
X6590187Y1270499D01*
X6590967Y1270616D01*
X6591708Y1270772D01*
X6592410Y1270928D01*
X6593073Y1271123D01*
X6593697Y1271318D01*
X6594282Y1271552D01*
X6594828Y1271747D01*
X6595296Y1271942D01*
X6595725Y1272137D01*
X6596076Y1272293D01*
X6596349Y1272449D01*
X6596583Y1272566D01*
X6596700Y1272605D01*
X6596739Y1272644D01*
X6597402Y1273112D01*
X6598065Y1273580D01*
X6598650Y1274126D01*
X6599196Y1274672D01*
X6599664Y1275218D01*
X6600132Y1275803D01*
X6600561Y1276349D01*
X6600912Y1276895D01*
X6601224Y1277441D01*
X6601497Y1277909D01*
X6601731Y1278338D01*
X6601926Y1278728D01*
X6602082Y1279040D01*
X6602199Y1279274D01*
X6602238Y1279430D01*
X6602277Y1279469D01*
X6602589Y1280366D01*
X6602862Y1281263D01*
X6603291Y1283096D01*
X6603603Y1284890D01*
X6603720Y1285748D01*
X6603798Y1286567D01*
X6603876Y1287308D01*
X6603954Y1288010D01*
X6603993Y1288634D01*
Y1289180D01*
X6604032Y1289609D01*
Y1289921D01*
Y1290116D01*
Y1290194D01*
X6603954Y1291949D01*
X6603798Y1293626D01*
X6603681Y1294406D01*
X6603564Y1295186D01*
X6603447Y1295888D01*
X6603291Y1296551D01*
X6603135Y1297175D01*
X6603018Y1297721D01*
X6602901Y1298228D01*
X6602784Y1298618D01*
X6602667Y1298969D01*
X6602628Y1299203D01*
X6602550Y1299359D01*
Y1299398D01*
X6602238Y1300217D01*
X6601887Y1300997D01*
X6601497Y1301738D01*
X6601107Y1302401D01*
X6600678Y1303025D01*
X6600210Y1303610D01*
X6599781Y1304156D01*
X6599352Y1304663D01*
X6598962Y1305092D01*
X6598572Y1305443D01*
X6598221Y1305794D01*
X6597909Y1306067D01*
X6597675Y1306262D01*
X6597480Y1306418D01*
X6597363Y1306496D01*
X6597324Y1306535D01*
X6596622Y1307003D01*
X6595881Y1307393D01*
X6595101Y1307783D01*
X6594321Y1308056D01*
X6593541Y1308329D01*
X6592761Y1308524D01*
X6592020Y1308719D01*
X6591318Y1308875D01*
X6590655Y1308953D01*
X6590031Y1309031D01*
X6589485Y1309109D01*
X6589017Y1309148D01*
X6588627Y1309187D01*
X6588081D01*
X6587184Y1309148D01*
X6586365Y1309070D01*
X6585546Y1308953D01*
X6584805Y1308797D01*
X6584103Y1308641D01*
X6583440Y1308407D01*
X6582855Y1308212D01*
X6582309Y1307978D01*
X6581802Y1307744D01*
X6581373Y1307549D01*
X6581022Y1307315D01*
X6580710Y1307159D01*
X6580437Y1307003D01*
X6580281Y1306886D01*
X6580164Y1306808D01*
X6580125Y1306769D01*
X6579540Y1306301D01*
X6578994Y1305755D01*
X6578487Y1305170D01*
X6578019Y1304585D01*
X6577161Y1303337D01*
X6576498Y1302089D01*
X6576186Y1301504D01*
X6575952Y1300958D01*
X6575718Y1300451D01*
X6575562Y1300022D01*
X6575406Y1299671D01*
X6575328Y1299398D01*
X6575250Y1299242D01*
Y1299164D01*
X6569010Y1300607D01*
X6569400Y1301816D01*
X6569868Y1302986D01*
X6570375Y1304039D01*
X6570921Y1305053D01*
X6571467Y1305950D01*
X6572052Y1306808D01*
X6572598Y1307588D01*
X6573183Y1308290D01*
X6573729Y1308875D01*
X6574197Y1309421D01*
X6574665Y1309889D01*
X6575055Y1310279D01*
X6575406Y1310552D01*
X6575640Y1310786D01*
X6575835Y1310903D01*
X6575874Y1310942D01*
X6576810Y1311605D01*
X6577785Y1312151D01*
X6578799Y1312658D01*
X6579852Y1313048D01*
X6580866Y1313399D01*
X6581841Y1313711D01*
X6582816Y1313945D01*
X6583752Y1314140D01*
X6584649Y1314296D01*
X6585429Y1314413D01*
X6586131Y1314491D01*
X6586755Y1314569D01*
X6587262D01*
X6587652Y1314608D01*
X6587964D01*
X6589134Y1314569D01*
D02*
G37*
G36*
X6780000Y1265819D02*
X6744159D01*
Y1271474D01*
X6773643D01*
Y1287815D01*
X6747084D01*
Y1293470D01*
X6773643D01*
Y1308173D01*
X6745290D01*
Y1313828D01*
X6780000D01*
Y1265819D01*
D02*
G37*
G36*
X6735072D02*
X6728715D01*
Y1287620D01*
X6706212D01*
Y1293275D01*
X6728715D01*
Y1308173D01*
X6702702D01*
Y1313828D01*
X6735072D01*
Y1265819D01*
D02*
G37*
G36*
X6694122D02*
X6687765D01*
Y1287620D01*
X6665262D01*
Y1293275D01*
X6687765D01*
Y1308173D01*
X6661752D01*
Y1313828D01*
X6694122D01*
Y1265819D01*
D02*
G37*
G36*
X6653367D02*
X6617526D01*
Y1271474D01*
X6647010D01*
Y1287815D01*
X6620451D01*
Y1293470D01*
X6647010D01*
Y1308173D01*
X6618657D01*
Y1313828D01*
X6653367D01*
Y1265819D01*
D02*
G37*
G36*
X5095845Y1314569D02*
X5097015Y1314491D01*
X5098107Y1314335D01*
X5099160Y1314140D01*
X5100213Y1313945D01*
X5101149Y1313672D01*
X5102046Y1313438D01*
X5102904Y1313165D01*
X5103645Y1312892D01*
X5104308Y1312619D01*
X5104893Y1312346D01*
X5105400Y1312151D01*
X5105790Y1311956D01*
X5106102Y1311800D01*
X5106258Y1311722D01*
X5106336Y1311683D01*
X5107311Y1311098D01*
X5108208Y1310474D01*
X5109027Y1309850D01*
X5109807Y1309148D01*
X5110548Y1308446D01*
X5111211Y1307744D01*
X5111835Y1307042D01*
X5112381Y1306379D01*
X5112849Y1305716D01*
X5113278Y1305131D01*
X5113629Y1304585D01*
X5113902Y1304156D01*
X5114136Y1303766D01*
X5114331Y1303454D01*
X5114409Y1303298D01*
X5114448Y1303220D01*
X5114955Y1302167D01*
X5115384Y1301075D01*
X5115774Y1299944D01*
X5116086Y1298813D01*
X5116359Y1297721D01*
X5116593Y1296629D01*
X5116788Y1295576D01*
X5116944Y1294601D01*
X5117061Y1293665D01*
X5117139Y1292807D01*
X5117217Y1292066D01*
X5117256Y1291403D01*
Y1290896D01*
X5117295Y1290506D01*
Y1290350D01*
Y1290233D01*
Y1290194D01*
Y1290155D01*
X5117256Y1288868D01*
X5117178Y1287620D01*
X5117061Y1286411D01*
X5116905Y1285241D01*
X5116710Y1284149D01*
X5116476Y1283057D01*
X5116281Y1282082D01*
X5116008Y1281146D01*
X5115774Y1280288D01*
X5115579Y1279547D01*
X5115345Y1278884D01*
X5115150Y1278338D01*
X5114994Y1277870D01*
X5114877Y1277558D01*
X5114799Y1277363D01*
X5114760Y1277285D01*
X5114253Y1276193D01*
X5113707Y1275179D01*
X5113122Y1274204D01*
X5112537Y1273307D01*
X5111913Y1272488D01*
X5111328Y1271747D01*
X5110704Y1271045D01*
X5110119Y1270460D01*
X5109573Y1269914D01*
X5109066Y1269446D01*
X5108598Y1269056D01*
X5108169Y1268705D01*
X5107857Y1268471D01*
X5107584Y1268276D01*
X5107428Y1268159D01*
X5107389Y1268120D01*
X5106453Y1267574D01*
X5105439Y1267106D01*
X5104425Y1266677D01*
X5103372Y1266326D01*
X5102319Y1266014D01*
X5101266Y1265780D01*
X5100252Y1265546D01*
X5099277Y1265390D01*
X5098341Y1265273D01*
X5097483Y1265156D01*
X5096742Y1265078D01*
X5096079Y1265039D01*
X5095533D01*
X5095143Y1265000D01*
X5094792D01*
X5093427Y1265039D01*
X5092101Y1265195D01*
X5090853Y1265390D01*
X5089644Y1265624D01*
X5088552Y1265936D01*
X5087499Y1266287D01*
X5086524Y1266677D01*
X5085627Y1267067D01*
X5084847Y1267418D01*
X5084145Y1267808D01*
X5083560Y1268159D01*
X5083053Y1268471D01*
X5082663Y1268705D01*
X5082351Y1268939D01*
X5082195Y1269056D01*
X5082117Y1269095D01*
X5081181Y1269914D01*
X5080323Y1270772D01*
X5079543Y1271708D01*
X5078802Y1272683D01*
X5078139Y1273697D01*
X5077554Y1274672D01*
X5077008Y1275647D01*
X5076579Y1276583D01*
X5076150Y1277480D01*
X5075799Y1278338D01*
X5075526Y1279079D01*
X5075292Y1279742D01*
X5075136Y1280288D01*
X5074980Y1280678D01*
X5074941Y1280834D01*
Y1280951D01*
X5074902Y1280990D01*
Y1281029D01*
X5081259Y1282628D01*
X5081532Y1281536D01*
X5081844Y1280483D01*
X5082195Y1279508D01*
X5082585Y1278650D01*
X5083014Y1277792D01*
X5083443Y1277051D01*
X5083872Y1276388D01*
X5084262Y1275764D01*
X5084652Y1275218D01*
X5085042Y1274750D01*
X5085393Y1274360D01*
X5085705Y1274048D01*
X5085939Y1273775D01*
X5086134Y1273619D01*
X5086251Y1273502D01*
X5086290Y1273463D01*
X5086992Y1272917D01*
X5087733Y1272449D01*
X5088474Y1272059D01*
X5089254Y1271708D01*
X5089995Y1271396D01*
X5090736Y1271162D01*
X5091477Y1270967D01*
X5092179Y1270811D01*
X5092803Y1270694D01*
X5093427Y1270577D01*
X5093934Y1270499D01*
X5094402Y1270460D01*
X5094792D01*
X5095065Y1270421D01*
X5095299D01*
X5096118Y1270460D01*
X5096898Y1270499D01*
X5097678Y1270616D01*
X5098419Y1270772D01*
X5099121Y1270928D01*
X5099784Y1271123D01*
X5100408Y1271318D01*
X5100993Y1271552D01*
X5101539Y1271747D01*
X5102007Y1271942D01*
X5102436Y1272137D01*
X5102787Y1272293D01*
X5103060Y1272449D01*
X5103294Y1272566D01*
X5103411Y1272605D01*
X5103450Y1272644D01*
X5104113Y1273112D01*
X5104776Y1273580D01*
X5105361Y1274126D01*
X5105907Y1274672D01*
X5106375Y1275218D01*
X5106843Y1275803D01*
X5107272Y1276349D01*
X5107623Y1276895D01*
X5107935Y1277441D01*
X5108208Y1277909D01*
X5108442Y1278338D01*
X5108637Y1278728D01*
X5108793Y1279040D01*
X5108910Y1279274D01*
X5108949Y1279430D01*
X5108988Y1279469D01*
X5109300Y1280366D01*
X5109573Y1281263D01*
X5110002Y1283096D01*
X5110314Y1284890D01*
X5110431Y1285748D01*
X5110509Y1286567D01*
X5110587Y1287308D01*
X5110665Y1288010D01*
X5110704Y1288634D01*
Y1289180D01*
X5110743Y1289609D01*
Y1289921D01*
Y1290116D01*
Y1290194D01*
X5110665Y1291949D01*
X5110509Y1293626D01*
X5110392Y1294406D01*
X5110275Y1295186D01*
X5110158Y1295888D01*
X5110002Y1296551D01*
X5109846Y1297175D01*
X5109729Y1297721D01*
X5109612Y1298228D01*
X5109495Y1298618D01*
X5109378Y1298969D01*
X5109339Y1299203D01*
X5109261Y1299359D01*
Y1299398D01*
X5108949Y1300217D01*
X5108598Y1300997D01*
X5108208Y1301738D01*
X5107818Y1302401D01*
X5107389Y1303025D01*
X5106921Y1303610D01*
X5106492Y1304156D01*
X5106063Y1304663D01*
X5105673Y1305092D01*
X5105283Y1305443D01*
X5104932Y1305794D01*
X5104620Y1306067D01*
X5104386Y1306262D01*
X5104191Y1306418D01*
X5104074Y1306496D01*
X5104035Y1306535D01*
X5103333Y1307003D01*
X5102592Y1307393D01*
X5101812Y1307783D01*
X5101032Y1308056D01*
X5100252Y1308329D01*
X5099472Y1308524D01*
X5098731Y1308719D01*
X5098029Y1308875D01*
X5097366Y1308953D01*
X5096742Y1309031D01*
X5096196Y1309109D01*
X5095728Y1309148D01*
X5095338Y1309187D01*
X5094792D01*
X5093895Y1309148D01*
X5093076Y1309070D01*
X5092257Y1308953D01*
X5091516Y1308797D01*
X5090814Y1308641D01*
X5090151Y1308407D01*
X5089566Y1308212D01*
X5089020Y1307978D01*
X5088513Y1307744D01*
X5088084Y1307549D01*
X5087733Y1307315D01*
X5087421Y1307159D01*
X5087148Y1307003D01*
X5086992Y1306886D01*
X5086875Y1306808D01*
X5086836Y1306769D01*
X5086251Y1306301D01*
X5085705Y1305755D01*
X5085198Y1305170D01*
X5084730Y1304585D01*
X5083872Y1303337D01*
X5083209Y1302089D01*
X5082897Y1301504D01*
X5082663Y1300958D01*
X5082429Y1300451D01*
X5082273Y1300022D01*
X5082117Y1299671D01*
X5082039Y1299398D01*
X5081961Y1299242D01*
Y1299164D01*
X5075721Y1300607D01*
X5076111Y1301816D01*
X5076579Y1302986D01*
X5077086Y1304039D01*
X5077632Y1305053D01*
X5078178Y1305950D01*
X5078763Y1306808D01*
X5079309Y1307588D01*
X5079894Y1308290D01*
X5080440Y1308875D01*
X5080908Y1309421D01*
X5081376Y1309889D01*
X5081766Y1310279D01*
X5082117Y1310552D01*
X5082351Y1310786D01*
X5082546Y1310903D01*
X5082585Y1310942D01*
X5083521Y1311605D01*
X5084496Y1312151D01*
X5085510Y1312658D01*
X5086563Y1313048D01*
X5087577Y1313399D01*
X5088552Y1313711D01*
X5089527Y1313945D01*
X5090463Y1314140D01*
X5091360Y1314296D01*
X5092140Y1314413D01*
X5092842Y1314491D01*
X5093466Y1314569D01*
X5093973D01*
X5094363Y1314608D01*
X5094675D01*
X5095845Y1314569D01*
D02*
G37*
G36*
X5160000Y1308173D02*
X5144205D01*
Y1265819D01*
X5137848D01*
Y1308173D01*
X5121975D01*
Y1313828D01*
X5160000D01*
Y1308173D01*
D02*
G37*
G36*
X7225963Y1265000D02*
X7219840D01*
Y1305872D01*
X7205956Y1265000D01*
X7200262D01*
X7186222Y1305170D01*
Y1265000D01*
X7180099D01*
Y1313009D01*
X7188640D01*
X7200184Y1279586D01*
X7200496Y1278650D01*
X7200808Y1277792D01*
X7201081Y1277012D01*
X7201315Y1276232D01*
X7201549Y1275569D01*
X7201783Y1274945D01*
X7201978Y1274360D01*
X7202134Y1273853D01*
X7202290Y1273385D01*
X7202407Y1272995D01*
X7202524Y1272683D01*
X7202602Y1272410D01*
X7202680Y1272176D01*
X7202719Y1272020D01*
X7202758Y1271942D01*
Y1271903D01*
X7202914Y1272371D01*
X7203070Y1272878D01*
X7203421Y1274009D01*
X7203811Y1275179D01*
X7204201Y1276349D01*
X7204357Y1276895D01*
X7204513Y1277402D01*
X7204669Y1277831D01*
X7204786Y1278221D01*
X7204903Y1278533D01*
X7204981Y1278806D01*
X7205059Y1278962D01*
Y1279001D01*
X7216447Y1313009D01*
X7225963D01*
Y1265000D01*
D02*
G37*
G36*
X7315000Y1307354D02*
X7299205D01*
Y1265000D01*
X7292848D01*
Y1307354D01*
X7276975D01*
Y1313009D01*
X7315000D01*
Y1307354D01*
D02*
G37*
G36*
X7270345Y1265000D02*
X7234504D01*
Y1270655D01*
X7263988D01*
Y1286996D01*
X7237429D01*
Y1292651D01*
X7263988D01*
Y1307354D01*
X7235635D01*
Y1313009D01*
X7270345D01*
Y1265000D01*
D02*
G37*
G36*
X7169881D02*
X7163524D01*
Y1284539D01*
X7151239D01*
X7149406Y1284578D01*
X7147729Y1284734D01*
X7146169Y1284929D01*
X7144726Y1285202D01*
X7143478Y1285514D01*
X7142308Y1285865D01*
X7141294Y1286255D01*
X7140397Y1286645D01*
X7139578Y1287035D01*
X7138915Y1287425D01*
X7138369Y1287776D01*
X7137940Y1288088D01*
X7137589Y1288361D01*
X7137355Y1288556D01*
X7137199Y1288712D01*
X7137160Y1288751D01*
X7136458Y1289570D01*
X7135873Y1290428D01*
X7135366Y1291286D01*
X7134898Y1292183D01*
X7134508Y1293041D01*
X7134196Y1293899D01*
X7133962Y1294718D01*
X7133728Y1295537D01*
X7133572Y1296278D01*
X7133455Y1296980D01*
X7133377Y1297565D01*
X7133338Y1298111D01*
X7133299Y1298540D01*
X7133260Y1298852D01*
Y1299047D01*
Y1299125D01*
X7133338Y1300412D01*
X7133494Y1301660D01*
X7133728Y1302752D01*
X7133845Y1303259D01*
X7134001Y1303727D01*
X7134157Y1304117D01*
X7134274Y1304507D01*
X7134391Y1304858D01*
X7134508Y1305131D01*
X7134586Y1305326D01*
X7134664Y1305521D01*
X7134742Y1305599D01*
Y1305638D01*
X7135327Y1306691D01*
X7135951Y1307627D01*
X7136614Y1308446D01*
X7137199Y1309070D01*
X7137745Y1309616D01*
X7138213Y1309967D01*
X7138369Y1310123D01*
X7138486Y1310201D01*
X7138564Y1310279D01*
X7138603D01*
X7139539Y1310864D01*
X7140514Y1311332D01*
X7141528Y1311722D01*
X7142425Y1312034D01*
X7142854Y1312151D01*
X7143244Y1312268D01*
X7143595Y1312346D01*
X7143907Y1312424D01*
X7144141Y1312463D01*
X7144336Y1312502D01*
X7144453Y1312541D01*
X7144492D01*
X7144999Y1312619D01*
X7145545Y1312697D01*
X7146715Y1312814D01*
X7147924Y1312892D01*
X7149094Y1312970D01*
X7150147D01*
X7150615Y1313009D01*
X7169881D01*
Y1265000D01*
D02*
G37*
G36*
X5940000Y1081145D02*
X5930215D01*
Y1096448D01*
X5923448D01*
Y1081145D01*
X5892010D01*
X5888158Y1081353D01*
X5884723Y1081770D01*
X5883057Y1082082D01*
X5881600Y1082394D01*
X5880142Y1082707D01*
X5878893Y1083123D01*
X5877748Y1083539D01*
X5876707Y1083852D01*
X5875770Y1084164D01*
X5875042Y1084476D01*
X5874521Y1084789D01*
X5874001Y1084893D01*
X5873792Y1085101D01*
X5873688D01*
X5870878Y1086766D01*
X5868483Y1088536D01*
X5866401Y1090410D01*
X5864632Y1092180D01*
X5863278Y1093845D01*
X5862758Y1094574D01*
X5862341Y1095199D01*
X5861925Y1095615D01*
X5861717Y1096031D01*
X5861509Y1096240D01*
Y1096344D01*
X5860051Y1099154D01*
X5859010Y1102069D01*
X5858282Y1104984D01*
X5857761Y1107586D01*
X5857553Y1108836D01*
X5857449Y1109877D01*
X5857345Y1110918D01*
Y1111751D01*
X5857240Y1112375D01*
Y1112896D01*
Y1113208D01*
Y1113312D01*
Y1113520D01*
X5857345Y1116123D01*
X5857657Y1118517D01*
X5858177Y1120703D01*
X5858594Y1122681D01*
X5859114Y1124243D01*
X5859427Y1124971D01*
X5859635Y1125492D01*
X5859739Y1125908D01*
X5859947Y1126220D01*
X5860051Y1126429D01*
Y1126533D01*
X5861196Y1128719D01*
X5862445Y1130697D01*
X5863695Y1132362D01*
X5865048Y1133820D01*
X5866193Y1134965D01*
X5867130Y1135798D01*
X5867755Y1136318D01*
X5867859Y1136526D01*
X5867963D01*
X5869941Y1137880D01*
X5872127Y1139025D01*
X5874209Y1139962D01*
X5876083Y1140690D01*
X5877748Y1141107D01*
X5878477Y1141315D01*
X5879101Y1141523D01*
X5879622Y1141627D01*
X5880038D01*
X5880247Y1141731D01*
X5880351D01*
X5877748Y1142356D01*
X5875458Y1143085D01*
X5873376Y1143813D01*
X5871710Y1144750D01*
X5870253Y1145479D01*
X5869212Y1146103D01*
X5868900Y1146416D01*
X5868587Y1146520D01*
X5868483Y1146728D01*
X5868379D01*
X5866714Y1148186D01*
X5865152Y1149747D01*
X5863903Y1151309D01*
X5862966Y1152766D01*
X5862133Y1154015D01*
X5861613Y1154952D01*
X5861404Y1155368D01*
X5861300Y1155681D01*
X5861196Y1155785D01*
Y1155889D01*
X5860364Y1157867D01*
X5859843Y1159949D01*
X5859427Y1161823D01*
X5859114Y1163592D01*
X5858906Y1165154D01*
X5858802Y1166299D01*
Y1166715D01*
Y1167028D01*
Y1167236D01*
Y1167340D01*
X5859010Y1170879D01*
X5859427Y1174210D01*
X5860051Y1177021D01*
X5860364Y1178374D01*
X5860676Y1179520D01*
X5861092Y1180561D01*
X5861404Y1181602D01*
X5861717Y1182330D01*
X5862029Y1183059D01*
X5862341Y1183580D01*
X5862445Y1183996D01*
X5862654Y1184204D01*
Y1184308D01*
X5864215Y1186807D01*
X5866089Y1189097D01*
X5867963Y1190971D01*
X5869837Y1192532D01*
X5871606Y1193781D01*
X5872335Y1194198D01*
X5872960Y1194614D01*
X5873480Y1194926D01*
X5873896Y1195135D01*
X5874105Y1195343D01*
X5874209D01*
X5877228Y1196696D01*
X5880455Y1197633D01*
X5883682Y1198362D01*
X5886701Y1198778D01*
X5888054Y1198986D01*
X5889303Y1199090D01*
X5890448Y1199195D01*
X5891489D01*
X5892218Y1199299D01*
X5923448D01*
Y1183996D01*
X5894508D01*
X5892739Y1183788D01*
X5891073Y1183580D01*
X5889511Y1183267D01*
X5888158Y1182955D01*
X5886909Y1182539D01*
X5885660Y1182226D01*
X5884619Y1181810D01*
X5883786Y1181393D01*
X5882953Y1180977D01*
X5882329Y1180561D01*
X5881704Y1180248D01*
X5881288Y1179936D01*
X5880975Y1179728D01*
X5880871Y1179624D01*
X5880767Y1179520D01*
X5879830Y1178687D01*
X5878997Y1177750D01*
X5878373Y1176709D01*
X5877748Y1175564D01*
X5876811Y1173378D01*
X5876187Y1171296D01*
X5875874Y1169318D01*
X5875666Y1168485D01*
Y1167756D01*
X5875562Y1167132D01*
Y1166715D01*
Y1166403D01*
Y1166299D01*
Y1164737D01*
X5875770Y1163280D01*
X5876291Y1160782D01*
X5877020Y1158595D01*
X5877852Y1156722D01*
X5878789Y1155368D01*
X5879518Y1154327D01*
X5880038Y1153703D01*
X5880142Y1153599D01*
X5880247Y1153495D01*
X5881184Y1152766D01*
X5882225Y1152037D01*
X5884411Y1150996D01*
X5886701Y1150267D01*
X5888887Y1149747D01*
X5890969Y1149435D01*
X5891802Y1149331D01*
X5892635D01*
X5893259Y1149226D01*
X5923448D01*
Y1183996D01*
X5930215D01*
Y1199299D01*
X5940000D01*
Y1081145D01*
D02*
G37*
G36*
X5832465D02*
X5815809D01*
Y1131113D01*
X5825178D01*
Y1146936D01*
X5815809D01*
Y1131113D01*
X5791171D01*
X5765945Y1081145D01*
X5746270D01*
X5773522Y1132925D01*
X5773961Y1132779D01*
X5775314Y1132466D01*
X5776875Y1132050D01*
X5778437Y1131738D01*
X5781768Y1131321D01*
X5785516Y1131113D01*
X5791171D01*
X5793011Y1134757D01*
X5776459Y1138504D01*
X5773522Y1132925D01*
X5772711Y1133195D01*
X5771566Y1133611D01*
X5770629Y1133924D01*
X5769692Y1134340D01*
X5768964Y1134652D01*
X5768339Y1134861D01*
X5767923Y1135069D01*
X5767715Y1135277D01*
X5767610D01*
X5764800Y1137047D01*
X5762405Y1138921D01*
X5760323Y1140899D01*
X5758658Y1142876D01*
X5757305Y1144542D01*
X5756784Y1145375D01*
X5756368Y1145999D01*
X5755951Y1146520D01*
X5755743Y1146936D01*
X5755535Y1147145D01*
Y1147249D01*
X5754077Y1150267D01*
X5753036Y1153390D01*
X5752204Y1156409D01*
X5751683Y1159220D01*
X5751475Y1160469D01*
X5751371Y1161614D01*
X5751267Y1162655D01*
Y1163592D01*
X5751163Y1164217D01*
Y1164841D01*
Y1165154D01*
Y1165258D01*
X5751371Y1169005D01*
X5751787Y1172337D01*
X5752100Y1173898D01*
X5752516Y1175460D01*
X5752932Y1176813D01*
X5753245Y1178062D01*
X5753661Y1179207D01*
X5754077Y1180144D01*
X5754390Y1181081D01*
X5754806Y1181810D01*
X5755014Y1182434D01*
X5755222Y1182851D01*
X5755431Y1183059D01*
Y1183163D01*
X5757200Y1185974D01*
X5759074Y1188368D01*
X5761156Y1190346D01*
X5763030Y1192116D01*
X5764800Y1193365D01*
X5765528Y1193885D01*
X5766257Y1194406D01*
X5766778Y1194718D01*
X5767194Y1194926D01*
X5767402Y1195135D01*
X5767506D01*
X5770525Y1196592D01*
X5773648Y1197633D01*
X5776667Y1198362D01*
X5779478Y1198882D01*
X5780727Y1199090D01*
X5781872Y1199195D01*
X5782913Y1199299D01*
X5783746D01*
X5784475Y1199403D01*
X5815809D01*
Y1183684D01*
X5784891D01*
X5783121Y1183580D01*
X5781560Y1183371D01*
X5780102Y1182955D01*
X5778853Y1182539D01*
X5777812Y1182122D01*
X5777083Y1181706D01*
X5776667Y1181497D01*
X5776459Y1181393D01*
X5775210Y1180457D01*
X5774065Y1179416D01*
X5773128Y1178270D01*
X5772295Y1177229D01*
X5771670Y1176293D01*
X5771150Y1175564D01*
X5770942Y1175043D01*
X5770837Y1174835D01*
X5770213Y1173274D01*
X5769692Y1171608D01*
X5769380Y1169942D01*
X5769068Y1168485D01*
X5768964Y1167236D01*
X5768860Y1166195D01*
Y1165778D01*
Y1165466D01*
Y1165362D01*
Y1165258D01*
X5768964Y1163280D01*
X5769172Y1161510D01*
X5769484Y1159845D01*
X5769797Y1158387D01*
X5770213Y1157242D01*
X5770525Y1156305D01*
X5770733Y1155785D01*
X5770837Y1155577D01*
X5771670Y1154119D01*
X5772607Y1152766D01*
X5773544Y1151725D01*
X5774481Y1150788D01*
X5775314Y1150059D01*
X5775938Y1149539D01*
X5776355Y1149226D01*
X5776563Y1149122D01*
X5777916Y1148394D01*
X5779374Y1147873D01*
X5780831Y1147457D01*
X5782080Y1147249D01*
X5783225Y1147040D01*
X5784058Y1146936D01*
X5815809D01*
Y1183684D01*
X5825178D01*
Y1199403D01*
X5832465D01*
Y1081145D01*
D02*
G37*
G36*
X5244404Y1081145D02*
X5227748D01*
Y1131113D01*
X5237117D01*
Y1146936D01*
X5227748D01*
Y1131113D01*
X5203110D01*
X5177884Y1081145D01*
X5158209D01*
X5185461Y1132925D01*
X5185900Y1132779D01*
X5187253Y1132466D01*
X5188814Y1132050D01*
X5190376Y1131738D01*
X5193707Y1131321D01*
X5197455Y1131113D01*
X5203110D01*
X5204950Y1134756D01*
X5188398Y1138504D01*
X5185461Y1132925D01*
X5184650Y1133195D01*
X5183505Y1133611D01*
X5182568Y1133924D01*
X5181632Y1134340D01*
X5180903Y1134652D01*
X5180278Y1134861D01*
X5179862Y1135069D01*
X5179654Y1135277D01*
X5179550D01*
X5176739Y1137047D01*
X5174345Y1138920D01*
X5172262Y1140898D01*
X5170597Y1142876D01*
X5169244Y1144542D01*
X5168723Y1145375D01*
X5168307Y1145999D01*
X5167890Y1146520D01*
X5167682Y1146936D01*
X5167474Y1147144D01*
Y1147248D01*
X5166016Y1150267D01*
X5164975Y1153390D01*
X5164143Y1156409D01*
X5163622Y1159220D01*
X5163414Y1160469D01*
X5163310Y1161614D01*
X5163206Y1162655D01*
Y1163592D01*
X5163102Y1164217D01*
Y1164841D01*
Y1165154D01*
Y1165258D01*
X5163310Y1169005D01*
X5163726Y1172337D01*
X5164039Y1173898D01*
X5164455Y1175460D01*
X5164871Y1176813D01*
X5165184Y1178062D01*
X5165600Y1179207D01*
X5166016Y1180144D01*
X5166329Y1181081D01*
X5166745Y1181810D01*
X5166953Y1182434D01*
X5167162Y1182851D01*
X5167370Y1183059D01*
Y1183163D01*
X5169140Y1185974D01*
X5171013Y1188368D01*
X5173095Y1190346D01*
X5174969Y1192116D01*
X5176739Y1193365D01*
X5177467Y1193885D01*
X5178196Y1194406D01*
X5178717Y1194718D01*
X5179133Y1194926D01*
X5179341Y1195134D01*
X5179445D01*
X5182464Y1196592D01*
X5185587Y1197633D01*
X5188606Y1198362D01*
X5191417Y1198882D01*
X5192666Y1199090D01*
X5193811Y1199194D01*
X5194852Y1199299D01*
X5195685D01*
X5196414Y1199403D01*
X5227748D01*
Y1183684D01*
X5196830D01*
X5195060Y1183579D01*
X5193499Y1183371D01*
X5192042Y1182955D01*
X5190792Y1182538D01*
X5189751Y1182122D01*
X5189023Y1181706D01*
X5188606Y1181497D01*
X5188398Y1181393D01*
X5187149Y1180456D01*
X5186004Y1179415D01*
X5185067Y1178270D01*
X5184234Y1177229D01*
X5183609Y1176292D01*
X5183089Y1175564D01*
X5182881Y1175043D01*
X5182777Y1174835D01*
X5182152Y1173274D01*
X5181632Y1171608D01*
X5181319Y1169942D01*
X5181007Y1168485D01*
X5180903Y1167236D01*
X5180799Y1166195D01*
Y1165778D01*
Y1165466D01*
Y1165362D01*
Y1165258D01*
X5180903Y1163280D01*
X5181111Y1161510D01*
X5181423Y1159845D01*
X5181736Y1158387D01*
X5182152Y1157242D01*
X5182464Y1156305D01*
X5182672Y1155785D01*
X5182777Y1155576D01*
X5183609Y1154119D01*
X5184546Y1152766D01*
X5185483Y1151725D01*
X5186420Y1150788D01*
X5187253Y1150059D01*
X5187877Y1149539D01*
X5188294Y1149226D01*
X5188502Y1149122D01*
X5189855Y1148394D01*
X5191313Y1147873D01*
X5192770Y1147457D01*
X5194019Y1147248D01*
X5195164Y1147040D01*
X5195997Y1146936D01*
X5227748D01*
Y1183684D01*
X5237117D01*
Y1199403D01*
X5244404D01*
Y1081145D01*
D02*
G37*
G36*
X5616353D02*
X5599905D01*
Y1168103D01*
X5601883Y1171191D01*
X5599905Y1173274D01*
Y1168103D01*
X5544212Y1081145D01*
X5529013D01*
Y1199299D01*
X5545461D01*
Y1111028D01*
X5601259Y1199299D01*
X5616353D01*
Y1081145D01*
D02*
G37*
G36*
X4879013Y1081145D02*
X4862565D01*
Y1168103D01*
X4864543Y1171191D01*
X4862565Y1173273D01*
Y1168103D01*
X4806872Y1081145D01*
X4791673D01*
Y1199298D01*
X4808121D01*
Y1111028D01*
X4863918Y1199298D01*
X4879013D01*
Y1081145D01*
D02*
G37*
G36*
X5463326Y1200444D02*
X5465512Y1200340D01*
X5467594Y1200027D01*
X5469572Y1199715D01*
X5471446Y1199299D01*
X5473320Y1198778D01*
X5474985Y1198257D01*
X5476443Y1197841D01*
X5477796Y1197321D01*
X5479045Y1196800D01*
X5480086Y1196280D01*
X5481023Y1195863D01*
X5481752Y1195551D01*
X5482272Y1195239D01*
X5482585Y1195134D01*
X5482689Y1195030D01*
X5484354Y1193989D01*
X5485916Y1192844D01*
X5488831Y1190346D01*
X5490080Y1189097D01*
X5491329Y1187743D01*
X5492370Y1186494D01*
X5493307Y1185349D01*
X5494244Y1184100D01*
X5494972Y1183059D01*
X5495597Y1182122D01*
X5496118Y1181289D01*
X5496534Y1180561D01*
X5496846Y1180040D01*
X5496950Y1179728D01*
X5497055Y1179624D01*
X5497991Y1177750D01*
X5498720Y1175772D01*
X5499449Y1173794D01*
X5499969Y1171816D01*
X5500906Y1167860D01*
X5501218Y1165986D01*
X5501531Y1164321D01*
X5501739Y1162655D01*
X5501843Y1161094D01*
X5501947Y1159741D01*
X5502051Y1158595D01*
X5502155Y1157659D01*
Y1157034D01*
Y1156513D01*
Y1156409D01*
Y1123930D01*
X5502051Y1121536D01*
X5501947Y1119141D01*
X5501635Y1116955D01*
X5501323Y1114769D01*
X5501010Y1112687D01*
X5500490Y1110813D01*
X5500073Y1109044D01*
X5499553Y1107378D01*
X5499136Y1105921D01*
X5498616Y1104568D01*
X5498200Y1103422D01*
X5497887Y1102486D01*
X5497471Y1101757D01*
X5497263Y1101132D01*
X5497159Y1100820D01*
X5497055Y1100716D01*
X5496014Y1098946D01*
X5494972Y1097176D01*
X5493827Y1095615D01*
X5492682Y1094053D01*
X5491433Y1092700D01*
X5490288Y1091451D01*
X5489039Y1090306D01*
X5487998Y1089265D01*
X5486853Y1088328D01*
X5485916Y1087599D01*
X5484979Y1086870D01*
X5484250Y1086350D01*
X5483626Y1085830D01*
X5483105Y1085517D01*
X5482793Y1085413D01*
X5482689Y1085309D01*
X5480919Y1084372D01*
X5479045Y1083539D01*
X5477171Y1082811D01*
X5475298Y1082290D01*
X5471758Y1081249D01*
X5469989Y1080937D01*
X5468323Y1080624D01*
X5466865Y1080416D01*
X5465408Y1080312D01*
X5464159Y1080208D01*
X5463118Y1080104D01*
X5462181Y1080000D01*
X5461036D01*
X5457288Y1080208D01*
X5453853Y1080624D01*
X5450730Y1081353D01*
X5449273Y1081770D01*
X5447919Y1082186D01*
X5446670Y1082498D01*
X5445629Y1082915D01*
X5444692Y1083331D01*
X5443859Y1083643D01*
X5443235Y1083852D01*
X5442818Y1084060D01*
X5442506Y1084268D01*
X5442402D01*
X5439383Y1086038D01*
X5436572Y1088016D01*
X5434178Y1089994D01*
X5432096Y1091971D01*
X5431159Y1092908D01*
X5430431Y1093845D01*
X5429702Y1094574D01*
X5429181Y1095198D01*
X5428765Y1095823D01*
X5428349Y1096239D01*
X5428244Y1096448D01*
X5428140Y1096552D01*
X5426162Y1099675D01*
X5424497Y1102798D01*
X5423144Y1105921D01*
X5421998Y1108732D01*
X5421582Y1110085D01*
X5421270Y1111230D01*
X5420957Y1112271D01*
X5420749Y1113208D01*
X5420541Y1113937D01*
X5420437Y1114561D01*
X5420333Y1114873D01*
Y1114977D01*
X5437301D01*
X5437926Y1112791D01*
X5438758Y1110918D01*
X5439591Y1109148D01*
X5440528Y1107586D01*
X5441257Y1106337D01*
X5441882Y1105400D01*
X5442298Y1104880D01*
X5442506Y1104672D01*
X5443859Y1103214D01*
X5445317Y1101861D01*
X5446774Y1100716D01*
X5448023Y1099883D01*
X5449168Y1099154D01*
X5450105Y1098634D01*
X5450730Y1098322D01*
X5450834Y1098217D01*
X5450938D01*
X5452708Y1097489D01*
X5454582Y1096968D01*
X5456247Y1096552D01*
X5457809Y1096344D01*
X5459058Y1096135D01*
X5460099Y1096031D01*
X5461036D01*
X5463638Y1096135D01*
X5466137Y1096552D01*
X5468219Y1097072D01*
X5470093Y1097801D01*
X5471654Y1098426D01*
X5472279Y1098634D01*
X5472799Y1098946D01*
X5473216Y1099154D01*
X5473528Y1099362D01*
X5473632Y1099467D01*
X5473736D01*
X5475610Y1100924D01*
X5477380Y1102486D01*
X5478733Y1104151D01*
X5479982Y1105713D01*
X5480919Y1107170D01*
X5481648Y1108315D01*
X5481856Y1108732D01*
X5482064Y1109044D01*
X5482168Y1109252D01*
Y1109356D01*
X5483209Y1111854D01*
X5483938Y1114353D01*
X5484458Y1116747D01*
X5484771Y1119037D01*
X5484979Y1121015D01*
X5485083Y1121848D01*
X5485187Y1122577D01*
Y1123097D01*
Y1123618D01*
Y1123826D01*
Y1123930D01*
Y1156409D01*
X5485083Y1159428D01*
X5484667Y1162239D01*
X5484250Y1164737D01*
X5483626Y1166923D01*
X5483417Y1167860D01*
X5483105Y1168693D01*
X5482897Y1169318D01*
X5482585Y1169942D01*
X5482480Y1170463D01*
X5482272Y1170775D01*
X5482168Y1170983D01*
Y1171087D01*
X5480919Y1173378D01*
X5479566Y1175251D01*
X5478212Y1177021D01*
X5476859Y1178374D01*
X5475610Y1179415D01*
X5474673Y1180248D01*
X5473944Y1180665D01*
X5473840Y1180873D01*
X5473736D01*
X5471654Y1182018D01*
X5469468Y1182955D01*
X5467386Y1183579D01*
X5465304Y1183996D01*
X5463638Y1184204D01*
X5462910Y1184308D01*
X5462285Y1184412D01*
X5461036D01*
X5459058Y1184308D01*
X5457288Y1183996D01*
X5455519Y1183684D01*
X5454061Y1183267D01*
X5452708Y1182747D01*
X5451771Y1182434D01*
X5451146Y1182122D01*
X5451042Y1182018D01*
X5450938D01*
X5449168Y1181081D01*
X5447503Y1179936D01*
X5446150Y1178791D01*
X5444900Y1177750D01*
X5443859Y1176813D01*
X5443131Y1175980D01*
X5442714Y1175460D01*
X5442506Y1175251D01*
X5441257Y1173586D01*
X5440112Y1171920D01*
X5439279Y1170255D01*
X5438550Y1168797D01*
X5438030Y1167444D01*
X5437613Y1166403D01*
X5437509Y1165986D01*
X5437405Y1165674D01*
X5437301Y1165570D01*
Y1165466D01*
X5420333D01*
X5421270Y1169214D01*
X5422415Y1172753D01*
X5423039Y1174314D01*
X5423664Y1175876D01*
X5424289Y1177333D01*
X5424913Y1178583D01*
X5425538Y1179728D01*
X5426162Y1180769D01*
X5426683Y1181706D01*
X5427099Y1182434D01*
X5427516Y1183059D01*
X5427828Y1183579D01*
X5427932Y1183788D01*
X5428036Y1183892D01*
X5430326Y1186702D01*
X5432721Y1189201D01*
X5435011Y1191283D01*
X5437301Y1193053D01*
X5439279Y1194406D01*
X5440112Y1194926D01*
X5440841Y1195343D01*
X5441465Y1195759D01*
X5441882Y1195967D01*
X5442194Y1196176D01*
X5442298D01*
X5445525Y1197633D01*
X5448856Y1198674D01*
X5451979Y1199507D01*
X5454894Y1200027D01*
X5456143Y1200235D01*
X5457392Y1200340D01*
X5458433Y1200444D01*
X5459266D01*
X5459995Y1200548D01*
X5461036D01*
X5463326Y1200444D01*
D02*
G37*
G36*
X4991545Y1200444D02*
X4993731Y1200339D01*
X4995813Y1200027D01*
X4997791Y1199715D01*
X4999665Y1199298D01*
X5001538Y1198778D01*
X5003204Y1198257D01*
X5004662Y1197841D01*
X5006015Y1197321D01*
X5007264Y1196800D01*
X5008305Y1196280D01*
X5009242Y1195863D01*
X5009971Y1195551D01*
X5010491Y1195238D01*
X5010803Y1195134D01*
X5010908Y1195030D01*
X5012573Y1193989D01*
X5014135Y1192844D01*
X5017049Y1190346D01*
X5018299Y1189097D01*
X5019548Y1187743D01*
X5020589Y1186494D01*
X5021526Y1185349D01*
X5022463Y1184100D01*
X5023191Y1183059D01*
X5023816Y1182122D01*
X5024336Y1181289D01*
X5024753Y1180560D01*
X5025065Y1180040D01*
X5025169Y1179728D01*
X5025273Y1179623D01*
X5026210Y1177750D01*
X5026939Y1175772D01*
X5027668Y1173794D01*
X5028188Y1171816D01*
X5029125Y1167860D01*
X5029437Y1165986D01*
X5029750Y1164321D01*
X5029958Y1162655D01*
X5030062Y1161094D01*
X5030166Y1159740D01*
X5030270Y1158595D01*
X5030374Y1157658D01*
Y1157034D01*
Y1156513D01*
Y1156409D01*
Y1123930D01*
X5030270Y1121536D01*
X5030166Y1119141D01*
X5029854Y1116955D01*
X5029541Y1114769D01*
X5029229Y1112687D01*
X5028709Y1110813D01*
X5028292Y1109044D01*
X5027772Y1107378D01*
X5027355Y1105921D01*
X5026835Y1104567D01*
X5026418Y1103422D01*
X5026106Y1102485D01*
X5025690Y1101757D01*
X5025481Y1101132D01*
X5025377Y1100820D01*
X5025273Y1100716D01*
X5024232Y1098946D01*
X5023191Y1097176D01*
X5022046Y1095615D01*
X5020901Y1094053D01*
X5019652Y1092700D01*
X5018507Y1091451D01*
X5017258Y1090306D01*
X5016217Y1089265D01*
X5015072Y1088328D01*
X5014135Y1087599D01*
X5013198Y1086870D01*
X5012469Y1086350D01*
X5011844Y1085829D01*
X5011324Y1085517D01*
X5011012Y1085413D01*
X5010908Y1085309D01*
X5009138Y1084372D01*
X5007264Y1083539D01*
X5005390Y1082811D01*
X5003516Y1082290D01*
X4999977Y1081249D01*
X4998207Y1080937D01*
X4996542Y1080624D01*
X4995084Y1080416D01*
X4993627Y1080312D01*
X4992378Y1080208D01*
X4991337Y1080104D01*
X4990400Y1080000D01*
X4989255D01*
X4985507Y1080208D01*
X4982072Y1080624D01*
X4978949Y1081353D01*
X4977491Y1081770D01*
X4976138Y1082186D01*
X4974889Y1082498D01*
X4973848Y1082915D01*
X4972911Y1083331D01*
X4972078Y1083643D01*
X4971454Y1083851D01*
X4971037Y1084060D01*
X4970725Y1084268D01*
X4970621D01*
X4967602Y1086038D01*
X4964791Y1088015D01*
X4962397Y1089993D01*
X4960315Y1091971D01*
X4959378Y1092908D01*
X4958649Y1093845D01*
X4957921Y1094574D01*
X4957400Y1095198D01*
X4956984Y1095823D01*
X4956567Y1096239D01*
X4956463Y1096448D01*
X4956359Y1096552D01*
X4954381Y1099675D01*
X4952716Y1102798D01*
X4951362Y1105921D01*
X4950217Y1108731D01*
X4949801Y1110085D01*
X4949489Y1111230D01*
X4949176Y1112271D01*
X4948968Y1113208D01*
X4948760Y1113936D01*
X4948656Y1114561D01*
X4948552Y1114873D01*
Y1114977D01*
X4965520D01*
X4966145Y1112791D01*
X4966977Y1110918D01*
X4967810Y1109148D01*
X4968747Y1107586D01*
X4969476Y1106337D01*
X4970100Y1105400D01*
X4970517Y1104880D01*
X4970725Y1104671D01*
X4972078Y1103214D01*
X4973536Y1101861D01*
X4974993Y1100716D01*
X4976242Y1099883D01*
X4977387Y1099154D01*
X4978324Y1098634D01*
X4978949Y1098321D01*
X4979053Y1098217D01*
X4979157D01*
X4980927Y1097489D01*
X4982801Y1096968D01*
X4984466Y1096552D01*
X4986028Y1096343D01*
X4987277Y1096135D01*
X4988318Y1096031D01*
X4989255D01*
X4991857Y1096135D01*
X4994356Y1096552D01*
X4996438Y1097072D01*
X4998311Y1097801D01*
X4999873Y1098426D01*
X5000498Y1098634D01*
X5001018Y1098946D01*
X5001434Y1099154D01*
X5001747Y1099362D01*
X5001851Y1099466D01*
X5001955D01*
X5003829Y1100924D01*
X5005598Y1102485D01*
X5006952Y1104151D01*
X5008201Y1105713D01*
X5009138Y1107170D01*
X5009867Y1108315D01*
X5010075Y1108731D01*
X5010283Y1109044D01*
X5010387Y1109252D01*
Y1109356D01*
X5011428Y1111854D01*
X5012157Y1114353D01*
X5012677Y1116747D01*
X5012989Y1119037D01*
X5013198Y1121015D01*
X5013302Y1121848D01*
X5013406Y1122577D01*
Y1123097D01*
Y1123618D01*
Y1123826D01*
Y1123930D01*
Y1156409D01*
X5013302Y1159428D01*
X5012885Y1162239D01*
X5012469Y1164737D01*
X5011844Y1166923D01*
X5011636Y1167860D01*
X5011324Y1168693D01*
X5011116Y1169318D01*
X5010803Y1169942D01*
X5010699Y1170463D01*
X5010491Y1170775D01*
X5010387Y1170983D01*
Y1171087D01*
X5009138Y1173378D01*
X5007784Y1175251D01*
X5006431Y1177021D01*
X5005078Y1178374D01*
X5003829Y1179415D01*
X5002892Y1180248D01*
X5002163Y1180665D01*
X5002059Y1180873D01*
X5001955D01*
X4999873Y1182018D01*
X4997687Y1182955D01*
X4995605Y1183579D01*
X4993523Y1183996D01*
X4991857Y1184204D01*
X4991128Y1184308D01*
X4990504Y1184412D01*
X4989255D01*
X4987277Y1184308D01*
X4985507Y1183996D01*
X4983737Y1183683D01*
X4982280Y1183267D01*
X4980927Y1182746D01*
X4979990Y1182434D01*
X4979365Y1182122D01*
X4979261Y1182018D01*
X4979157D01*
X4977387Y1181081D01*
X4975722Y1179936D01*
X4974368Y1178791D01*
X4973119Y1177750D01*
X4972078Y1176813D01*
X4971350Y1175980D01*
X4970933Y1175459D01*
X4970725Y1175251D01*
X4969476Y1173586D01*
X4968331Y1171920D01*
X4967498Y1170255D01*
X4966769Y1168797D01*
X4966249Y1167444D01*
X4965832Y1166403D01*
X4965728Y1165986D01*
X4965624Y1165674D01*
X4965520Y1165570D01*
Y1165466D01*
X4948552D01*
X4949489Y1169214D01*
X4950634Y1172753D01*
X4951258Y1174314D01*
X4951883Y1175876D01*
X4952507Y1177333D01*
X4953132Y1178582D01*
X4953757Y1179728D01*
X4954381Y1180769D01*
X4954902Y1181706D01*
X4955318Y1182434D01*
X4955734Y1183059D01*
X4956047Y1183579D01*
X4956151Y1183787D01*
X4956255Y1183892D01*
X4958545Y1186702D01*
X4960940Y1189201D01*
X4963230Y1191283D01*
X4965520Y1193052D01*
X4967498Y1194406D01*
X4968331Y1194926D01*
X4969059Y1195343D01*
X4969684Y1195759D01*
X4970100Y1195967D01*
X4970413Y1196175D01*
X4970517D01*
X4973744Y1197633D01*
X4977075Y1198674D01*
X4980198Y1199507D01*
X4983113Y1200027D01*
X4984362Y1200235D01*
X4985611Y1200339D01*
X4986652Y1200444D01*
X4987485D01*
X4988214Y1200548D01*
X4989255D01*
X4991545Y1200444D01*
D02*
G37*
G36*
X4725778D02*
X4727964Y1200339D01*
X4730046Y1200027D01*
X4732024Y1199715D01*
X4734002Y1199298D01*
X4735771Y1198778D01*
X4737437Y1198257D01*
X4738998Y1197841D01*
X4740352Y1197321D01*
X4741601Y1196800D01*
X4742642Y1196280D01*
X4743579Y1195863D01*
X4744307Y1195551D01*
X4744828Y1195238D01*
X4745140Y1195134D01*
X4745244Y1195030D01*
X4746910Y1193989D01*
X4748575Y1192844D01*
X4750033Y1191595D01*
X4751490Y1190346D01*
X4752739Y1189097D01*
X4753885Y1187743D01*
X4755030Y1186494D01*
X4755967Y1185349D01*
X4756904Y1184100D01*
X4757632Y1183059D01*
X4758257Y1182122D01*
X4758777Y1181289D01*
X4759194Y1180560D01*
X4759506Y1180040D01*
X4759610Y1179728D01*
X4759714Y1179623D01*
X4760651Y1177750D01*
X4761380Y1175772D01*
X4762109Y1173794D01*
X4762629Y1171816D01*
X4763566Y1167860D01*
X4763878Y1165986D01*
X4764190Y1164321D01*
X4764399Y1162655D01*
X4764503Y1161094D01*
X4764607Y1159740D01*
X4764711Y1158595D01*
X4764815Y1157658D01*
Y1157034D01*
Y1156513D01*
Y1156409D01*
Y1121536D01*
X4764711Y1119245D01*
X4764607Y1117059D01*
X4764295Y1114873D01*
X4763982Y1112791D01*
X4763566Y1110918D01*
X4763150Y1109148D01*
X4762733Y1107378D01*
X4762213Y1105921D01*
X4761692Y1104463D01*
X4761276Y1103214D01*
X4760859Y1102173D01*
X4760443Y1101236D01*
X4760131Y1100507D01*
X4759818Y1099987D01*
X4759714Y1099675D01*
X4759610Y1099571D01*
X4757528Y1096239D01*
X4756279Y1094782D01*
X4755134Y1093325D01*
X4753885Y1092075D01*
X4752635Y1090930D01*
X4751490Y1089785D01*
X4750345Y1088848D01*
X4749200Y1087911D01*
X4748159Y1087183D01*
X4747326Y1086558D01*
X4746493Y1086038D01*
X4745869Y1085621D01*
X4745348Y1085309D01*
X4745036Y1085205D01*
X4744932Y1085101D01*
X4743162Y1084164D01*
X4741288Y1083435D01*
X4739415Y1082706D01*
X4737541Y1082186D01*
X4733793Y1081249D01*
X4732024Y1080937D01*
X4730358Y1080624D01*
X4728797Y1080416D01*
X4727443Y1080312D01*
X4726194Y1080208D01*
X4725049Y1080104D01*
X4724216Y1080000D01*
X4722967D01*
X4720677Y1080104D01*
X4718491Y1080208D01*
X4716305Y1080520D01*
X4714327Y1080833D01*
X4712453Y1081249D01*
X4710683Y1081665D01*
X4709017Y1082186D01*
X4707456Y1082706D01*
X4706103Y1083227D01*
X4704854Y1083747D01*
X4703708Y1084164D01*
X4702876Y1084580D01*
X4702147Y1084892D01*
X4701626Y1085205D01*
X4701314Y1085309D01*
X4701210Y1085413D01*
X4699544Y1086454D01*
X4697879Y1087599D01*
X4696421Y1088848D01*
X4694964Y1090098D01*
X4693715Y1091347D01*
X4692466Y1092700D01*
X4691425Y1093949D01*
X4690488Y1095198D01*
X4689551Y1096343D01*
X4688822Y1097384D01*
X4688198Y1098321D01*
X4687677Y1099154D01*
X4687261Y1099883D01*
X4686948Y1100403D01*
X4686844Y1100716D01*
X4686740Y1100820D01*
X4685803Y1102798D01*
X4684970Y1104776D01*
X4684346Y1106754D01*
X4683721Y1108731D01*
X4682784Y1112687D01*
X4682472Y1114457D01*
X4682160Y1116227D01*
X4681952Y1117892D01*
X4681847Y1119454D01*
X4681639Y1120807D01*
Y1121952D01*
X4681535Y1122889D01*
Y1123514D01*
Y1124034D01*
Y1124138D01*
Y1144750D01*
X4722551D01*
Y1128927D01*
X4698608D01*
Y1123826D01*
X4698712Y1120703D01*
X4699024Y1117892D01*
X4699544Y1115290D01*
X4700065Y1113104D01*
X4700377Y1112167D01*
X4700690Y1111334D01*
X4700898Y1110605D01*
X4701106Y1110085D01*
X4701314Y1109564D01*
X4701522Y1109252D01*
X4701626Y1109044D01*
Y1108940D01*
X4702876Y1106754D01*
X4704229Y1104776D01*
X4705582Y1103214D01*
X4706935Y1101861D01*
X4708185Y1100716D01*
X4709226Y1099987D01*
X4709642Y1099675D01*
X4709954Y1099571D01*
X4710059Y1099362D01*
X4710163D01*
X4712245Y1098217D01*
X4714535Y1097489D01*
X4716617Y1096864D01*
X4718595Y1096448D01*
X4720364Y1096239D01*
X4721093Y1096135D01*
X4721718D01*
X4722238Y1096031D01*
X4722967D01*
X4725673Y1096135D01*
X4728172Y1096552D01*
X4730358Y1097072D01*
X4732336Y1097593D01*
X4733897Y1098217D01*
X4734522Y1098426D01*
X4735042Y1098634D01*
X4735459Y1098842D01*
X4735771Y1099050D01*
X4735979Y1099154D01*
X4736083D01*
X4738061Y1100507D01*
X4739831Y1101965D01*
X4741288Y1103422D01*
X4742538Y1104880D01*
X4743579Y1106129D01*
X4744203Y1107170D01*
X4744516Y1107586D01*
X4744724Y1107899D01*
X4744828Y1108003D01*
Y1108107D01*
X4745869Y1110293D01*
X4746598Y1112583D01*
X4747118Y1114873D01*
X4747430Y1116955D01*
X4747639Y1118829D01*
X4747743Y1119558D01*
X4747847Y1120286D01*
Y1120807D01*
Y1121223D01*
Y1121432D01*
Y1121536D01*
Y1156409D01*
X4747743Y1159428D01*
X4747326Y1162239D01*
X4746910Y1164737D01*
X4746285Y1166923D01*
X4746077Y1167860D01*
X4745765Y1168693D01*
X4745557Y1169318D01*
X4745244Y1169942D01*
X4745140Y1170463D01*
X4744932Y1170775D01*
X4744828Y1170983D01*
Y1171087D01*
X4743579Y1173378D01*
X4742225Y1175251D01*
X4740768Y1177021D01*
X4739415Y1178374D01*
X4738166Y1179415D01*
X4737229Y1180248D01*
X4736812Y1180560D01*
X4736500Y1180665D01*
X4736396Y1180873D01*
X4736292D01*
X4734106Y1182018D01*
X4731919Y1182955D01*
X4729837Y1183579D01*
X4727860Y1183996D01*
X4726090Y1184204D01*
X4725361Y1184308D01*
X4724737Y1184412D01*
X4723487D01*
X4721614Y1184308D01*
X4719844Y1184100D01*
X4718178Y1183683D01*
X4716721Y1183267D01*
X4715472Y1182851D01*
X4714535Y1182434D01*
X4713910Y1182226D01*
X4713702Y1182122D01*
X4712036Y1181185D01*
X4710475Y1180144D01*
X4709017Y1179103D01*
X4707872Y1178062D01*
X4706831Y1177125D01*
X4706103Y1176396D01*
X4705686Y1175876D01*
X4705478Y1175668D01*
X4704229Y1174002D01*
X4703188Y1172232D01*
X4702355Y1170567D01*
X4701626Y1169005D01*
X4701106Y1167548D01*
X4700794Y1166507D01*
X4700585Y1166091D01*
Y1165778D01*
X4700481Y1165570D01*
Y1165466D01*
X4682576D01*
X4683513Y1169214D01*
X4684658Y1172753D01*
X4685283Y1174314D01*
X4685907Y1175876D01*
X4686532Y1177333D01*
X4687261Y1178582D01*
X4687885Y1179728D01*
X4688406Y1180769D01*
X4688926Y1181706D01*
X4689447Y1182434D01*
X4689863Y1183059D01*
X4690175Y1183579D01*
X4690279Y1183787D01*
X4690384Y1183892D01*
X4692674Y1186702D01*
X4695068Y1189201D01*
X4697462Y1191283D01*
X4699753Y1193052D01*
X4701730Y1194406D01*
X4702563Y1194926D01*
X4703292Y1195343D01*
X4703917Y1195759D01*
X4704333Y1195967D01*
X4704645Y1196175D01*
X4704749D01*
X4707976Y1197633D01*
X4711308Y1198674D01*
X4714431Y1199507D01*
X4717346Y1200027D01*
X4718595Y1200235D01*
X4719844Y1200339D01*
X4720885Y1200444D01*
X4721718D01*
X4722446Y1200548D01*
X4723487D01*
X4725778Y1200444D01*
D02*
G37*
G36*
X5147174Y1081145D02*
X5129269D01*
X5120384Y1107066D01*
X5127083D01*
Y1122785D01*
X5114995D01*
X5120384Y1107066D01*
X5072704Y1107066D01*
X5063790Y1081145D01*
X5045885D01*
X5089503Y1199299D01*
X5103556D01*
X5147174Y1081145D01*
D02*
G37*
G36*
X4924921Y1081145D02*
X4908265D01*
Y1199298D01*
X4924921D01*
Y1081145D01*
D02*
G37*
G36*
X5687037Y1200444D02*
X5689223Y1200340D01*
X5691409Y1200027D01*
X5693387Y1199715D01*
X5695261Y1199299D01*
X5697135Y1198882D01*
X5698800Y1198362D01*
X5700362Y1197841D01*
X5701715Y1197321D01*
X5702964Y1196800D01*
X5704005Y1196384D01*
X5704942Y1195967D01*
X5705671Y1195655D01*
X5706191Y1195343D01*
X5706504Y1195239D01*
X5706608Y1195135D01*
X5708273Y1194094D01*
X5709939Y1192948D01*
X5712854Y1190450D01*
X5714103Y1189201D01*
X5715352Y1187952D01*
X5716393Y1186703D01*
X5717434Y1185453D01*
X5718267Y1184308D01*
X5718996Y1183267D01*
X5719724Y1182330D01*
X5720245Y1181497D01*
X5720661Y1180769D01*
X5720974Y1180248D01*
X5721078Y1179936D01*
X5721182Y1179832D01*
X5722119Y1177958D01*
X5722847Y1175980D01*
X5723576Y1174002D01*
X5724097Y1172129D01*
X5725033Y1168277D01*
X5725346Y1166403D01*
X5725658Y1164633D01*
X5725866Y1163072D01*
X5725970Y1161614D01*
X5726074Y1160261D01*
X5726179Y1159116D01*
X5726283Y1158179D01*
Y1157554D01*
Y1157034D01*
Y1156930D01*
Y1123514D01*
X5726179Y1121120D01*
X5726074Y1118829D01*
X5725762Y1116539D01*
X5725450Y1114457D01*
X5725138Y1112479D01*
X5724617Y1110501D01*
X5724201Y1108836D01*
X5723680Y1107170D01*
X5723264Y1105713D01*
X5722743Y1104464D01*
X5722327Y1103318D01*
X5722015Y1102381D01*
X5721598Y1101653D01*
X5721390Y1101028D01*
X5721286Y1100716D01*
X5721182Y1100612D01*
X5720141Y1098842D01*
X5719100Y1097072D01*
X5717851Y1095511D01*
X5716706Y1094053D01*
X5715456Y1092700D01*
X5714311Y1091451D01*
X5713062Y1090306D01*
X5711917Y1089265D01*
X5710876Y1088328D01*
X5709835Y1087495D01*
X5708898Y1086871D01*
X5708169Y1086350D01*
X5707545Y1085830D01*
X5707024Y1085517D01*
X5706712Y1085413D01*
X5706608Y1085309D01*
X5704838Y1084372D01*
X5702964Y1083539D01*
X5701091Y1082811D01*
X5699217Y1082290D01*
X5695573Y1081249D01*
X5693803Y1080937D01*
X5692138Y1080625D01*
X5690576Y1080416D01*
X5689119Y1080312D01*
X5687870Y1080208D01*
X5686829Y1080104D01*
X5685996Y1080000D01*
X5684747D01*
X5682457Y1080104D01*
X5680270Y1080208D01*
X5678084Y1080521D01*
X5676106Y1080833D01*
X5674233Y1081249D01*
X5672463Y1081666D01*
X5670797Y1082186D01*
X5669236Y1082707D01*
X5667883Y1083123D01*
X5666633Y1083643D01*
X5665488Y1084060D01*
X5664655Y1084476D01*
X5663927Y1084789D01*
X5663406Y1085101D01*
X5663094Y1085205D01*
X5662990Y1085309D01*
X5661220Y1086350D01*
X5659659Y1087495D01*
X5658097Y1088744D01*
X5656744Y1089994D01*
X5655391Y1091243D01*
X5654245Y1092492D01*
X5653100Y1093741D01*
X5652163Y1094990D01*
X5651331Y1096135D01*
X5650498Y1097176D01*
X5649873Y1098113D01*
X5649353Y1098946D01*
X5648936Y1099675D01*
X5648624Y1100195D01*
X5648520Y1100508D01*
X5648416Y1100612D01*
X5647479Y1102486D01*
X5646646Y1104463D01*
X5646022Y1106441D01*
X5645397Y1108315D01*
X5644460Y1112167D01*
X5644148Y1114041D01*
X5643836Y1115810D01*
X5643627Y1117372D01*
X5643523Y1118829D01*
X5643315Y1120182D01*
Y1121328D01*
X5643211Y1122264D01*
Y1122889D01*
Y1123410D01*
Y1123514D01*
Y1156930D01*
X5643315Y1159324D01*
X5643419Y1161614D01*
X5643731Y1163905D01*
X5644044Y1165986D01*
X5644460Y1167964D01*
X5644877Y1169942D01*
X5645293Y1171608D01*
X5645813Y1173274D01*
X5646334Y1174731D01*
X5646750Y1175980D01*
X5647167Y1177125D01*
X5647583Y1178062D01*
X5647895Y1178791D01*
X5648208Y1179415D01*
X5648312Y1179728D01*
X5648416Y1179832D01*
X5649457Y1181601D01*
X5650498Y1183371D01*
X5651643Y1184933D01*
X5652892Y1186390D01*
X5654037Y1187744D01*
X5655287Y1188993D01*
X5656432Y1190138D01*
X5657577Y1191179D01*
X5658722Y1192116D01*
X5659763Y1192948D01*
X5660596Y1193573D01*
X5661428Y1194094D01*
X5662053Y1194614D01*
X5662574Y1194926D01*
X5662886Y1195031D01*
X5662990Y1195135D01*
X5664760Y1196072D01*
X5666633Y1196904D01*
X5668507Y1197633D01*
X5670381Y1198258D01*
X5674025Y1199195D01*
X5675690Y1199611D01*
X5677356Y1199923D01*
X5678917Y1200131D01*
X5680375Y1200236D01*
X5681624Y1200340D01*
X5682665Y1200444D01*
X5683498Y1200548D01*
X5684747D01*
X5687037Y1200444D01*
D02*
G37*
G36*
X5359851Y1200444D02*
X5362037Y1200340D01*
X5364223Y1200027D01*
X5366201Y1199715D01*
X5368075Y1199299D01*
X5369948Y1198882D01*
X5371614Y1198362D01*
X5373176Y1197841D01*
X5374529Y1197321D01*
X5375778Y1196800D01*
X5376819Y1196384D01*
X5377756Y1195967D01*
X5378485Y1195655D01*
X5379005Y1195343D01*
X5379317Y1195239D01*
X5379422Y1195134D01*
X5381087Y1194093D01*
X5382753Y1192948D01*
X5385667Y1190450D01*
X5386917Y1189201D01*
X5388166Y1187952D01*
X5389207Y1186702D01*
X5390248Y1185453D01*
X5391081Y1184308D01*
X5391809Y1183267D01*
X5392538Y1182330D01*
X5393059Y1181497D01*
X5393475Y1180769D01*
X5393787Y1180248D01*
X5393891Y1179936D01*
X5393995Y1179832D01*
X5394932Y1177958D01*
X5395661Y1175980D01*
X5396390Y1174002D01*
X5396910Y1172128D01*
X5397847Y1168277D01*
X5398159Y1166403D01*
X5398472Y1164633D01*
X5398680Y1163072D01*
X5398784Y1161614D01*
X5398888Y1160261D01*
X5398992Y1159116D01*
X5399096Y1158179D01*
Y1157554D01*
Y1157034D01*
Y1156930D01*
Y1123514D01*
X5398992Y1121119D01*
X5398888Y1118829D01*
X5398576Y1116539D01*
X5398264Y1114457D01*
X5397951Y1112479D01*
X5397431Y1110501D01*
X5397014Y1108836D01*
X5396494Y1107170D01*
X5396078Y1105713D01*
X5395557Y1104463D01*
X5395141Y1103318D01*
X5394828Y1102381D01*
X5394412Y1101653D01*
X5394204Y1101028D01*
X5394100Y1100716D01*
X5393995Y1100612D01*
X5392954Y1098842D01*
X5391913Y1097072D01*
X5390664Y1095511D01*
X5389519Y1094053D01*
X5388270Y1092700D01*
X5387125Y1091451D01*
X5385876Y1090306D01*
X5384731Y1089265D01*
X5383690Y1088328D01*
X5382649Y1087495D01*
X5381712Y1086870D01*
X5380983Y1086350D01*
X5380358Y1085830D01*
X5379838Y1085517D01*
X5379526Y1085413D01*
X5379422Y1085309D01*
X5377652Y1084372D01*
X5375778Y1083539D01*
X5373904Y1082811D01*
X5372030Y1082290D01*
X5368387Y1081249D01*
X5366617Y1080937D01*
X5364952Y1080624D01*
X5363390Y1080416D01*
X5361933Y1080312D01*
X5360684Y1080208D01*
X5359642Y1080104D01*
X5358810Y1080000D01*
X5357560D01*
X5355270Y1080104D01*
X5353084Y1080208D01*
X5350898Y1080520D01*
X5348920Y1080833D01*
X5347046Y1081249D01*
X5345277Y1081666D01*
X5343611Y1082186D01*
X5342050Y1082707D01*
X5340696Y1083123D01*
X5339447Y1083643D01*
X5338302Y1084060D01*
X5337469Y1084476D01*
X5336740Y1084789D01*
X5336220Y1085101D01*
X5335908Y1085205D01*
X5335804Y1085309D01*
X5334034Y1086350D01*
X5332472Y1087495D01*
X5330911Y1088744D01*
X5329558Y1089994D01*
X5328204Y1091243D01*
X5327059Y1092492D01*
X5325914Y1093741D01*
X5324977Y1094990D01*
X5324144Y1096135D01*
X5323312Y1097176D01*
X5322687Y1098113D01*
X5322167Y1098946D01*
X5321750Y1099675D01*
X5321438Y1100195D01*
X5321334Y1100508D01*
X5321230Y1100612D01*
X5320293Y1102486D01*
X5319460Y1104463D01*
X5318835Y1106441D01*
X5318211Y1108315D01*
X5317274Y1112167D01*
X5316962Y1114041D01*
X5316649Y1115810D01*
X5316441Y1117372D01*
X5316337Y1118829D01*
X5316129Y1120182D01*
Y1121328D01*
X5316025Y1122264D01*
Y1122889D01*
Y1123410D01*
Y1123514D01*
Y1156930D01*
X5316129Y1159324D01*
X5316233Y1161614D01*
X5316545Y1163905D01*
X5316857Y1165986D01*
X5317274Y1167964D01*
X5317690Y1169942D01*
X5318107Y1171608D01*
X5318627Y1173274D01*
X5319148Y1174731D01*
X5319564Y1175980D01*
X5319980Y1177125D01*
X5320397Y1178062D01*
X5320709Y1178791D01*
X5321021Y1179415D01*
X5321126Y1179728D01*
X5321230Y1179832D01*
X5322271Y1181601D01*
X5323312Y1183371D01*
X5324457Y1184933D01*
X5325706Y1186390D01*
X5326851Y1187743D01*
X5328100Y1188993D01*
X5329245Y1190138D01*
X5330390Y1191179D01*
X5331535Y1192116D01*
X5332577Y1192948D01*
X5333409Y1193573D01*
X5334242Y1194093D01*
X5334867Y1194614D01*
X5335387Y1194926D01*
X5335699Y1195030D01*
X5335804Y1195134D01*
X5337573Y1196071D01*
X5339447Y1196904D01*
X5341321Y1197633D01*
X5343195Y1198257D01*
X5346838Y1199194D01*
X5348504Y1199611D01*
X5350169Y1199923D01*
X5351731Y1200131D01*
X5353188Y1200235D01*
X5354438Y1200340D01*
X5355479Y1200444D01*
X5356311Y1200548D01*
X5357560D01*
X5359851Y1200444D01*
D02*
G37*
%LPC*%
G36*
X7740106Y1308797D02*
X7739872Y1308056D01*
X7739638Y1307237D01*
X7739092Y1305560D01*
X7738507Y1303922D01*
X7738234Y1303103D01*
X7737961Y1302323D01*
X7737688Y1301621D01*
X7737454Y1300919D01*
X7737259Y1300334D01*
X7737064Y1299827D01*
X7736908Y1299398D01*
X7736791Y1299086D01*
X7736713Y1298891D01*
X7736674Y1298813D01*
X7731682Y1285553D01*
X7747984D01*
X7742680Y1299593D01*
X7742095Y1301309D01*
X7741588Y1302947D01*
X7741354Y1303766D01*
X7741159Y1304507D01*
X7740964Y1305248D01*
X7740769Y1305911D01*
X7740613Y1306535D01*
X7740496Y1307081D01*
X7740379Y1307588D01*
X7740262Y1308017D01*
X7740184Y1308329D01*
X7740145Y1308602D01*
X7740106Y1308758D01*
Y1308797D01*
D02*
G37*
G36*
X7705318Y1308524D02*
X7690147D01*
X7689172Y1308485D01*
X7688275Y1308446D01*
X7687456Y1308329D01*
X7686676Y1308173D01*
X7686013Y1308017D01*
X7685350Y1307822D01*
X7684804Y1307627D01*
X7684258Y1307432D01*
X7683829Y1307198D01*
X7683439Y1307003D01*
X7683127Y1306808D01*
X7682854Y1306652D01*
X7682659Y1306496D01*
X7682503Y1306379D01*
X7682425Y1306340D01*
X7682386Y1306301D01*
X7681957Y1305872D01*
X7681567Y1305443D01*
X7681216Y1304975D01*
X7680943Y1304507D01*
X7680709Y1304039D01*
X7680514Y1303571D01*
X7680202Y1302713D01*
X7680085Y1302284D01*
X7680007Y1301933D01*
X7679968Y1301582D01*
X7679929Y1301309D01*
X7679890Y1301036D01*
Y1300880D01*
Y1300763D01*
Y1300724D01*
X7679929Y1299866D01*
X7680085Y1299047D01*
X7680280Y1298345D01*
X7680514Y1297682D01*
X7680787Y1297136D01*
X7680982Y1296746D01*
X7681060Y1296590D01*
X7681138Y1296473D01*
X7681177Y1296434D01*
Y1296395D01*
X7681723Y1295732D01*
X7682308Y1295147D01*
X7682932Y1294640D01*
X7683517Y1294250D01*
X7684063Y1293938D01*
X7684531Y1293704D01*
X7684687Y1293626D01*
X7684804Y1293587D01*
X7684882Y1293548D01*
X7684921D01*
X7685389Y1293392D01*
X7685896Y1293236D01*
X7686988Y1293041D01*
X7688119Y1292885D01*
X7689211Y1292768D01*
X7689718Y1292729D01*
X7690186Y1292690D01*
X7690615D01*
X7690966Y1292651D01*
X7705318D01*
Y1308524D01*
D02*
G37*
G36*
X6228643Y1308173D02*
X6214915D01*
X6214252Y1308134D01*
X6213628Y1308095D01*
X6213121Y1308056D01*
X6212614D01*
X6212185Y1308017D01*
X6211795Y1307978D01*
X6211483Y1307939D01*
X6211210Y1307900D01*
X6210976Y1307861D01*
X6210781Y1307822D01*
X6210625Y1307783D01*
X6210547D01*
X6210469Y1307744D01*
X6209572Y1307432D01*
X6208792Y1307003D01*
X6208090Y1306535D01*
X6207505Y1306067D01*
X6207076Y1305599D01*
X6206725Y1305248D01*
X6206608Y1305092D01*
X6206530Y1304975D01*
X6206452Y1304936D01*
Y1304897D01*
X6205945Y1304078D01*
X6205555Y1303181D01*
X6205282Y1302323D01*
X6205126Y1301504D01*
X6205009Y1300802D01*
X6204970Y1300529D01*
Y1300256D01*
X6204931Y1300022D01*
Y1299866D01*
Y1299788D01*
Y1299749D01*
X6204970Y1299008D01*
X6205048Y1298267D01*
X6205165Y1297604D01*
X6205321Y1296980D01*
X6205555Y1296395D01*
X6205750Y1295849D01*
X6205984Y1295381D01*
X6206218Y1294952D01*
X6206491Y1294562D01*
X6206725Y1294211D01*
X6206920Y1293938D01*
X6207115Y1293704D01*
X6207310Y1293509D01*
X6207427Y1293392D01*
X6207505Y1293314D01*
X6207544Y1293275D01*
X6208051Y1292885D01*
X6208675Y1292534D01*
X6209299Y1292222D01*
X6210001Y1291988D01*
X6210703Y1291754D01*
X6211444Y1291559D01*
X6212887Y1291286D01*
X6213550Y1291208D01*
X6214174Y1291130D01*
X6214759Y1291091D01*
X6215266Y1291052D01*
X6215695Y1291013D01*
X6228643D01*
Y1308173D01*
D02*
G37*
G36*
X6079663D02*
X6065935D01*
X6065272Y1308134D01*
X6064648Y1308095D01*
X6064141Y1308056D01*
X6063634D01*
X6063205Y1308017D01*
X6062815Y1307978D01*
X6062503Y1307939D01*
X6062230Y1307900D01*
X6061996Y1307861D01*
X6061801Y1307822D01*
X6061645Y1307783D01*
X6061567D01*
X6061489Y1307744D01*
X6060592Y1307432D01*
X6059812Y1307003D01*
X6059110Y1306535D01*
X6058525Y1306067D01*
X6058096Y1305599D01*
X6057745Y1305248D01*
X6057628Y1305092D01*
X6057550Y1304975D01*
X6057472Y1304936D01*
Y1304897D01*
X6056965Y1304078D01*
X6056575Y1303181D01*
X6056302Y1302323D01*
X6056146Y1301504D01*
X6056029Y1300802D01*
X6055990Y1300529D01*
Y1300256D01*
X6055951Y1300022D01*
Y1299866D01*
Y1299788D01*
Y1299749D01*
X6055990Y1299008D01*
X6056068Y1298267D01*
X6056185Y1297604D01*
X6056341Y1296980D01*
X6056575Y1296395D01*
X6056770Y1295849D01*
X6057004Y1295381D01*
X6057238Y1294952D01*
X6057511Y1294562D01*
X6057745Y1294211D01*
X6057940Y1293938D01*
X6058135Y1293704D01*
X6058330Y1293509D01*
X6058447Y1293392D01*
X6058525Y1293314D01*
X6058564Y1293275D01*
X6059071Y1292885D01*
X6059695Y1292534D01*
X6060319Y1292222D01*
X6061021Y1291988D01*
X6061723Y1291754D01*
X6062464Y1291559D01*
X6063907Y1291286D01*
X6064570Y1291208D01*
X6065194Y1291130D01*
X6065779Y1291091D01*
X6066286Y1291052D01*
X6066715Y1291013D01*
X6079663D01*
Y1308173D01*
D02*
G37*
G36*
X7163524Y1307354D02*
X7149796D01*
X7149133Y1307315D01*
X7148509Y1307276D01*
X7148002Y1307237D01*
X7147495D01*
X7147066Y1307198D01*
X7146676Y1307159D01*
X7146364Y1307120D01*
X7146091Y1307081D01*
X7145857Y1307042D01*
X7145662Y1307003D01*
X7145506Y1306964D01*
X7145428D01*
X7145350Y1306925D01*
X7144453Y1306613D01*
X7143673Y1306184D01*
X7142971Y1305716D01*
X7142386Y1305248D01*
X7141957Y1304780D01*
X7141606Y1304429D01*
X7141489Y1304273D01*
X7141411Y1304156D01*
X7141333Y1304117D01*
Y1304078D01*
X7140826Y1303259D01*
X7140436Y1302362D01*
X7140163Y1301504D01*
X7140007Y1300685D01*
X7139890Y1299983D01*
X7139851Y1299710D01*
Y1299437D01*
X7139812Y1299203D01*
Y1299047D01*
Y1298969D01*
Y1298930D01*
X7139851Y1298189D01*
X7139929Y1297448D01*
X7140046Y1296785D01*
X7140202Y1296161D01*
X7140436Y1295576D01*
X7140631Y1295030D01*
X7140865Y1294562D01*
X7141099Y1294133D01*
X7141372Y1293743D01*
X7141606Y1293392D01*
X7141801Y1293119D01*
X7141996Y1292885D01*
X7142191Y1292690D01*
X7142308Y1292573D01*
X7142386Y1292495D01*
X7142425Y1292456D01*
X7142932Y1292066D01*
X7143556Y1291715D01*
X7144180Y1291403D01*
X7144882Y1291169D01*
X7145584Y1290935D01*
X7146325Y1290740D01*
X7147768Y1290467D01*
X7148431Y1290389D01*
X7149055Y1290311D01*
X7149640Y1290272D01*
X7150147Y1290233D01*
X7150576Y1290194D01*
X7163524D01*
Y1307354D01*
D02*
G37*
G36*
X5930215Y1149226D02*
X5923448D01*
Y1134236D01*
X5894092D01*
X5891593Y1134132D01*
X5889407Y1133924D01*
X5887430Y1133507D01*
X5885764Y1133091D01*
X5884411Y1132675D01*
X5883474Y1132258D01*
X5882849Y1132050D01*
X5882641Y1131946D01*
X5881079Y1131009D01*
X5879726Y1129968D01*
X5878581Y1128823D01*
X5877644Y1127782D01*
X5877020Y1126741D01*
X5876499Y1126012D01*
X5876187Y1125492D01*
X5876083Y1125284D01*
X5875354Y1123618D01*
X5874833Y1121848D01*
X5874521Y1120183D01*
X5874209Y1118517D01*
X5874105Y1117164D01*
X5874001Y1116019D01*
Y1115602D01*
Y1115290D01*
Y1115082D01*
Y1114978D01*
Y1114769D01*
X5874105Y1113208D01*
X5874209Y1111646D01*
X5874938Y1108940D01*
X5875874Y1106650D01*
X5876915Y1104776D01*
X5877436Y1103943D01*
X5877956Y1103214D01*
X5878477Y1102590D01*
X5878893Y1102173D01*
X5879310Y1101757D01*
X5879622Y1101445D01*
X5879726Y1101341D01*
X5879830Y1101236D01*
X5880975Y1100404D01*
X5882225Y1099675D01*
X5885139Y1098426D01*
X5888158Y1097593D01*
X5891177Y1097072D01*
X5892530Y1096864D01*
X5893884Y1096656D01*
X5895029Y1096552D01*
X5896070D01*
X5896903Y1096448D01*
X5923448D01*
Y1134236D01*
X5930215D01*
Y1149226D01*
D02*
G37*
G36*
X5545461Y1111028D02*
X5543483Y1107899D01*
X5545461Y1105817D01*
Y1111028D01*
D02*
G37*
G36*
X4808121Y1111028D02*
X4806143Y1107899D01*
X4808121Y1105817D01*
Y1111028D01*
D02*
G37*
G36*
X5096582Y1176501D02*
X5078110Y1122785D01*
X5064935D01*
Y1107066D01*
X5072704D01*
X5078110Y1122785D01*
X5114995Y1122785D01*
X5096582Y1176501D01*
D02*
G37*
G36*
X5685996Y1184204D02*
X5684747D01*
X5682144Y1184100D01*
X5679646Y1183684D01*
X5677460Y1183163D01*
X5675586Y1182539D01*
X5674025Y1181914D01*
X5673400Y1181602D01*
X5672879Y1181393D01*
X5672463Y1181185D01*
X5672151Y1180977D01*
X5672047Y1180873D01*
X5671943D01*
X5669965Y1179520D01*
X5668195Y1178062D01*
X5666738Y1176501D01*
X5665488Y1174939D01*
X5664551Y1173586D01*
X5663823Y1172545D01*
X5663614Y1172129D01*
X5663406Y1171816D01*
X5663302Y1171608D01*
Y1171504D01*
X5662261Y1169214D01*
X5661533Y1166819D01*
X5660908Y1164425D01*
X5660596Y1162239D01*
X5660387Y1160365D01*
X5660283Y1159532D01*
X5660179Y1158908D01*
Y1158283D01*
Y1157867D01*
Y1157659D01*
Y1157554D01*
Y1122889D01*
X5660283Y1119974D01*
X5660700Y1117372D01*
X5661116Y1114978D01*
X5661741Y1112896D01*
X5662053Y1111959D01*
X5662261Y1111230D01*
X5662574Y1110501D01*
X5662782Y1109877D01*
X5662990Y1109460D01*
X5663198Y1109148D01*
X5663302Y1108940D01*
Y1108836D01*
X5664551Y1106754D01*
X5665905Y1104880D01*
X5667362Y1103214D01*
X5668715Y1101861D01*
X5669965Y1100820D01*
X5671006Y1100091D01*
X5671422Y1099779D01*
X5671734Y1099675D01*
X5671838Y1099467D01*
X5671943D01*
X5674025Y1098426D01*
X5676315Y1097593D01*
X5678397Y1097072D01*
X5680375Y1096656D01*
X5682144Y1096448D01*
X5682873Y1096344D01*
X5683498D01*
X5684018Y1096240D01*
X5684747D01*
X5687349Y1096344D01*
X5689848Y1096760D01*
X5692034Y1097281D01*
X5693908Y1097905D01*
X5695469Y1098426D01*
X5696094Y1098738D01*
X5696614Y1098946D01*
X5697135Y1099154D01*
X5697447Y1099363D01*
X5697551Y1099467D01*
X5697655D01*
X5699633Y1100820D01*
X5701299Y1102381D01*
X5702860Y1103943D01*
X5704005Y1105400D01*
X5705046Y1106754D01*
X5705671Y1107795D01*
X5705983Y1108211D01*
X5706191Y1108523D01*
X5706296Y1108732D01*
Y1108836D01*
X5707337Y1111230D01*
X5708065Y1113624D01*
X5708586Y1116019D01*
X5708898Y1118205D01*
X5709106Y1120079D01*
X5709210Y1120911D01*
X5709314Y1121536D01*
Y1122160D01*
Y1122577D01*
Y1122785D01*
Y1122889D01*
Y1157554D01*
X5709210Y1160469D01*
X5708794Y1163072D01*
X5708377Y1165466D01*
X5707753Y1167548D01*
X5707545Y1168381D01*
X5707232Y1169214D01*
X5707024Y1169838D01*
X5706712Y1170463D01*
X5706608Y1170879D01*
X5706400Y1171192D01*
X5706296Y1171400D01*
Y1171504D01*
X5705046Y1173690D01*
X5703589Y1175564D01*
X5702236Y1177125D01*
X5700778Y1178479D01*
X5699529Y1179520D01*
X5698592Y1180248D01*
X5698176Y1180561D01*
X5697863Y1180769D01*
X5697759Y1180873D01*
X5697655D01*
X5695469Y1182018D01*
X5693283Y1182851D01*
X5691097Y1183371D01*
X5689119Y1183788D01*
X5687349Y1183996D01*
X5686621Y1184100D01*
X5685996Y1184204D01*
D02*
G37*
G36*
X5358810Y1184204D02*
X5357560D01*
X5354958Y1184100D01*
X5352460Y1183684D01*
X5350274Y1183163D01*
X5348400Y1182538D01*
X5346838Y1181914D01*
X5346214Y1181601D01*
X5345693Y1181393D01*
X5345277Y1181185D01*
X5344964Y1180977D01*
X5344860Y1180873D01*
X5344756D01*
X5342778Y1179520D01*
X5341009Y1178062D01*
X5339551Y1176501D01*
X5338302Y1174939D01*
X5337365Y1173586D01*
X5336636Y1172545D01*
X5336428Y1172128D01*
X5336220Y1171816D01*
X5336116Y1171608D01*
Y1171504D01*
X5335075Y1169214D01*
X5334346Y1166819D01*
X5333722Y1164425D01*
X5333409Y1162239D01*
X5333201Y1160365D01*
X5333097Y1159532D01*
X5332993Y1158908D01*
Y1158283D01*
Y1157867D01*
Y1157659D01*
Y1157554D01*
Y1122889D01*
X5333097Y1119974D01*
X5333513Y1117372D01*
X5333930Y1114977D01*
X5334554Y1112896D01*
X5334867Y1111959D01*
X5335075Y1111230D01*
X5335387Y1110501D01*
X5335595Y1109877D01*
X5335804Y1109460D01*
X5336012Y1109148D01*
X5336116Y1108940D01*
Y1108836D01*
X5337365Y1106754D01*
X5338718Y1104880D01*
X5340176Y1103214D01*
X5341529Y1101861D01*
X5342778Y1100820D01*
X5343819Y1100091D01*
X5344236Y1099779D01*
X5344548Y1099675D01*
X5344652Y1099467D01*
X5344756D01*
X5346838Y1098426D01*
X5349128Y1097593D01*
X5351210Y1097072D01*
X5353188Y1096656D01*
X5354958Y1096448D01*
X5355687Y1096344D01*
X5356311D01*
X5356832Y1096239D01*
X5357560D01*
X5360163Y1096344D01*
X5362661Y1096760D01*
X5364847Y1097281D01*
X5366721Y1097905D01*
X5368283Y1098426D01*
X5368907Y1098738D01*
X5369428Y1098946D01*
X5369948Y1099154D01*
X5370261Y1099362D01*
X5370365Y1099467D01*
X5370469D01*
X5372447Y1100820D01*
X5374112Y1102381D01*
X5375674Y1103943D01*
X5376819Y1105400D01*
X5377860Y1106754D01*
X5378485Y1107795D01*
X5378797Y1108211D01*
X5379005Y1108523D01*
X5379109Y1108732D01*
Y1108836D01*
X5380150Y1111230D01*
X5380879Y1113624D01*
X5381399Y1116018D01*
X5381712Y1118205D01*
X5381920Y1120078D01*
X5382024Y1120911D01*
X5382128Y1121536D01*
Y1122160D01*
Y1122577D01*
Y1122785D01*
Y1122889D01*
Y1157554D01*
X5382024Y1160469D01*
X5381608Y1163072D01*
X5381191Y1165466D01*
X5380567Y1167548D01*
X5380358Y1168381D01*
X5380046Y1169214D01*
X5379838Y1169838D01*
X5379526Y1170463D01*
X5379422Y1170879D01*
X5379213Y1171191D01*
X5379109Y1171400D01*
Y1171504D01*
X5377860Y1173690D01*
X5376403Y1175564D01*
X5375049Y1177125D01*
X5373592Y1178478D01*
X5372343Y1179520D01*
X5371406Y1180248D01*
X5370989Y1180561D01*
X5370677Y1180769D01*
X5370573Y1180873D01*
X5370469D01*
X5368283Y1182018D01*
X5366097Y1182851D01*
X5363911Y1183371D01*
X5361933Y1183788D01*
X5360163Y1183996D01*
X5359434Y1184100D01*
X5358810Y1184204D01*
D02*
G37*
%LPD*%
D38*
X7907559Y1519961D02*
G03*
X7907559Y1519961I-4921J0D01*
G01*
X7369244D02*
G03*
X7369244Y1519961I-4921J0D01*
G01*
X6830929D02*
G03*
X6830929Y1519961I-4921J0D01*
G01*
X6292614D02*
G03*
X6292614Y1519961I-4921J0D01*
G01*
X5754299D02*
G03*
X5754299Y1519961I-4921J0D01*
G01*
X5215984D02*
G03*
X5215984Y1519961I-4921J0D01*
G01*
X8555979Y1879961D02*
G03*
X8555979Y1879961I-4921J0D01*
G01*
X8290646D02*
G03*
X8290646Y1879961I-4921J0D01*
G01*
X8025313D02*
G03*
X8025313Y1879961I-4921J0D01*
G01*
X7759980D02*
G03*
X7759980Y1879961I-4921J0D01*
G01*
X7494647D02*
G03*
X7494647Y1879961I-4921J0D01*
G01*
X7229314D02*
G03*
X7229314Y1879961I-4921J0D01*
G01*
X6963981D02*
G03*
X6963981Y1879961I-4921J0D01*
G01*
X6698648D02*
G03*
X6698648Y1879961I-4921J0D01*
G01*
X6433315D02*
G03*
X6433315Y1879961I-4921J0D01*
G01*
X6167982D02*
G03*
X6167982Y1879961I-4921J0D01*
G01*
X5902649D02*
G03*
X5902649Y1879961I-4921J0D01*
G01*
X5371983D02*
G03*
X5371983Y1879961I-4921J0D01*
G01*
X5637316D02*
G03*
X5637316Y1879961I-4921J0D01*
G01*
X5106650D02*
G03*
X5106650Y1879961I-4921J0D01*
G01*
X4841317D02*
G03*
X4841317Y1879961I-4921J0D01*
G01*
X4575984D02*
G03*
X4575984Y1879961I-4921J0D01*
G01*
D39*
X7656575Y1553425D02*
X7853425D01*
X7656575Y1356575D02*
X7853425D01*
Y1358543D01*
X7656575Y1356575D02*
Y1358543D01*
Y1551457D02*
Y1553425D01*
X7853425Y1551457D02*
Y1553425D01*
Y1423504D02*
Y1486496D01*
X7656575Y1423504D02*
Y1486496D01*
X7118260Y1553425D02*
X7315110D01*
X7118260Y1356575D02*
X7315110D01*
Y1358543D01*
X7118260Y1356575D02*
Y1358543D01*
Y1551457D02*
Y1553425D01*
X7315110Y1551457D02*
Y1553425D01*
Y1423504D02*
Y1486496D01*
X7118260Y1423504D02*
Y1486496D01*
X6579945Y1553425D02*
X6776795D01*
X6579945Y1356575D02*
X6776795D01*
Y1358543D01*
X6579945Y1356575D02*
Y1358543D01*
Y1551457D02*
Y1553425D01*
X6776795Y1551457D02*
Y1553425D01*
Y1423504D02*
Y1486496D01*
X6579945Y1423504D02*
Y1486496D01*
X6041630Y1553425D02*
X6238480D01*
X6041630Y1356575D02*
X6238480D01*
Y1358543D01*
X6041630Y1356575D02*
Y1358543D01*
Y1551457D02*
Y1553425D01*
X6238480Y1551457D02*
Y1553425D01*
Y1423504D02*
Y1486496D01*
X6041630Y1423504D02*
Y1486496D01*
X5503315Y1553425D02*
X5700165D01*
X5503315Y1356575D02*
X5700165D01*
Y1358543D01*
X5503315Y1356575D02*
Y1358543D01*
Y1551457D02*
Y1553425D01*
X5700165Y1551457D02*
Y1553425D01*
Y1423504D02*
Y1486496D01*
X5503315Y1423504D02*
Y1486496D01*
X4965000Y1553425D02*
X5161850D01*
X4965000Y1356575D02*
X5161850D01*
Y1358543D01*
X4965000Y1356575D02*
Y1358543D01*
Y1551457D02*
Y1553425D01*
X5161850Y1551457D02*
Y1553425D01*
Y1423504D02*
Y1486496D01*
X4965000Y1423504D02*
Y1486496D01*
X8304995Y1913425D02*
X8501845D01*
X8304995Y1716575D02*
X8501845D01*
Y1718543D01*
X8304995Y1716575D02*
Y1718543D01*
Y1911457D02*
Y1913425D01*
X8501845Y1911457D02*
Y1913425D01*
Y1783504D02*
Y1846496D01*
X8304995Y1783504D02*
Y1846496D01*
X8039662Y1913425D02*
X8236512D01*
X8039662Y1716575D02*
X8236512D01*
Y1718543D01*
X8039662Y1716575D02*
Y1718543D01*
Y1911457D02*
Y1913425D01*
X8236512Y1911457D02*
Y1913425D01*
Y1783504D02*
Y1846496D01*
X8039662Y1783504D02*
Y1846496D01*
X7774329Y1913425D02*
X7971179D01*
X7774329Y1716575D02*
X7971179D01*
Y1718543D01*
X7774329Y1716575D02*
Y1718543D01*
Y1911457D02*
Y1913425D01*
X7971179Y1911457D02*
Y1913425D01*
Y1783504D02*
Y1846496D01*
X7774329Y1783504D02*
Y1846496D01*
X7508996Y1913425D02*
X7705846D01*
X7508996Y1716575D02*
X7705846D01*
Y1718543D01*
X7508996Y1716575D02*
Y1718543D01*
Y1911457D02*
Y1913425D01*
X7705846Y1911457D02*
Y1913425D01*
Y1783504D02*
Y1846496D01*
X7508996Y1783504D02*
Y1846496D01*
X7243663Y1913425D02*
X7440513D01*
X7243663Y1716575D02*
X7440513D01*
Y1718543D01*
X7243663Y1716575D02*
Y1718543D01*
Y1911457D02*
Y1913425D01*
X7440513Y1911457D02*
Y1913425D01*
Y1783504D02*
Y1846496D01*
X7243663Y1783504D02*
Y1846496D01*
X6978330Y1913425D02*
X7175180D01*
X6978330Y1716575D02*
X7175180D01*
Y1718543D01*
X6978330Y1716575D02*
Y1718543D01*
Y1911457D02*
Y1913425D01*
X7175180Y1911457D02*
Y1913425D01*
Y1783504D02*
Y1846496D01*
X6978330Y1783504D02*
Y1846496D01*
X6712997Y1913425D02*
X6909847D01*
X6712997Y1716575D02*
X6909847D01*
Y1718543D01*
X6712997Y1716575D02*
Y1718543D01*
Y1911457D02*
Y1913425D01*
X6909847Y1911457D02*
Y1913425D01*
Y1783504D02*
Y1846496D01*
X6712997Y1783504D02*
Y1846496D01*
X6447664Y1913425D02*
X6644514D01*
X6447664Y1716575D02*
X6644514D01*
Y1718543D01*
X6447664Y1716575D02*
Y1718543D01*
Y1911457D02*
Y1913425D01*
X6644514Y1911457D02*
Y1913425D01*
Y1783504D02*
Y1846496D01*
X6447664Y1783504D02*
Y1846496D01*
X6182331Y1913425D02*
X6379181D01*
X6182331Y1716575D02*
X6379181D01*
Y1718543D01*
X6182331Y1716575D02*
Y1718543D01*
Y1911457D02*
Y1913425D01*
X6379181Y1911457D02*
Y1913425D01*
Y1783504D02*
Y1846496D01*
X6182331Y1783504D02*
Y1846496D01*
X5916998Y1913425D02*
X6113848D01*
X5916998Y1716575D02*
X6113848D01*
Y1718543D01*
X5916998Y1716575D02*
Y1718543D01*
Y1911457D02*
Y1913425D01*
X6113848Y1911457D02*
Y1913425D01*
Y1783504D02*
Y1846496D01*
X5916998Y1783504D02*
Y1846496D01*
X5651665Y1913425D02*
X5848515D01*
X5651665Y1716575D02*
X5848515D01*
Y1718543D01*
X5651665Y1716575D02*
Y1718543D01*
Y1911457D02*
Y1913425D01*
X5848515Y1911457D02*
Y1913425D01*
Y1783504D02*
Y1846496D01*
X5651665Y1783504D02*
Y1846496D01*
X5120999Y1913425D02*
X5317849D01*
X5120999Y1716575D02*
X5317849D01*
Y1718543D01*
X5120999Y1716575D02*
Y1718543D01*
Y1911457D02*
Y1913425D01*
X5317849Y1911457D02*
Y1913425D01*
Y1783504D02*
Y1846496D01*
X5120999Y1783504D02*
Y1846496D01*
X5386332Y1913425D02*
X5583182D01*
X5386332Y1716575D02*
X5583182D01*
Y1718543D01*
X5386332Y1716575D02*
Y1718543D01*
Y1911457D02*
Y1913425D01*
X5583182Y1911457D02*
Y1913425D01*
Y1783504D02*
Y1846496D01*
X5386332Y1783504D02*
Y1846496D01*
X4855666Y1913425D02*
X5052516D01*
X4855666Y1716575D02*
X5052516D01*
Y1718543D01*
X4855666Y1716575D02*
Y1718543D01*
Y1911457D02*
Y1913425D01*
X5052516Y1911457D02*
Y1913425D01*
Y1783504D02*
Y1846496D01*
X4855666Y1783504D02*
Y1846496D01*
X4590333Y1913425D02*
X4787183D01*
X4590333Y1716575D02*
X4787183D01*
Y1718543D01*
X4590333Y1716575D02*
Y1718543D01*
Y1911457D02*
Y1913425D01*
X4787183Y1911457D02*
Y1913425D01*
Y1783504D02*
Y1846496D01*
X4590333Y1783504D02*
Y1846496D01*
X4325000Y1913425D02*
X4521850D01*
X4325000Y1716575D02*
X4521850D01*
Y1718543D01*
X4325000Y1716575D02*
Y1718543D01*
Y1911457D02*
Y1913425D01*
X4521850Y1911457D02*
Y1913425D01*
Y1783504D02*
Y1846496D01*
X4325000Y1783504D02*
Y1846496D01*
%TF.MD5,a6da0d7ecdffdff9d8251d49c229aef5*%
M02*
