%TF.GenerationSoftware,Altium Limited,Altium Designer,20.0.11 (256)*%
G04 Layer_Color=16711935*
%FSLAX26Y26*%
%MOIN*%
%TF.FileFunction,Soldermask,Bot*%
%TF.Part,Single*%
G01*
G75*
%TA.AperFunction,SMDPad,CuDef*%
%ADD40R,0.067055X0.043433*%
%TA.AperFunction,ConnectorPad*%
%ADD41R,0.067055X0.043433*%
%TA.AperFunction,ViaPad*%
%ADD42C,0.068000*%
%TA.AperFunction,ComponentPad*%
%ADD43R,0.058000X0.058000*%
%ADD44C,0.058000*%
%TA.AperFunction,ViaPad*%
%ADD45C,0.026000*%
D40*
X7851457Y1519961D02*
D03*
Y1390039D02*
D03*
X7658543D02*
D03*
Y1519961D02*
D03*
X7313142D02*
D03*
Y1390039D02*
D03*
X7120228D02*
D03*
Y1519961D02*
D03*
X6774827D02*
D03*
Y1390039D02*
D03*
X6581913D02*
D03*
Y1519961D02*
D03*
X6236512D02*
D03*
Y1390039D02*
D03*
X6043598D02*
D03*
Y1519961D02*
D03*
X5698197D02*
D03*
Y1390039D02*
D03*
X5505283D02*
D03*
Y1519961D02*
D03*
X5159882D02*
D03*
Y1390039D02*
D03*
X4966968D02*
D03*
Y1519961D02*
D03*
X8234544Y1879961D02*
D03*
Y1750039D02*
D03*
X8041630D02*
D03*
Y1879961D02*
D03*
X7969211D02*
D03*
Y1750039D02*
D03*
X7776297D02*
D03*
Y1879961D02*
D03*
X7703878D02*
D03*
Y1750039D02*
D03*
X7510964D02*
D03*
Y1879961D02*
D03*
X7438545D02*
D03*
Y1750039D02*
D03*
X7245631D02*
D03*
Y1879961D02*
D03*
X7173212D02*
D03*
Y1750039D02*
D03*
X6980298D02*
D03*
Y1879961D02*
D03*
X6907879D02*
D03*
Y1750039D02*
D03*
X6714965D02*
D03*
Y1879961D02*
D03*
X6642546D02*
D03*
Y1750039D02*
D03*
X6449632D02*
D03*
Y1879961D02*
D03*
X6377213D02*
D03*
Y1750039D02*
D03*
X6184299D02*
D03*
Y1879961D02*
D03*
X6111880D02*
D03*
Y1750039D02*
D03*
X5918966D02*
D03*
Y1879961D02*
D03*
X5846547D02*
D03*
Y1750039D02*
D03*
X5653633D02*
D03*
Y1879961D02*
D03*
X5315881D02*
D03*
Y1750039D02*
D03*
X5122967D02*
D03*
Y1879961D02*
D03*
X5581214D02*
D03*
Y1750039D02*
D03*
X5388300D02*
D03*
Y1879961D02*
D03*
X5050548D02*
D03*
Y1750039D02*
D03*
X4857634D02*
D03*
Y1879961D02*
D03*
X4785215D02*
D03*
Y1750039D02*
D03*
X4592301D02*
D03*
Y1879961D02*
D03*
X4519882D02*
D03*
Y1750039D02*
D03*
X4326968D02*
D03*
Y1879961D02*
D03*
D41*
X8499877D02*
D03*
Y1750039D02*
D03*
X8306963D02*
D03*
Y1879961D02*
D03*
D42*
X5930000Y1455000D02*
D03*
X8080000D02*
D03*
D43*
X8160000Y1650000D02*
D03*
D44*
X8060000D02*
D03*
X7960000D02*
D03*
X7860000D02*
D03*
X7760000D02*
D03*
X7660000D02*
D03*
X7560000D02*
D03*
X7460000D02*
D03*
X7360000D02*
D03*
X7260000D02*
D03*
X7160000D02*
D03*
X7060000D02*
D03*
X6960000D02*
D03*
X6860000D02*
D03*
X8160000Y1050000D02*
D03*
X8060000D02*
D03*
X7960000D02*
D03*
X7860000D02*
D03*
X7760000D02*
D03*
X7660000D02*
D03*
X7560000D02*
D03*
X7460000D02*
D03*
X7360000D02*
D03*
X7260000D02*
D03*
X7160000D02*
D03*
X7060000D02*
D03*
X6960000D02*
D03*
X6860000D02*
D03*
D45*
X5750000Y1460000D02*
D03*
X6810000Y1600000D02*
D03*
X5060000Y1515000D02*
D03*
X4995000Y1390000D02*
D03*
X5120000Y1480000D02*
D03*
X6270000Y1520000D02*
D03*
X6015000Y1390000D02*
D03*
X7820000Y1520000D02*
D03*
X7630000Y1390000D02*
D03*
X7150000Y1388403D02*
D03*
X7280000Y1518403D02*
D03*
X6615000Y1388403D02*
D03*
X6745000Y1518403D02*
D03*
X5535000Y1388403D02*
D03*
X5665000Y1518403D02*
D03*
X8335000Y1750000D02*
D03*
X5195000Y1130000D02*
D03*
X7630000Y1345000D02*
D03*
X4715000Y1140000D02*
D03*
Y1270000D02*
D03*
X4710000Y1600000D02*
D03*
Y1480000D02*
D03*
X5810000Y1706417D02*
D03*
Y1150000D02*
D03*
X6170000D02*
D03*
X6530000D02*
D03*
X6090000Y1465000D02*
D03*
X6450000D02*
D03*
X4355000Y1880000D02*
D03*
X7403666D02*
D03*
X7138333D02*
D03*
X6873000D02*
D03*
X6607666D02*
D03*
X6342333D02*
D03*
X6077000D02*
D03*
X5811667D02*
D03*
X5546333D02*
D03*
X5281000D02*
D03*
X5015667D02*
D03*
X4750333D02*
D03*
X4485000D02*
D03*
X8464999D02*
D03*
X7669000D02*
D03*
X7934333D02*
D03*
X8199666D02*
D03*
X5275000Y1130000D02*
D03*
X7595000Y1295000D02*
D03*
X7385000Y1136082D02*
D03*
X7314372D02*
D03*
X7250000D02*
D03*
X7170000D02*
D03*
X7030000D02*
D03*
X7100000D02*
D03*
X7845000Y1345000D02*
D03*
Y1220000D02*
D03*
X5151000Y1750000D02*
D03*
X4885667D02*
D03*
X4620333D02*
D03*
X4355000D02*
D03*
X5420000D02*
D03*
X5681667D02*
D03*
X5947000D02*
D03*
X6212333D02*
D03*
X6477666D02*
D03*
X6743000D02*
D03*
X7008333D02*
D03*
X7273666D02*
D03*
X7539000D02*
D03*
X7804333D02*
D03*
X8069666D02*
D03*
X5515000Y1660000D02*
D03*
X5318409Y1646772D02*
D03*
X5520000Y1570000D02*
D03*
X7805000Y1275000D02*
D03*
X6975000Y1315000D02*
D03*
X7440000D02*
D03*
X6530000Y1715000D02*
D03*
X6170630Y1706417D02*
D03*
X5730630Y1153583D02*
D03*
X6090630D02*
D03*
X6450630D02*
D03*
X5170000Y1480000D02*
D03*
X5220000D02*
D03*
X5279409Y1490591D02*
D03*
X5111926Y1660591D02*
D03*
Y1600591D02*
D03*
X5105000Y1520000D02*
D03*
%TF.MD5,ce4631a3d67df497f42cfe6eb321cbe5*%
M02*
