%TF.GenerationSoftware,Altium Limited,Altium Designer,20.0.11 (256)*%
G04 Layer_Color=16711935*
%FSLAX26Y26*%
%MOIN*%
%TF.FileFunction,Other,Mechanical_13*%
%TF.Part,Single*%
G01*
G75*
%TA.AperFunction,NonConductor*%
%ADD62C,0.003937*%
D62*
X7867992Y1257008D02*
G03*
X7867992Y1257008I-19685J0D01*
G01*
X6968307Y1516457D02*
Y1573543D01*
X6881693Y1516457D02*
Y1573543D01*
Y1516457D02*
X6968307D01*
X6881693Y1573543D02*
X6968307D01*
X5555197Y1483986D02*
X5637874D01*
X5555197Y1430837D02*
X5637874D01*
X5555197D02*
Y1483986D01*
X5637874Y1430837D02*
Y1483986D01*
X7173662Y1481575D02*
X7256339D01*
X7173662Y1428425D02*
X7256339D01*
X7173662D02*
Y1481575D01*
X7256339Y1428425D02*
Y1481575D01*
X7853425Y1356575D02*
Y1553425D01*
X7656575D02*
X7853425D01*
X7656575Y1356575D02*
X7853425D01*
X7656575D02*
Y1553425D01*
X7315110Y1356575D02*
Y1553425D01*
X7118260D02*
X7315110D01*
X7118260Y1356575D02*
X7315110D01*
X7118260D02*
Y1553425D01*
X6776795Y1356575D02*
Y1553425D01*
X6579945D02*
X6776795D01*
X6579945Y1356575D02*
X6776795D01*
X6579945D02*
Y1553425D01*
X6238480Y1356575D02*
Y1553425D01*
X6041630D02*
X6238480D01*
X6041630Y1356575D02*
X6238480D01*
X6041630D02*
Y1553425D01*
X5700165Y1356575D02*
Y1553425D01*
X5503315D02*
X5700165D01*
X5503315Y1356575D02*
X5700165D01*
X5503315D02*
Y1553425D01*
X5161850Y1356575D02*
Y1553425D01*
X4965000D02*
X5161850D01*
X4965000Y1356575D02*
X5161850D01*
X4965000D02*
Y1553425D01*
X7563662Y1841575D02*
X7646339D01*
X7563662Y1788425D02*
X7646339D01*
X7563662D02*
Y1841575D01*
X7646339Y1788425D02*
Y1841575D01*
X7033662Y1778425D02*
X7116339D01*
X7033662Y1831575D02*
X7116339D01*
Y1778425D02*
Y1831575D01*
X7033662Y1778425D02*
Y1831575D01*
X6079662Y1788425D02*
X6162339D01*
X6079662Y1841575D02*
X6162339D01*
Y1788425D02*
Y1841575D01*
X6079662Y1788425D02*
Y1841575D01*
X5231662Y1788425D02*
X5314339D01*
X5231662Y1841575D02*
X5314339D01*
Y1788425D02*
Y1841575D01*
X5231662Y1788425D02*
Y1841575D01*
X4880709Y1406142D02*
X4933858Y1459291D01*
X4666142Y1406142D02*
X4880709D01*
X4666142D02*
Y1673858D01*
X4880709D01*
X4933858Y1620709D01*
Y1459291D02*
Y1620709D01*
X4880709Y1071142D02*
X4933858Y1124291D01*
X4666142Y1071142D02*
X4880709D01*
X4666142D02*
Y1338858D01*
X4880709D01*
X4933858Y1285709D01*
Y1124291D02*
Y1285709D01*
X7412040Y1238661D02*
Y1321339D01*
X7358891Y1238661D02*
Y1321339D01*
X7412040D01*
X7358891Y1238661D02*
X7412040D01*
X7056575D02*
Y1321339D01*
X7003425Y1238661D02*
Y1321339D01*
X7056575D01*
X7003425Y1238661D02*
X7056575D01*
X7127668D02*
Y1321339D01*
X7074518Y1238661D02*
Y1321339D01*
X7127668D01*
X7074518Y1238661D02*
X7127668D01*
X7198761D02*
Y1321339D01*
X7145611Y1238661D02*
Y1321339D01*
X7198761D01*
X7145611Y1238661D02*
X7198761D01*
X7269854D02*
Y1321339D01*
X7216704Y1238661D02*
Y1321339D01*
X7269854D01*
X7216704Y1238661D02*
X7269854D01*
X7340947D02*
Y1321339D01*
X7287798Y1238661D02*
Y1321339D01*
X7340947D01*
X7287798Y1238661D02*
X7340947D01*
X5381693Y1546457D02*
Y1603543D01*
X5468307Y1546457D02*
Y1603543D01*
X5381693D02*
X5468307D01*
X5381693Y1546457D02*
X5468307D01*
X5016457Y1551693D02*
X5073543D01*
X5016457Y1638307D02*
X5073543D01*
X5016457Y1551693D02*
Y1638307D01*
X5073543Y1551693D02*
Y1638307D01*
X4807661Y1788425D02*
X4890338D01*
X4807661Y1841575D02*
X4890338D01*
Y1788425D02*
Y1841575D01*
X4807661Y1788425D02*
Y1841575D01*
X5655662D02*
X5738339D01*
X5655662Y1788425D02*
X5738339D01*
X5655662D02*
Y1841575D01*
X5738339Y1788425D02*
Y1841575D01*
X6503662D02*
X6586339D01*
X6503662Y1788425D02*
X6586339D01*
X6503662D02*
Y1841575D01*
X6586339Y1788425D02*
Y1841575D01*
X8093662Y1846575D02*
X8176339D01*
X8093662Y1793425D02*
X8176339D01*
X8093662D02*
Y1846575D01*
X8176339Y1793425D02*
Y1846575D01*
X7768662Y1196575D02*
X7851339D01*
X7768662Y1143425D02*
X7851339D01*
X7768662D02*
Y1196575D01*
X7851339Y1143425D02*
Y1196575D01*
X8501845Y1716575D02*
Y1913425D01*
X8304995D02*
X8501845D01*
X8304995Y1716575D02*
X8501845D01*
X8304995D02*
Y1913425D01*
X8236512Y1716575D02*
Y1913425D01*
X8039662D02*
X8236512D01*
X8039662Y1716575D02*
X8236512D01*
X8039662D02*
Y1913425D01*
X7971179Y1716575D02*
Y1913425D01*
X7774329D02*
X7971179D01*
X7774329Y1716575D02*
X7971179D01*
X7774329D02*
Y1913425D01*
X7705846Y1716575D02*
Y1913425D01*
X7508996D02*
X7705846D01*
X7508996Y1716575D02*
X7705846D01*
X7508996D02*
Y1913425D01*
X7440513Y1716575D02*
Y1913425D01*
X7243663D02*
X7440513D01*
X7243663Y1716575D02*
X7440513D01*
X7243663D02*
Y1913425D01*
X7175180Y1716575D02*
Y1913425D01*
X6978330D02*
X7175180D01*
X6978330Y1716575D02*
X7175180D01*
X6978330D02*
Y1913425D01*
X6909847Y1716575D02*
Y1913425D01*
X6712997D02*
X6909847D01*
X6712997Y1716575D02*
X6909847D01*
X6712997D02*
Y1913425D01*
X6644514Y1716575D02*
Y1913425D01*
X6447664D02*
X6644514D01*
X6447664Y1716575D02*
X6644514D01*
X6447664D02*
Y1913425D01*
X6379181Y1716575D02*
Y1913425D01*
X6182331D02*
X6379181D01*
X6182331Y1716575D02*
X6379181D01*
X6182331D02*
Y1913425D01*
X6113848Y1716575D02*
Y1913425D01*
X5916998D02*
X6113848D01*
X5916998Y1716575D02*
X6113848D01*
X5916998D02*
Y1913425D01*
X5848515Y1716575D02*
Y1913425D01*
X5651665D02*
X5848515D01*
X5651665Y1716575D02*
X5848515D01*
X5651665D02*
Y1913425D01*
X5317849Y1716575D02*
Y1913425D01*
X5120999D02*
X5317849D01*
X5120999Y1716575D02*
X5317849D01*
X5120999D02*
Y1913425D01*
X5583182Y1716575D02*
Y1913425D01*
X5386332D02*
X5583182D01*
X5386332Y1716575D02*
X5583182D01*
X5386332D02*
Y1913425D01*
X5052516Y1716575D02*
Y1913425D01*
X4855666D02*
X5052516D01*
X4855666Y1716575D02*
X5052516D01*
X4855666D02*
Y1913425D01*
X4787183Y1716575D02*
Y1913425D01*
X4590333D02*
X4787183D01*
X4590333Y1716575D02*
X4787183D01*
X4590333D02*
Y1913425D01*
X4521850Y1716575D02*
Y1913425D01*
X4325000D02*
X4521850D01*
X4325000Y1716575D02*
X4521850D01*
X4325000D02*
Y1913425D01*
X4468307Y1787441D02*
Y1844528D01*
X4381693Y1787441D02*
Y1844528D01*
Y1787441D02*
X4468307D01*
X4381693Y1844528D02*
X4468307D01*
X6518898Y1407165D02*
X6538583D01*
X6332874Y1328425D02*
X6645866D01*
X6332874Y1273307D02*
Y1328425D01*
X6538583D02*
Y1407165D01*
X6502165Y1131575D02*
X6645866D01*
Y1273307D02*
Y1328425D01*
X6332874Y1131575D02*
X6476575D01*
X6440158Y1407165D02*
X6459842D01*
X6643898Y1186693D02*
Y1273307D01*
X6518898Y1328425D02*
Y1407165D01*
X6459842Y1328425D02*
Y1407165D01*
X6332874Y1131575D02*
Y1186693D01*
X6476575Y1131575D02*
X6502165D01*
X6643898Y1273307D02*
X6645866D01*
X6440158Y1328425D02*
Y1407165D01*
X6643898Y1186693D02*
X6645866D01*
Y1131575D02*
Y1186693D01*
X6334842D02*
Y1273307D01*
X6332874Y1186693D02*
X6334842D01*
X6332874Y1273307D02*
X6334842D01*
X6159213Y1407165D02*
X6178898D01*
X5973189Y1328425D02*
X6286181D01*
X5973189Y1273307D02*
Y1328425D01*
X6178898D02*
Y1407165D01*
X6142480Y1131575D02*
X6286181D01*
Y1273307D02*
Y1328425D01*
X5973189Y1131575D02*
X6116890D01*
X6080472Y1407165D02*
X6100158D01*
X6284213Y1186693D02*
Y1273307D01*
X6159213Y1328425D02*
Y1407165D01*
X6100158Y1328425D02*
Y1407165D01*
X5973189Y1131575D02*
Y1186693D01*
X6116890Y1131575D02*
X6142480D01*
X6284213Y1273307D02*
X6286181D01*
X6080472Y1328425D02*
Y1407165D01*
X6284213Y1186693D02*
X6286181D01*
Y1131575D02*
Y1186693D01*
X5975158D02*
Y1273307D01*
X5973189Y1186693D02*
X5975157D01*
X5973189Y1273307D02*
X5975157D01*
X5799528Y1407165D02*
X5819213D01*
X5613504Y1328425D02*
X5926496D01*
X5613504Y1273307D02*
Y1328425D01*
X5819213D02*
Y1407165D01*
X5782795Y1131575D02*
X5926496D01*
Y1273307D02*
Y1328425D01*
X5613504Y1131575D02*
X5757205D01*
X5720788Y1407165D02*
X5740472D01*
X5924528Y1186693D02*
Y1273307D01*
X5799528Y1328425D02*
Y1407165D01*
X5740472Y1328425D02*
Y1407165D01*
X5613504Y1131575D02*
Y1186693D01*
X5757205Y1131575D02*
X5782795D01*
X5924528Y1273307D02*
X5926496D01*
X5720788Y1328425D02*
Y1407165D01*
X5924528Y1186693D02*
X5926496D01*
Y1131575D02*
Y1186693D01*
X5615472D02*
Y1273307D01*
X5613504Y1186693D02*
X5615472D01*
X5613504Y1273307D02*
X5615472D01*
X5720787Y1482835D02*
X5740472D01*
X5613504Y1561575D02*
X5926496D01*
Y1616693D01*
X5720787Y1482835D02*
Y1561575D01*
X5613504Y1758425D02*
X5757205D01*
X5613504Y1561575D02*
Y1616693D01*
X5782795Y1758425D02*
X5926496D01*
X5799528Y1482835D02*
X5819212D01*
X5615472Y1616693D02*
Y1703307D01*
X5740472Y1482835D02*
Y1561575D01*
X5799528Y1482835D02*
Y1561575D01*
X5926496Y1703307D02*
Y1758425D01*
X5757205D02*
X5782795D01*
X5613504Y1616693D02*
X5615472D01*
X5819212Y1482835D02*
Y1561575D01*
X5613504Y1703307D02*
X5615472D01*
X5613504D02*
Y1758425D01*
X5924528Y1616693D02*
Y1703307D01*
X5924528D02*
X5926496D01*
X5924528Y1616693D02*
X5926496D01*
X6080472Y1482835D02*
X6100157D01*
X5973189Y1561575D02*
X6286181D01*
Y1616693D01*
X6080472Y1482835D02*
Y1561575D01*
X5973189Y1758425D02*
X6116890D01*
X5973189Y1561575D02*
Y1616693D01*
X6142480Y1758425D02*
X6286181D01*
X6159212Y1482835D02*
X6178898D01*
X5975157Y1616693D02*
Y1703307D01*
X6100157Y1482835D02*
Y1561575D01*
X6159212Y1482835D02*
Y1561575D01*
X6286181Y1703307D02*
Y1758425D01*
X6116890D02*
X6142480D01*
X5973189Y1616693D02*
X5975157D01*
X6178898Y1482835D02*
Y1561575D01*
X5973189Y1703307D02*
X5975157D01*
X5973189D02*
Y1758425D01*
X6284212Y1616693D02*
Y1703307D01*
X6284213D02*
X6286181D01*
X6284213Y1616693D02*
X6286181D01*
X6440157Y1482835D02*
X6459842D01*
X6332874Y1561575D02*
X6645866D01*
Y1616693D01*
X6440157Y1482835D02*
Y1561575D01*
X6332874Y1758425D02*
X6476575D01*
X6332874Y1561575D02*
Y1616693D01*
X6502165Y1758425D02*
X6645866D01*
X6518898Y1482835D02*
X6538583D01*
X6334842Y1616693D02*
Y1703307D01*
X6459842Y1482835D02*
Y1561575D01*
X6518898Y1482835D02*
Y1561575D01*
X6645866Y1703307D02*
Y1758425D01*
X6476575D02*
X6502165D01*
X6332874Y1616693D02*
X6334842D01*
X6538583Y1482835D02*
Y1561575D01*
X6332874Y1703307D02*
X6334842D01*
X6332874D02*
Y1758425D01*
X6643898Y1616693D02*
Y1703307D01*
X6643898D02*
X6645866D01*
X6643898Y1616693D02*
X6645866D01*
X5383661Y1633425D02*
X5466338D01*
X5383661Y1686575D02*
X5466338D01*
Y1633425D02*
Y1686575D01*
X5383661Y1633425D02*
Y1686575D01*
X5110197Y1456575D02*
X5192874D01*
X5110197Y1403425D02*
X5192874D01*
X5110197D02*
Y1456575D01*
X5192874Y1403425D02*
Y1456575D01*
X5280197Y1403425D02*
X5362874D01*
X5280197Y1456575D02*
X5362874D01*
Y1403425D02*
Y1456575D01*
X5280197Y1403425D02*
Y1456575D01*
X7726260Y1418425D02*
X7883740D01*
X7726260Y1221575D02*
X7883740D01*
X7726260D02*
Y1418425D01*
X7883740Y1221575D02*
Y1418425D01*
%TF.MD5,1d04bc384cc828c7a3bb739222b1ca5c*%
M02*
