M48
;Layer_Color=9474304
;FILE_FORMAT=2:5
INCH,LZ
;TYPE=PLATED
T1F00S00C0.00800
T2F00S00C0.04000
T3F00S00C0.09000
%
T01
X04715Y0114
Y0127
X0471Y0148
X04995Y0139
X0506Y01515
X05105Y0152
X0512Y0148
X0517
X0522
X0527941Y0149059
X05535Y013884
X05665Y015184
X0575Y0146
X0573063Y0115358
X0581Y0115
X0609063Y0115358
X0617Y0115
X06015Y0139
X0609Y01465
X05275Y0113
X05195
X0645063Y0115358
X0653Y0115
X06615Y013884
X0645Y01465
X0627Y0152
X06745Y015184
X06975Y01315
X0703Y0113608
X071
X0717
X0725
X0731437
X07385
X0744Y01315
X07595Y01295
X0763Y01345
Y0139
X07805Y01275
X0715Y013884
X0728Y015184
X0782Y0152
X07845Y01345
Y0122
X0793433Y0188
X0819967
X0806967Y0175
X08335
X08465Y0188
X0780433Y0175
X07669Y0188
X07539Y0175
X0740367Y0188
X0727367Y0175
X0713833Y0188
X0700833Y0175
X06873Y0188
X06743Y0175
X0681Y016
X0653Y01715
X0647767Y0175
X0660767Y0188
X0634233
X0621233Y0175
X0617063Y0170642
X06077Y0188
X05947Y0175
X0581Y0170642
X0568167Y0175
X05515Y0166
X0552Y0157
X0531841Y0164677
X0542Y0175
X0554633Y0188
X0581167
X05281
X05151Y0175
X0511193Y0166059
Y0160059
X0501567Y0188
X0488567Y0175
X0475033Y0188
X0471Y016
X0462033Y0175
X04485Y0188
X04355
Y0175
T02
X0686Y0105
X0696
X0706
X0716
X0726
X0736
X0746
X0756
X0766
X0776
X0786
X0796
X0806
X0816
Y0165
X0806
X0796
X0786
X0776
X0766
X0756
X0746
X0736
X0726
X0716
X0706
X0696
X0686
T03
X0593Y01455
X0808
M30
