%TF.GenerationSoftware,Altium Limited,Altium Designer,20.0.11 (256)*%
G04 Layer_Color=8388736*
%FSLAX26Y26*%
%MOIN*%
%TF.FileFunction,Soldermask,Top*%
%TF.Part,Single*%
G01*
G75*
%TA.AperFunction,ViaPad*%
%ADD42C,0.068000*%
%TA.AperFunction,ComponentPad*%
%ADD43R,0.058000X0.058000*%
%ADD44C,0.058000*%
%TA.AperFunction,ViaPad*%
%ADD45C,0.026000*%
%TA.AperFunction,SMDPad,CuDef*%
%ADD51R,0.055244X0.065087*%
%ADD52R,0.055244X0.063118*%
%ADD53R,0.047370X0.224535*%
%ADD54R,0.070992X0.126110*%
%ADD55R,0.120205X0.063118*%
%ADD56R,0.063118X0.055244*%
%ADD57R,0.061150X0.069024*%
%ADD58R,0.061150X0.045402*%
%ADD59R,0.047370X0.059181*%
%TA.AperFunction,BGAPad,CuDef*%
%ADD60C,0.022567*%
%TA.AperFunction,SMDPad,CuDef*%
G04:AMPARAMS|DCode=61|XSize=29.654mil|YSize=57.213mil|CornerRadius=5.949mil|HoleSize=0mil|Usage=FLASHONLY|Rotation=270.000|XOffset=0mil|YOffset=0mil|HoleType=Round|Shape=RoundedRectangle|*
%AMROUNDEDRECTD61*
21,1,0.029654,0.045315,0,0,270.0*
21,1,0.017756,0.057213,0,0,270.0*
1,1,0.011898,-0.022657,-0.008878*
1,1,0.011898,-0.022657,0.008878*
1,1,0.011898,0.022657,0.008878*
1,1,0.011898,0.022657,-0.008878*
%
%ADD61ROUNDEDRECTD61*%
D42*
X5930000Y1455000D02*
D03*
X8080000D02*
D03*
D43*
X8160000Y1650000D02*
D03*
D44*
X8060000D02*
D03*
X7960000D02*
D03*
X7860000D02*
D03*
X7760000D02*
D03*
X7660000D02*
D03*
X7560000D02*
D03*
X7460000D02*
D03*
X7360000D02*
D03*
X7260000D02*
D03*
X7160000D02*
D03*
X7060000D02*
D03*
X6960000D02*
D03*
X6860000D02*
D03*
X8160000Y1050000D02*
D03*
X8060000D02*
D03*
X7960000D02*
D03*
X7860000D02*
D03*
X7760000D02*
D03*
X7660000D02*
D03*
X7560000D02*
D03*
X7460000D02*
D03*
X7360000D02*
D03*
X7260000D02*
D03*
X7160000D02*
D03*
X7060000D02*
D03*
X6960000D02*
D03*
X6860000D02*
D03*
D45*
X5750000Y1460000D02*
D03*
X6810000Y1600000D02*
D03*
X5060000Y1515000D02*
D03*
X4995000Y1390000D02*
D03*
X5120000Y1480000D02*
D03*
X6270000Y1520000D02*
D03*
X6015000Y1390000D02*
D03*
X7820000Y1520000D02*
D03*
X7630000Y1390000D02*
D03*
X7150000Y1388403D02*
D03*
X7280000Y1518403D02*
D03*
X6615000Y1388403D02*
D03*
X6745000Y1518403D02*
D03*
X5535000Y1388403D02*
D03*
X5665000Y1518403D02*
D03*
X8335000Y1750000D02*
D03*
X5195000Y1130000D02*
D03*
X7630000Y1345000D02*
D03*
X4715000Y1140000D02*
D03*
Y1270000D02*
D03*
X4710000Y1600000D02*
D03*
Y1480000D02*
D03*
X5810000Y1706417D02*
D03*
Y1150000D02*
D03*
X6170000D02*
D03*
X6530000D02*
D03*
X6090000Y1465000D02*
D03*
X6450000D02*
D03*
X4355000Y1880000D02*
D03*
X7403666D02*
D03*
X7138333D02*
D03*
X6873000D02*
D03*
X6607666D02*
D03*
X6342333D02*
D03*
X6077000D02*
D03*
X5811667D02*
D03*
X5546333D02*
D03*
X5281000D02*
D03*
X5015667D02*
D03*
X4750333D02*
D03*
X4485000D02*
D03*
X8464999D02*
D03*
X7669000D02*
D03*
X7934333D02*
D03*
X8199666D02*
D03*
X5275000Y1130000D02*
D03*
X7595000Y1295000D02*
D03*
X7385000Y1136082D02*
D03*
X7314372D02*
D03*
X7250000D02*
D03*
X7170000D02*
D03*
X7030000D02*
D03*
X7100000D02*
D03*
X7845000Y1345000D02*
D03*
Y1220000D02*
D03*
X5151000Y1750000D02*
D03*
X4885667D02*
D03*
X4620333D02*
D03*
X4355000D02*
D03*
X5420000D02*
D03*
X5681667D02*
D03*
X5947000D02*
D03*
X6212333D02*
D03*
X6477666D02*
D03*
X6743000D02*
D03*
X7008333D02*
D03*
X7273666D02*
D03*
X7539000D02*
D03*
X7804333D02*
D03*
X8069666D02*
D03*
X5515000Y1660000D02*
D03*
X5318409Y1646772D02*
D03*
X5520000Y1570000D02*
D03*
X7805000Y1275000D02*
D03*
X6975000Y1315000D02*
D03*
X7440000D02*
D03*
X6530000Y1715000D02*
D03*
X6170630Y1706417D02*
D03*
X5730630Y1153583D02*
D03*
X6090630D02*
D03*
X6450630D02*
D03*
X5170000Y1480000D02*
D03*
X5220000D02*
D03*
X5279409Y1490591D02*
D03*
X5111926Y1660591D02*
D03*
Y1600591D02*
D03*
X5105000Y1520000D02*
D03*
D51*
X6958465Y1545000D02*
D03*
X6891535D02*
D03*
X4458465Y1815984D02*
D03*
X4391535D02*
D03*
D52*
X5563071Y1457412D02*
D03*
X5630000D02*
D03*
X7181535Y1455000D02*
D03*
X7248465D02*
D03*
X7571536Y1815000D02*
D03*
X7638465D02*
D03*
X7108465Y1805000D02*
D03*
X7041535D02*
D03*
X6154465Y1815000D02*
D03*
X6087535D02*
D03*
X5306465D02*
D03*
X5239535D02*
D03*
X4882465D02*
D03*
X4815535D02*
D03*
X5663536D02*
D03*
X5730465D02*
D03*
X6511536D02*
D03*
X6578465D02*
D03*
X8101535Y1820000D02*
D03*
X8168465D02*
D03*
X7776535Y1170000D02*
D03*
X7843465D02*
D03*
X5118071Y1430000D02*
D03*
X5185000D02*
D03*
X5355000D02*
D03*
X5288071D02*
D03*
D53*
X5276772Y1258563D02*
D03*
X5198032D02*
D03*
X5355512D02*
D03*
X5119291D02*
D03*
X6528740Y1318583D02*
D03*
X6450000D02*
D03*
X6169055D02*
D03*
X6090315D02*
D03*
X5809370D02*
D03*
X5730630D02*
D03*
Y1571417D02*
D03*
X5809370D02*
D03*
X6090315D02*
D03*
X6169055D02*
D03*
X6450000D02*
D03*
X6528740D02*
D03*
D54*
X5450000Y1169980D02*
D03*
X5024803D02*
D03*
X6623228Y1230000D02*
D03*
X6355512D02*
D03*
X6263543D02*
D03*
X5995827D02*
D03*
X5903858D02*
D03*
X5636142D02*
D03*
Y1660000D02*
D03*
X5903858D02*
D03*
X5995827D02*
D03*
X6263543D02*
D03*
X6355512D02*
D03*
X6623228D02*
D03*
D55*
X4896457Y1540000D02*
D03*
X4703543D02*
D03*
X4896457Y1205000D02*
D03*
X4703543D02*
D03*
D56*
X7385466Y1313465D02*
D03*
Y1246535D02*
D03*
X7030000Y1313465D02*
D03*
Y1246535D02*
D03*
X7101093Y1313465D02*
D03*
Y1246535D02*
D03*
X7172186Y1313465D02*
D03*
Y1246535D02*
D03*
X7243279Y1313465D02*
D03*
Y1246535D02*
D03*
X7314372Y1313465D02*
D03*
Y1246535D02*
D03*
D57*
X5386614Y1575000D02*
D03*
X5463386D02*
D03*
D58*
X5045000Y1564488D02*
D03*
Y1625512D02*
D03*
D59*
X5454528Y1660000D02*
D03*
X5395472D02*
D03*
D60*
X5275591Y1544409D02*
D03*
X5250000D02*
D03*
X5224409D02*
D03*
X5198819D02*
D03*
X5173228D02*
D03*
X5275591Y1570000D02*
D03*
X5250000D02*
D03*
X5224409D02*
D03*
X5198819D02*
D03*
X5173228D02*
D03*
X5275591Y1595591D02*
D03*
X5250000D02*
D03*
X5224409D02*
D03*
X5198819D02*
D03*
X5173228D02*
D03*
X5275591Y1621181D02*
D03*
X5250000D02*
D03*
X5224409D02*
D03*
X5198819D02*
D03*
X5173228D02*
D03*
X5275591Y1646772D02*
D03*
X5250000D02*
D03*
X5224409D02*
D03*
X5198819D02*
D03*
X5173228D02*
D03*
D61*
X7701654Y1395000D02*
D03*
Y1345000D02*
D03*
Y1295000D02*
D03*
Y1245000D02*
D03*
X7908346Y1395000D02*
D03*
Y1345000D02*
D03*
Y1295000D02*
D03*
Y1245000D02*
D03*
%TF.MD5,d5dfe7d9a3fc1458300a4063116483f2*%
M02*
