%TF.GenerationSoftware,Altium Limited,Altium Designer,20.0.11 (256)*%
G04 Layer_Color=128*
%FSLAX26Y26*%
%MOIN*%
%TF.FileFunction,Paste,Bot*%
%TF.Part,Single*%
G01*
G75*
%TA.AperFunction,SMDPad,CuDef*%
%ADD36R,0.059055X0.035433*%
%TA.AperFunction,ConnectorPad*%
%ADD37R,0.059055X0.035433*%
D36*
X7851457Y1519961D02*
D03*
Y1390039D02*
D03*
X7658543D02*
D03*
Y1519961D02*
D03*
X7313142D02*
D03*
Y1390039D02*
D03*
X7120228D02*
D03*
Y1519961D02*
D03*
X6774827D02*
D03*
Y1390039D02*
D03*
X6581913D02*
D03*
Y1519961D02*
D03*
X6236512D02*
D03*
Y1390039D02*
D03*
X6043598D02*
D03*
Y1519961D02*
D03*
X5698197D02*
D03*
Y1390039D02*
D03*
X5505283D02*
D03*
Y1519961D02*
D03*
X5159882D02*
D03*
Y1390039D02*
D03*
X4966968D02*
D03*
Y1519961D02*
D03*
X8234544Y1879961D02*
D03*
Y1750039D02*
D03*
X8041630D02*
D03*
Y1879961D02*
D03*
X7969211D02*
D03*
Y1750039D02*
D03*
X7776297D02*
D03*
Y1879961D02*
D03*
X7703878D02*
D03*
Y1750039D02*
D03*
X7510964D02*
D03*
Y1879961D02*
D03*
X7438545D02*
D03*
Y1750039D02*
D03*
X7245631D02*
D03*
Y1879961D02*
D03*
X7173212D02*
D03*
Y1750039D02*
D03*
X6980298D02*
D03*
Y1879961D02*
D03*
X6907879D02*
D03*
Y1750039D02*
D03*
X6714965D02*
D03*
Y1879961D02*
D03*
X6642546D02*
D03*
Y1750039D02*
D03*
X6449632D02*
D03*
Y1879961D02*
D03*
X6377213D02*
D03*
Y1750039D02*
D03*
X6184299D02*
D03*
Y1879961D02*
D03*
X6111880D02*
D03*
Y1750039D02*
D03*
X5918966D02*
D03*
Y1879961D02*
D03*
X5846547D02*
D03*
Y1750039D02*
D03*
X5653633D02*
D03*
Y1879961D02*
D03*
X5315881D02*
D03*
Y1750039D02*
D03*
X5122967D02*
D03*
Y1879961D02*
D03*
X5581214D02*
D03*
Y1750039D02*
D03*
X5388300D02*
D03*
Y1879961D02*
D03*
X5050548D02*
D03*
Y1750039D02*
D03*
X4857634D02*
D03*
Y1879961D02*
D03*
X4785215D02*
D03*
Y1750039D02*
D03*
X4592301D02*
D03*
Y1879961D02*
D03*
X4519882D02*
D03*
Y1750039D02*
D03*
X4326968D02*
D03*
Y1879961D02*
D03*
D37*
X8499877D02*
D03*
Y1750039D02*
D03*
X8306963D02*
D03*
Y1879961D02*
D03*
%TF.MD5,3985b4b69c61f40f293e9cc63d19d445*%
M02*
