%TF.GenerationSoftware,Altium Limited,Altium Designer,20.0.11 (256)*%
G04 Layer_Color=8421504*
%FSLAX26Y26*%
%MOIN*%
%TF.FileFunction,Paste,Top*%
%TF.Part,Single*%
G01*
G75*
%TA.AperFunction,SMDPad,CuDef*%
%ADD10R,0.047244X0.057087*%
%ADD11R,0.047244X0.055118*%
%ADD12R,0.039370X0.216535*%
%ADD13R,0.062992X0.118110*%
%ADD14R,0.112205X0.055118*%
%ADD15R,0.055118X0.047244*%
%ADD16R,0.053150X0.061024*%
%ADD17R,0.053150X0.037402*%
%ADD18R,0.039370X0.051181*%
%TA.AperFunction,BGAPad,CuDef*%
%ADD19C,0.014567*%
%TA.AperFunction,SMDPad,CuDef*%
G04:AMPARAMS|DCode=20|XSize=21.654mil|YSize=49.213mil|CornerRadius=1.949mil|HoleSize=0mil|Usage=FLASHONLY|Rotation=270.000|XOffset=0mil|YOffset=0mil|HoleType=Round|Shape=RoundedRectangle|*
%AMROUNDEDRECTD20*
21,1,0.021654,0.045315,0,0,270.0*
21,1,0.017756,0.049213,0,0,270.0*
1,1,0.003898,-0.022657,-0.008878*
1,1,0.003898,-0.022657,0.008878*
1,1,0.003898,0.022657,0.008878*
1,1,0.003898,0.022657,-0.008878*
%
%ADD20ROUNDEDRECTD20*%
D10*
X6958465Y1545000D02*
D03*
X6891535D02*
D03*
X4458465Y1815984D02*
D03*
X4391535D02*
D03*
D11*
X5563071Y1457412D02*
D03*
X5630000D02*
D03*
X7181535Y1455000D02*
D03*
X7248465D02*
D03*
X7571536Y1815000D02*
D03*
X7638465D02*
D03*
X7108465Y1805000D02*
D03*
X7041535D02*
D03*
X6154465Y1815000D02*
D03*
X6087535D02*
D03*
X5306465D02*
D03*
X5239535D02*
D03*
X4882465D02*
D03*
X4815535D02*
D03*
X5663536D02*
D03*
X5730465D02*
D03*
X6511536D02*
D03*
X6578465D02*
D03*
X8101535Y1820000D02*
D03*
X8168465D02*
D03*
X7776535Y1170000D02*
D03*
X7843465D02*
D03*
X5118071Y1430000D02*
D03*
X5185000D02*
D03*
X5355000D02*
D03*
X5288071D02*
D03*
D12*
X5276772Y1258563D02*
D03*
X5198032D02*
D03*
X5355512D02*
D03*
X5119291D02*
D03*
X6528740Y1318583D02*
D03*
X6450000D02*
D03*
X6169055D02*
D03*
X6090315D02*
D03*
X5809370D02*
D03*
X5730630D02*
D03*
Y1571417D02*
D03*
X5809370D02*
D03*
X6090315D02*
D03*
X6169055D02*
D03*
X6450000D02*
D03*
X6528740D02*
D03*
D13*
X5450000Y1169980D02*
D03*
X5024803D02*
D03*
X6623228Y1230000D02*
D03*
X6355512D02*
D03*
X6263543D02*
D03*
X5995827D02*
D03*
X5903858D02*
D03*
X5636142D02*
D03*
Y1660000D02*
D03*
X5903858D02*
D03*
X5995827D02*
D03*
X6263543D02*
D03*
X6355512D02*
D03*
X6623228D02*
D03*
D14*
X4896457Y1540000D02*
D03*
X4703543D02*
D03*
X4896457Y1205000D02*
D03*
X4703543D02*
D03*
D15*
X7385466Y1313465D02*
D03*
Y1246535D02*
D03*
X7030000Y1313465D02*
D03*
Y1246535D02*
D03*
X7101093Y1313465D02*
D03*
Y1246535D02*
D03*
X7172186Y1313465D02*
D03*
Y1246535D02*
D03*
X7243279Y1313465D02*
D03*
Y1246535D02*
D03*
X7314372Y1313465D02*
D03*
Y1246535D02*
D03*
D16*
X5386614Y1575000D02*
D03*
X5463386D02*
D03*
D17*
X5045000Y1564488D02*
D03*
Y1625512D02*
D03*
D18*
X5454528Y1660000D02*
D03*
X5395472D02*
D03*
D19*
X5275591Y1544409D02*
D03*
X5250000D02*
D03*
X5224409D02*
D03*
X5198819D02*
D03*
X5173228D02*
D03*
X5275591Y1570000D02*
D03*
X5250000D02*
D03*
X5224409D02*
D03*
X5198819D02*
D03*
X5173228D02*
D03*
X5275591Y1595591D02*
D03*
X5250000D02*
D03*
X5224409D02*
D03*
X5198819D02*
D03*
X5173228D02*
D03*
X5275591Y1621181D02*
D03*
X5250000D02*
D03*
X5224409D02*
D03*
X5198819D02*
D03*
X5173228D02*
D03*
X5275591Y1646772D02*
D03*
X5250000D02*
D03*
X5224409D02*
D03*
X5198819D02*
D03*
X5173228D02*
D03*
D20*
X7701654Y1395000D02*
D03*
Y1345000D02*
D03*
Y1295000D02*
D03*
Y1245000D02*
D03*
X7908346Y1395000D02*
D03*
Y1345000D02*
D03*
Y1295000D02*
D03*
Y1245000D02*
D03*
%TF.MD5,7ab58f9e40ea4d6059ead5da502652dc*%
M02*
