%TF.GenerationSoftware,Altium Limited,Altium Designer,20.0.11 (256)*%
G04 Layer_Physical_Order=2*
G04 Layer_Color=32768*
%FSLAX26Y26*%
%MOIN*%
%TF.FileFunction,Copper,L2,Inr,Plane*%
%TF.Part,Single*%
G01*
G75*
%TA.AperFunction,NonConductor*%
%ADD30C,0.040000*%
%TA.AperFunction,ViaPad*%
%ADD31C,0.110000*%
%TA.AperFunction,ComponentPad*%
G04:AMPARAMS|DCode=32|XSize=100mil|YSize=100mil|CornerRadius=0mil|HoleSize=0mil|Usage=FLASHONLY|Rotation=0.000|XOffset=0mil|YOffset=0mil|HoleType=Round|Shape=Relief|Width=10mil|Gap=10mil|Entries=4|*
%AMTHD32*
7,0,0,0.100000,0.080000,0.010000,45*
%
%ADD32THD32*%
%ADD33C,0.060000*%
%TA.AperFunction,ViaPad*%
%ADD34C,0.028000*%
G04:AMPARAMS|DCode=35|XSize=68mil|YSize=68mil|CornerRadius=0mil|HoleSize=0mil|Usage=FLASHONLY|Rotation=0.000|XOffset=0mil|YOffset=0mil|HoleType=Round|Shape=Relief|Width=10mil|Gap=10mil|Entries=4|*
%AMTHD35*
7,0,0,0.068000,0.048000,0.010000,45*
%
%ADD35THD35*%
D30*
X4635000Y1050000D02*
X6805000D01*
X4635000D02*
Y1710000D01*
X4290000D02*
X4635000D01*
X4290000D02*
Y1920000D01*
X8535000D01*
Y1705000D02*
Y1920000D01*
X8220000Y1705000D02*
X8535000D01*
X8220000Y995000D02*
Y1705000D01*
X6805000Y995000D02*
X8220000D01*
X6805000D02*
Y1050000D01*
D31*
X5930000Y1455000D02*
D03*
X8080000D02*
D03*
D32*
X8160000Y1650000D02*
D03*
X8060000Y1050000D02*
D03*
D33*
Y1650000D02*
D03*
X7960000D02*
D03*
X7860000D02*
D03*
X7760000D02*
D03*
X7660000D02*
D03*
X7560000D02*
D03*
X7460000D02*
D03*
X7360000D02*
D03*
X7260000D02*
D03*
X7160000D02*
D03*
X7060000D02*
D03*
X6960000D02*
D03*
X6860000D02*
D03*
X8160000Y1050000D02*
D03*
X7960000D02*
D03*
X7860000D02*
D03*
X7760000D02*
D03*
X7660000D02*
D03*
X7560000D02*
D03*
X7460000D02*
D03*
X7360000D02*
D03*
X7260000D02*
D03*
X7160000D02*
D03*
X7060000D02*
D03*
X6960000D02*
D03*
X6860000D02*
D03*
D34*
X5750000Y1460000D02*
D03*
X6810000Y1600000D02*
D03*
X5060000Y1515000D02*
D03*
X6270000Y1520000D02*
D03*
X7820000D02*
D03*
X7280000Y1518403D02*
D03*
X6745000D02*
D03*
X5665000D02*
D03*
X5195000Y1130000D02*
D03*
X7630000Y1345000D02*
D03*
X5810000Y1150000D02*
D03*
X6170000D02*
D03*
X6530000D02*
D03*
X6090000Y1465000D02*
D03*
X6450000D02*
D03*
X4355000Y1880000D02*
D03*
X7403666D02*
D03*
X7138333D02*
D03*
X6873000D02*
D03*
X6607666D02*
D03*
X6342333D02*
D03*
X6077000D02*
D03*
X5811667D02*
D03*
X5546333D02*
D03*
X5281000D02*
D03*
X5015667D02*
D03*
X4750333D02*
D03*
X4485000D02*
D03*
X8464999D02*
D03*
X7669000D02*
D03*
X7934333D02*
D03*
X8199666D02*
D03*
X5275000Y1130000D02*
D03*
X7595000Y1295000D02*
D03*
X7385000Y1136082D02*
D03*
X7314372D02*
D03*
X7250000D02*
D03*
X7170000D02*
D03*
X7030000D02*
D03*
X7100000D02*
D03*
X7845000Y1345000D02*
D03*
Y1220000D02*
D03*
X5318409Y1646772D02*
D03*
D35*
X4995000Y1390000D02*
D03*
X5120000Y1480000D02*
D03*
X6015000Y1390000D02*
D03*
X7630000D02*
D03*
X7150000Y1388403D02*
D03*
X6615000D02*
D03*
X5535000D02*
D03*
X8335000Y1750000D02*
D03*
X4715000Y1140000D02*
D03*
Y1270000D02*
D03*
X4710000Y1600000D02*
D03*
Y1480000D02*
D03*
X5810000Y1706417D02*
D03*
X5151000Y1750000D02*
D03*
X4885667D02*
D03*
X4620333D02*
D03*
X4355000D02*
D03*
X5420000D02*
D03*
X5681667D02*
D03*
X5947000D02*
D03*
X6212333D02*
D03*
X6477666D02*
D03*
X6743000D02*
D03*
X7008333D02*
D03*
X7273666D02*
D03*
X7539000D02*
D03*
X7804333D02*
D03*
X8069666D02*
D03*
X5515000Y1660000D02*
D03*
X5520000Y1570000D02*
D03*
X7805000Y1275000D02*
D03*
X6975000Y1315000D02*
D03*
X7440000D02*
D03*
X6530000Y1715000D02*
D03*
X6170630Y1706417D02*
D03*
X5730630Y1153583D02*
D03*
X6090630D02*
D03*
X6450630D02*
D03*
X5170000Y1480000D02*
D03*
X5220000D02*
D03*
X5279409Y1490591D02*
D03*
X5111926Y1660591D02*
D03*
Y1600591D02*
D03*
X5105000Y1520000D02*
D03*
%TF.MD5,7a6fc83f995a3bb83276fe09beb348c8*%
M02*
