%TF.GenerationSoftware,Altium Limited,Altium Designer,20.0.11 (256)*%
G04 Layer_Color=255*
%FSLAX26Y26*%
%MOIN*%
%TF.FileFunction,Pads,Bot*%
%TF.Part,Single*%
G01*
G75*
%TA.AperFunction,ViaPad*%
%ADD26C,0.060000*%
%TA.AperFunction,ComponentPad*%
%ADD27R,0.050000X0.050000*%
%ADD28C,0.050000*%
%TA.AperFunction,SMDPad,CuDef*%
%ADD36R,0.059055X0.035433*%
%TA.AperFunction,ConnectorPad*%
%ADD37R,0.059055X0.035433*%
D26*
X5930000Y1455000D02*
D03*
X8080000D02*
D03*
D27*
X8160000Y1650000D02*
D03*
D28*
X8060000D02*
D03*
X7960000D02*
D03*
X7860000D02*
D03*
X7760000D02*
D03*
X7660000D02*
D03*
X7560000D02*
D03*
X7460000D02*
D03*
X7360000D02*
D03*
X7260000D02*
D03*
X7160000D02*
D03*
X7060000D02*
D03*
X6960000D02*
D03*
X6860000D02*
D03*
X8160000Y1050000D02*
D03*
X8060000D02*
D03*
X7960000D02*
D03*
X7860000D02*
D03*
X7760000D02*
D03*
X7660000D02*
D03*
X7560000D02*
D03*
X7460000D02*
D03*
X7360000D02*
D03*
X7260000D02*
D03*
X7160000D02*
D03*
X7060000D02*
D03*
X6960000D02*
D03*
X6860000D02*
D03*
D36*
X7851457Y1519961D02*
D03*
Y1390039D02*
D03*
X7658543D02*
D03*
Y1519961D02*
D03*
X7313142D02*
D03*
Y1390039D02*
D03*
X7120228D02*
D03*
Y1519961D02*
D03*
X6774827D02*
D03*
Y1390039D02*
D03*
X6581913D02*
D03*
Y1519961D02*
D03*
X6236512D02*
D03*
Y1390039D02*
D03*
X6043598D02*
D03*
Y1519961D02*
D03*
X5698197D02*
D03*
Y1390039D02*
D03*
X5505283D02*
D03*
Y1519961D02*
D03*
X5159882D02*
D03*
Y1390039D02*
D03*
X4966968D02*
D03*
Y1519961D02*
D03*
X8234544Y1879961D02*
D03*
Y1750039D02*
D03*
X8041630D02*
D03*
Y1879961D02*
D03*
X7969211D02*
D03*
Y1750039D02*
D03*
X7776297D02*
D03*
Y1879961D02*
D03*
X7703878D02*
D03*
Y1750039D02*
D03*
X7510964D02*
D03*
Y1879961D02*
D03*
X7438545D02*
D03*
Y1750039D02*
D03*
X7245631D02*
D03*
Y1879961D02*
D03*
X7173212D02*
D03*
Y1750039D02*
D03*
X6980298D02*
D03*
Y1879961D02*
D03*
X6907879D02*
D03*
Y1750039D02*
D03*
X6714965D02*
D03*
Y1879961D02*
D03*
X6642546D02*
D03*
Y1750039D02*
D03*
X6449632D02*
D03*
Y1879961D02*
D03*
X6377213D02*
D03*
Y1750039D02*
D03*
X6184299D02*
D03*
Y1879961D02*
D03*
X6111880D02*
D03*
Y1750039D02*
D03*
X5918966D02*
D03*
Y1879961D02*
D03*
X5846547D02*
D03*
Y1750039D02*
D03*
X5653633D02*
D03*
Y1879961D02*
D03*
X5315881D02*
D03*
Y1750039D02*
D03*
X5122967D02*
D03*
Y1879961D02*
D03*
X5581214D02*
D03*
Y1750039D02*
D03*
X5388300D02*
D03*
Y1879961D02*
D03*
X5050548D02*
D03*
Y1750039D02*
D03*
X4857634D02*
D03*
Y1879961D02*
D03*
X4785215D02*
D03*
Y1750039D02*
D03*
X4592301D02*
D03*
Y1879961D02*
D03*
X4519882D02*
D03*
Y1750039D02*
D03*
X4326968D02*
D03*
Y1879961D02*
D03*
D37*
X8499877D02*
D03*
Y1750039D02*
D03*
X8306963D02*
D03*
Y1879961D02*
D03*
%TF.MD5,ffe44afc7a570d1ae91f5386a643a6f9*%
M02*
