%TF.GenerationSoftware,Altium Limited,Altium Designer,20.0.11 (256)*%
G04 Layer_Physical_Order=4*
G04 Layer_Color=16711680*
%FSLAX26Y26*%
%MOIN*%
%TF.FileFunction,Copper,L4,Bot,Signal*%
%TF.Part,Single*%
G01*
G75*
%TA.AperFunction,Conductor*%
%ADD21C,0.020000*%
%ADD22C,0.010000*%
%ADD23C,0.016000*%
%TA.AperFunction,ViaPad*%
%ADD26C,0.060000*%
%TA.AperFunction,ComponentPad*%
%ADD27R,0.050000X0.050000*%
%ADD28C,0.050000*%
%TA.AperFunction,ViaPad*%
%ADD29C,0.018000*%
%TA.AperFunction,SMDPad,CuDef*%
%ADD36R,0.059055X0.035433*%
%TA.AperFunction,ConnectorPad*%
%ADD37R,0.059055X0.035433*%
D21*
X7845000Y1220000D02*
Y1345000D01*
D22*
X4519882Y1750039D02*
Y1779882D01*
X4592301Y1852301D02*
Y1879961D01*
X4519882Y1779882D02*
X4592301Y1852301D01*
X5820000Y1570000D02*
X6005000D01*
X6040897Y1519961D02*
X6043598D01*
X6028181Y1532677D02*
X6040897Y1519961D01*
X6005000Y1570000D02*
X6028181Y1546819D01*
Y1532677D02*
Y1546819D01*
X5720000Y1402756D02*
Y1470000D01*
X5820000Y1570000D01*
X5750000Y1460000D02*
X5985000Y1225000D01*
X5641924Y1684591D02*
X5726515Y1600000D01*
X6810000D01*
X6485131Y1418364D02*
X6638495Y1265000D01*
X6485131Y1418364D02*
Y1418364D01*
X6450000Y1465000D02*
X6451218Y1463782D01*
Y1452277D02*
Y1463782D01*
Y1452277D02*
X6485131Y1418364D01*
X5698197Y1390039D02*
X5707283D01*
X5720000Y1402756D01*
X7313142Y1390039D02*
X7516811D01*
X7646732Y1519961D01*
X7658543D01*
X6774827Y1390039D02*
X6978496D01*
X7108417Y1519961D01*
X7120228D01*
X6581874Y1520000D02*
X6581913Y1519961D01*
X6440000Y1520000D02*
X6581874D01*
X6236512Y1390039D02*
X6310039D01*
X6440000Y1520000D01*
X5985000Y1225000D02*
X7161082D01*
X5159882Y1390039D02*
X5363551D01*
X5493472Y1519961D01*
X5505283D01*
X4966968D02*
X4975000Y1527992D01*
Y1585000D01*
X5074591Y1684591D01*
X5641924D01*
X6638495Y1265000D02*
X7256082D01*
X6090000Y1465000D02*
X6310000Y1245000D01*
X7205454D01*
X6377213Y1778212D02*
X6449632Y1850631D01*
X6377213Y1750039D02*
Y1778212D01*
X6449632Y1850631D02*
Y1879961D01*
X5275000Y1095000D02*
X6791716D01*
X6806716Y1110000D01*
X5275000Y1095000D02*
X5275000Y1095000D01*
X5265000Y1095000D02*
X5275000D01*
X5244142Y1115858D02*
X5265000Y1095000D01*
X5250000Y1130000D02*
X5275000D01*
X6806716Y1110000D02*
X7565000D01*
X5244142Y1115858D02*
Y1124142D01*
X5250000Y1130000D01*
X7565000Y1110000D02*
X7595000Y1140000D01*
X5195000Y1130000D02*
X5250000Y1075000D01*
X6800000D01*
X6815000Y1090000D01*
X7630000Y1342835D02*
Y1345000D01*
X7625000Y1337835D02*
X7630000Y1342835D01*
X6815000Y1090000D02*
X7573284D01*
X7625000Y1141716D01*
Y1337835D01*
X6530000Y1150000D02*
X6545000Y1165000D01*
X7001082D01*
X7030000Y1136082D01*
X7256082Y1265000D02*
X7385000Y1136082D01*
X7314372D02*
Y1136082D01*
X7205454Y1245000D02*
X7314372Y1136082D01*
X7250000Y1136082D02*
Y1136082D01*
X7161082Y1225000D02*
X7250000Y1136082D01*
X5865000Y1205000D02*
X7101082D01*
X7170000Y1136082D01*
X6205000Y1185000D02*
X7051082D01*
X7100000Y1136082D01*
X6910881Y1750039D02*
Y1778212D01*
X6983300Y1850631D01*
Y1879961D01*
X5580881Y1750039D02*
Y1778212D01*
X5653300Y1850631D01*
Y1879961D01*
X7595000Y1140000D02*
Y1295000D01*
X5810000Y1150000D02*
X5865000Y1205000D01*
X6170000Y1150000D02*
X6205000Y1185000D01*
X5122967Y1850631D02*
Y1879961D01*
X5050548Y1778212D02*
X5122967Y1850631D01*
X5050548Y1750039D02*
Y1778212D01*
X5388300Y1850631D02*
Y1879961D01*
X5315881Y1778212D02*
X5388300Y1850631D01*
X5315881Y1750039D02*
Y1778212D01*
X4785215Y1750039D02*
Y1778212D01*
X4857634Y1850631D01*
Y1879961D01*
X5846547Y1750039D02*
Y1778212D01*
X5918966Y1850631D01*
Y1879961D01*
X6111880Y1750039D02*
Y1778212D01*
X6184299Y1850631D01*
Y1879961D01*
X6642546Y1750039D02*
Y1778212D01*
X6714965Y1850631D01*
Y1879961D01*
X8234544Y1750039D02*
Y1778212D01*
X8306963Y1850631D01*
Y1879961D01*
X7969211Y1750039D02*
Y1778212D01*
X8041630Y1850631D01*
Y1879961D01*
X7703878Y1750039D02*
Y1778212D01*
X7776297Y1850631D01*
Y1879961D01*
X7438545Y1750039D02*
Y1778212D01*
X7510964Y1850631D01*
Y1879961D01*
X7245631Y1850631D02*
Y1879961D01*
X7173212Y1778212D02*
X7245631Y1850631D01*
X7173212Y1750039D02*
Y1778212D01*
D23*
X5148071Y1519961D02*
X5159882D01*
X5121031Y1547000D02*
X5148071Y1519961D01*
X5092000Y1547000D02*
X5121031D01*
X5060000Y1515000D02*
X5092000Y1547000D01*
D26*
X5930000Y1455000D02*
D03*
X8080000D02*
D03*
D27*
X8160000Y1650000D02*
D03*
D28*
X8060000D02*
D03*
X7960000D02*
D03*
X7860000D02*
D03*
X7760000D02*
D03*
X7660000D02*
D03*
X7560000D02*
D03*
X7460000D02*
D03*
X7360000D02*
D03*
X7260000D02*
D03*
X7160000D02*
D03*
X7060000D02*
D03*
X6960000D02*
D03*
X6860000D02*
D03*
X8160000Y1050000D02*
D03*
X8060000D02*
D03*
X7960000D02*
D03*
X7860000D02*
D03*
X7760000D02*
D03*
X7660000D02*
D03*
X7560000D02*
D03*
X7460000D02*
D03*
X7360000D02*
D03*
X7260000D02*
D03*
X7160000D02*
D03*
X7060000D02*
D03*
X6960000D02*
D03*
X6860000D02*
D03*
D29*
X5750000Y1460000D02*
D03*
X6810000Y1600000D02*
D03*
X5060000Y1515000D02*
D03*
X4995000Y1390000D02*
D03*
X5120000Y1480000D02*
D03*
X6270000Y1520000D02*
D03*
X6015000Y1390000D02*
D03*
X7820000Y1520000D02*
D03*
X7630000Y1390000D02*
D03*
X7150000Y1388403D02*
D03*
X7280000Y1518403D02*
D03*
X6615000Y1388403D02*
D03*
X6745000Y1518403D02*
D03*
X5535000Y1388403D02*
D03*
X5665000Y1518403D02*
D03*
X8335000Y1750000D02*
D03*
X5195000Y1130000D02*
D03*
X7630000Y1345000D02*
D03*
X4715000Y1140000D02*
D03*
Y1270000D02*
D03*
X4710000Y1600000D02*
D03*
Y1480000D02*
D03*
X5810000Y1706417D02*
D03*
Y1150000D02*
D03*
X6170000D02*
D03*
X6530000D02*
D03*
X6090000Y1465000D02*
D03*
X6450000D02*
D03*
X4355000Y1880000D02*
D03*
X7403666D02*
D03*
X7138333D02*
D03*
X6873000D02*
D03*
X6607666D02*
D03*
X6342333D02*
D03*
X6077000D02*
D03*
X5811667D02*
D03*
X5546333D02*
D03*
X5281000D02*
D03*
X5015667D02*
D03*
X4750333D02*
D03*
X4485000D02*
D03*
X8464999D02*
D03*
X7669000D02*
D03*
X7934333D02*
D03*
X8199666D02*
D03*
X5275000Y1130000D02*
D03*
X7595000Y1295000D02*
D03*
X7385000Y1136082D02*
D03*
X7314372D02*
D03*
X7250000D02*
D03*
X7170000D02*
D03*
X7030000D02*
D03*
X7100000D02*
D03*
X7845000Y1345000D02*
D03*
Y1220000D02*
D03*
X5151000Y1750000D02*
D03*
X4885667D02*
D03*
X4620333D02*
D03*
X4355000D02*
D03*
X5420000D02*
D03*
X5681667D02*
D03*
X5947000D02*
D03*
X6212333D02*
D03*
X6477666D02*
D03*
X6743000D02*
D03*
X7008333D02*
D03*
X7273666D02*
D03*
X7539000D02*
D03*
X7804333D02*
D03*
X8069666D02*
D03*
X5515000Y1660000D02*
D03*
X5318409Y1646772D02*
D03*
X5520000Y1570000D02*
D03*
X7805000Y1275000D02*
D03*
X6975000Y1315000D02*
D03*
X7440000D02*
D03*
X6530000Y1715000D02*
D03*
X6170630Y1706417D02*
D03*
X5730630Y1153583D02*
D03*
X6090630D02*
D03*
X6450630D02*
D03*
X5170000Y1480000D02*
D03*
X5220000D02*
D03*
X5279409Y1490591D02*
D03*
X5111926Y1660591D02*
D03*
Y1600591D02*
D03*
X5105000Y1520000D02*
D03*
D36*
X7851457Y1519961D02*
D03*
Y1390039D02*
D03*
X7658543D02*
D03*
Y1519961D02*
D03*
X7313142D02*
D03*
Y1390039D02*
D03*
X7120228D02*
D03*
Y1519961D02*
D03*
X6774827D02*
D03*
Y1390039D02*
D03*
X6581913D02*
D03*
Y1519961D02*
D03*
X6236512D02*
D03*
Y1390039D02*
D03*
X6043598D02*
D03*
Y1519961D02*
D03*
X5698197D02*
D03*
Y1390039D02*
D03*
X5505283D02*
D03*
Y1519961D02*
D03*
X5159882D02*
D03*
Y1390039D02*
D03*
X4966968D02*
D03*
Y1519961D02*
D03*
X8234544Y1879961D02*
D03*
Y1750039D02*
D03*
X8041630D02*
D03*
Y1879961D02*
D03*
X7969211D02*
D03*
Y1750039D02*
D03*
X7776297D02*
D03*
Y1879961D02*
D03*
X7703878D02*
D03*
Y1750039D02*
D03*
X7510964D02*
D03*
Y1879961D02*
D03*
X7438545D02*
D03*
Y1750039D02*
D03*
X7245631D02*
D03*
Y1879961D02*
D03*
X7173212D02*
D03*
Y1750039D02*
D03*
X6980298D02*
D03*
Y1879961D02*
D03*
X6907879D02*
D03*
Y1750039D02*
D03*
X6714965D02*
D03*
Y1879961D02*
D03*
X6642546D02*
D03*
Y1750039D02*
D03*
X6449632D02*
D03*
Y1879961D02*
D03*
X6377213D02*
D03*
Y1750039D02*
D03*
X6184299D02*
D03*
Y1879961D02*
D03*
X6111880D02*
D03*
Y1750039D02*
D03*
X5918966D02*
D03*
Y1879961D02*
D03*
X5846547D02*
D03*
Y1750039D02*
D03*
X5653633D02*
D03*
Y1879961D02*
D03*
X5315881D02*
D03*
Y1750039D02*
D03*
X5122967D02*
D03*
Y1879961D02*
D03*
X5581214D02*
D03*
Y1750039D02*
D03*
X5388300D02*
D03*
Y1879961D02*
D03*
X5050548D02*
D03*
Y1750039D02*
D03*
X4857634D02*
D03*
Y1879961D02*
D03*
X4785215D02*
D03*
Y1750039D02*
D03*
X4592301D02*
D03*
Y1879961D02*
D03*
X4519882D02*
D03*
Y1750039D02*
D03*
X4326968D02*
D03*
Y1879961D02*
D03*
D37*
X8499877D02*
D03*
Y1750039D02*
D03*
X8306963D02*
D03*
Y1879961D02*
D03*
%TF.MD5,d84c9be622c5d0bf539fdd6ee6f4cae8*%
M02*
