%TF.GenerationSoftware,Altium Limited,Altium Designer,20.0.11 (256)*%
G04 Layer_Color=16711935*
%FSLAX26Y26*%
%MOIN*%
%TF.FileFunction,Other,Mechanical_1*%
%TF.Part,Single*%
G01*
G75*
G36*
X7854379Y1330246D02*
X7854551Y1330234D01*
X7854773Y1330221D01*
X7855006Y1330197D01*
X7855252Y1330172D01*
X7855523Y1330123D01*
X7855806Y1330086D01*
X7856101Y1330025D01*
X7856384Y1329951D01*
X7856679Y1329865D01*
X7856962Y1329766D01*
X7857245Y1329656D01*
X7857503Y1329533D01*
X7857515Y1329520D01*
X7857565Y1329496D01*
X7857626Y1329459D01*
X7857725Y1329397D01*
X7857835Y1329323D01*
X7857958Y1329225D01*
X7858106Y1329114D01*
X7858253Y1328991D01*
X7858413Y1328844D01*
X7858573Y1328684D01*
X7858733Y1328512D01*
X7858893Y1328327D01*
X7859041Y1328118D01*
X7859188Y1327897D01*
X7859311Y1327663D01*
X7859434Y1327405D01*
Y1327392D01*
X7859459Y1327343D01*
X7859483Y1327257D01*
X7859520Y1327146D01*
X7859569Y1327011D01*
X7859619Y1326839D01*
X7859668Y1326642D01*
X7859717Y1326408D01*
X7859766Y1326150D01*
X7859815Y1325867D01*
X7859865Y1325560D01*
X7859914Y1325215D01*
X7859951Y1324859D01*
X7859975Y1324465D01*
X7859988Y1324059D01*
X7860000Y1323616D01*
Y1314859D01*
X7857995D01*
Y1323604D01*
Y1323629D01*
Y1323690D01*
Y1323789D01*
Y1323924D01*
X7857983Y1324084D01*
X7857971Y1324281D01*
Y1324477D01*
X7857946Y1324699D01*
X7857909Y1325178D01*
X7857847Y1325658D01*
X7857798Y1325892D01*
X7857761Y1326113D01*
X7857700Y1326322D01*
X7857638Y1326507D01*
Y1326519D01*
X7857626Y1326544D01*
X7857601Y1326593D01*
X7857565Y1326654D01*
X7857528Y1326741D01*
X7857479Y1326827D01*
X7857343Y1327036D01*
X7857171Y1327269D01*
X7856950Y1327503D01*
X7856691Y1327737D01*
X7856384Y1327946D01*
X7856372D01*
X7856347Y1327970D01*
X7856298Y1327995D01*
X7856224Y1328020D01*
X7856138Y1328057D01*
X7856027Y1328106D01*
X7855904Y1328155D01*
X7855769Y1328192D01*
X7855621Y1328241D01*
X7855449Y1328290D01*
X7855277Y1328327D01*
X7855080Y1328376D01*
X7854662Y1328426D01*
X7854194Y1328450D01*
X7854096D01*
X7853985Y1328438D01*
X7853838D01*
X7853653Y1328413D01*
X7853444Y1328401D01*
X7853223Y1328364D01*
X7852977Y1328327D01*
X7852718Y1328278D01*
X7852460Y1328204D01*
X7852202Y1328130D01*
X7851944Y1328032D01*
X7851698Y1327921D01*
X7851464Y1327786D01*
X7851242Y1327626D01*
X7851058Y1327454D01*
X7851046Y1327442D01*
X7851021Y1327405D01*
X7850972Y1327343D01*
X7850910Y1327257D01*
X7850837Y1327134D01*
X7850763Y1326986D01*
X7850677Y1326814D01*
X7850578Y1326593D01*
X7850492Y1326359D01*
X7850406Y1326076D01*
X7850332Y1325756D01*
X7850258Y1325412D01*
X7850197Y1325018D01*
X7850148Y1324588D01*
X7850123Y1324121D01*
X7850111Y1323604D01*
Y1314859D01*
X7848106D01*
Y1323616D01*
Y1323629D01*
Y1323641D01*
Y1323715D01*
Y1323838D01*
X7848118Y1323998D01*
Y1324182D01*
X7848131Y1324403D01*
X7848143Y1324649D01*
X7848167Y1324920D01*
X7848192Y1325203D01*
X7848229Y1325498D01*
X7848327Y1326101D01*
X7848450Y1326704D01*
X7848536Y1326986D01*
X7848623Y1327245D01*
Y1327257D01*
X7848647Y1327306D01*
X7848684Y1327368D01*
X7848721Y1327466D01*
X7848782Y1327577D01*
X7848856Y1327712D01*
X7848942Y1327860D01*
X7849053Y1328020D01*
X7849164Y1328192D01*
X7849311Y1328364D01*
X7849459Y1328549D01*
X7849631Y1328733D01*
X7849816Y1328905D01*
X7850025Y1329090D01*
X7850246Y1329262D01*
X7850492Y1329422D01*
X7850504Y1329434D01*
X7850554Y1329459D01*
X7850627Y1329496D01*
X7850738Y1329557D01*
X7850873Y1329619D01*
X7851033Y1329680D01*
X7851218Y1329766D01*
X7851439Y1329840D01*
X7851673Y1329914D01*
X7851944Y1329988D01*
X7852239Y1330062D01*
X7852546Y1330123D01*
X7852878Y1330185D01*
X7853247Y1330221D01*
X7853616Y1330246D01*
X7854022Y1330258D01*
X7854231D01*
X7854379Y1330246D01*
D02*
G37*
G36*
X7845757Y1329988D02*
Y1329975D01*
Y1329938D01*
Y1329889D01*
Y1329754D01*
X7845744Y1329594D01*
X7845720Y1329397D01*
X7845683Y1329176D01*
X7845621Y1328955D01*
X7845547Y1328721D01*
Y1328708D01*
X7845535Y1328672D01*
X7845511Y1328622D01*
X7845474Y1328549D01*
X7845437Y1328450D01*
X7845388Y1328340D01*
X7845326Y1328216D01*
X7845252Y1328081D01*
X7845080Y1327774D01*
X7844871Y1327429D01*
X7844625Y1327073D01*
X7844330Y1326704D01*
X7844318Y1326691D01*
X7844293Y1326654D01*
X7844244Y1326605D01*
X7844170Y1326531D01*
X7844084Y1326433D01*
X7843973Y1326322D01*
X7843850Y1326199D01*
X7843703Y1326052D01*
X7843543Y1325892D01*
X7843358Y1325707D01*
X7843161Y1325523D01*
X7842940Y1325326D01*
X7842706Y1325105D01*
X7842460Y1324883D01*
X7842177Y1324662D01*
X7841894Y1324416D01*
X7841882Y1324403D01*
X7841870Y1324391D01*
X7841833Y1324367D01*
X7841784Y1324330D01*
X7841661Y1324219D01*
X7841501Y1324084D01*
X7841292Y1323911D01*
X7841070Y1323702D01*
X7840824Y1323481D01*
X7840554Y1323247D01*
X7840283Y1322989D01*
X7840000Y1322731D01*
X7839717Y1322460D01*
X7839447Y1322189D01*
X7839188Y1321931D01*
X7838955Y1321673D01*
X7838746Y1321427D01*
X7838561Y1321193D01*
X7838549Y1321181D01*
X7838524Y1321144D01*
X7838475Y1321082D01*
X7838426Y1320996D01*
X7838364Y1320886D01*
X7838291Y1320763D01*
X7838204Y1320627D01*
X7838118Y1320467D01*
X7837958Y1320135D01*
X7837823Y1319754D01*
X7837774Y1319557D01*
X7837725Y1319361D01*
X7837700Y1319164D01*
X7837688Y1318967D01*
Y1318955D01*
Y1318918D01*
Y1318856D01*
X7837700Y1318782D01*
X7837712Y1318684D01*
X7837725Y1318573D01*
X7837749Y1318450D01*
X7837786Y1318315D01*
X7837885Y1318020D01*
X7837946Y1317872D01*
X7838020Y1317712D01*
X7838118Y1317552D01*
X7838229Y1317392D01*
X7838352Y1317245D01*
X7838487Y1317097D01*
X7838500Y1317085D01*
X7838524Y1317060D01*
X7838573Y1317024D01*
X7838635Y1316974D01*
X7838709Y1316925D01*
X7838807Y1316851D01*
X7838918Y1316790D01*
X7839041Y1316716D01*
X7839176Y1316642D01*
X7839336Y1316581D01*
X7839508Y1316507D01*
X7839680Y1316458D01*
X7839877Y1316409D01*
X7840086Y1316372D01*
X7840308Y1316347D01*
X7840541Y1316335D01*
X7840664D01*
X7840763Y1316347D01*
X7840873Y1316359D01*
X7841009Y1316372D01*
X7841156Y1316396D01*
X7841316Y1316433D01*
X7841661Y1316532D01*
X7841833Y1316593D01*
X7842017Y1316679D01*
X7842190Y1316765D01*
X7842362Y1316876D01*
X7842534Y1316999D01*
X7842694Y1317147D01*
X7842706Y1317159D01*
X7842731Y1317183D01*
X7842768Y1317233D01*
X7842817Y1317294D01*
X7842878Y1317380D01*
X7842952Y1317479D01*
X7843014Y1317589D01*
X7843087Y1317725D01*
X7843174Y1317884D01*
X7843235Y1318044D01*
X7843309Y1318229D01*
X7843370Y1318426D01*
X7843420Y1318647D01*
X7843457Y1318869D01*
X7843481Y1319114D01*
X7843493Y1319373D01*
X7845400Y1319176D01*
Y1319164D01*
Y1319151D01*
X7845388Y1319078D01*
X7845375Y1318967D01*
X7845351Y1318832D01*
X7845314Y1318647D01*
X7845277Y1318438D01*
X7845215Y1318217D01*
X7845142Y1317971D01*
X7845068Y1317712D01*
X7844957Y1317442D01*
X7844846Y1317183D01*
X7844699Y1316913D01*
X7844551Y1316642D01*
X7844367Y1316384D01*
X7844158Y1316150D01*
X7843936Y1315929D01*
X7843924Y1315917D01*
X7843875Y1315880D01*
X7843801Y1315818D01*
X7843703Y1315757D01*
X7843579Y1315670D01*
X7843420Y1315572D01*
X7843235Y1315474D01*
X7843026Y1315363D01*
X7842792Y1315252D01*
X7842534Y1315154D01*
X7842251Y1315055D01*
X7841944Y1314969D01*
X7841624Y1314896D01*
X7841267Y1314846D01*
X7840898Y1314810D01*
X7840505Y1314797D01*
X7840406D01*
X7840295Y1314810D01*
X7840148Y1314822D01*
X7839963Y1314834D01*
X7839754Y1314859D01*
X7839508Y1314896D01*
X7839262Y1314945D01*
X7838992Y1315019D01*
X7838709Y1315092D01*
X7838426Y1315191D01*
X7838131Y1315314D01*
X7837848Y1315449D01*
X7837577Y1315609D01*
X7837306Y1315806D01*
X7837060Y1316015D01*
X7837048Y1316027D01*
X7836999Y1316064D01*
X7836938Y1316138D01*
X7836864Y1316236D01*
X7836765Y1316347D01*
X7836655Y1316495D01*
X7836544Y1316655D01*
X7836421Y1316839D01*
X7836298Y1317048D01*
X7836187Y1317270D01*
X7836077Y1317515D01*
X7835978Y1317786D01*
X7835904Y1318069D01*
X7835831Y1318364D01*
X7835794Y1318672D01*
X7835781Y1319004D01*
Y1319016D01*
Y1319041D01*
Y1319090D01*
Y1319164D01*
X7835794Y1319237D01*
X7835806Y1319336D01*
X7835818Y1319447D01*
X7835831Y1319570D01*
X7835880Y1319840D01*
X7835941Y1320148D01*
X7836040Y1320467D01*
X7836163Y1320800D01*
Y1320812D01*
X7836175Y1320836D01*
X7836199Y1320886D01*
X7836236Y1320947D01*
X7836273Y1321033D01*
X7836323Y1321132D01*
X7836384Y1321230D01*
X7836458Y1321353D01*
X7836630Y1321636D01*
X7836839Y1321944D01*
X7837097Y1322288D01*
X7837393Y1322645D01*
X7837405Y1322657D01*
X7837430Y1322694D01*
X7837479Y1322743D01*
X7837552Y1322817D01*
X7837651Y1322928D01*
X7837774Y1323038D01*
X7837909Y1323186D01*
X7838069Y1323346D01*
X7838254Y1323518D01*
X7838463Y1323727D01*
X7838696Y1323936D01*
X7838955Y1324182D01*
X7839238Y1324440D01*
X7839545Y1324711D01*
X7839890Y1325006D01*
X7840246Y1325314D01*
X7840271Y1325326D01*
X7840320Y1325375D01*
X7840406Y1325449D01*
X7840517Y1325535D01*
X7840652Y1325658D01*
X7840800Y1325781D01*
X7840972Y1325929D01*
X7841144Y1326076D01*
X7841501Y1326396D01*
X7841858Y1326704D01*
X7842017Y1326851D01*
X7842165Y1326999D01*
X7842300Y1327110D01*
X7842399Y1327220D01*
X7842423Y1327245D01*
X7842472Y1327306D01*
X7842559Y1327405D01*
X7842669Y1327528D01*
X7842792Y1327675D01*
X7842928Y1327848D01*
X7843051Y1328032D01*
X7843174Y1328216D01*
X7835757D01*
Y1330000D01*
X7845757D01*
Y1329988D01*
D02*
G37*
%TF.MD5,e932fc393fa1966be2a5939ac7515739*%
M02*
