%TF.GenerationSoftware,Altium Limited,Altium Designer,20.0.11 (256)*%
G04 Layer_Color=32768*
%FSLAX26Y26*%
%MOIN*%
%TF.FileFunction,Other,Mechanical_15*%
%TF.Part,Single*%
G01*
G75*
%TA.AperFunction,NonConductor*%
%ADD62C,0.003937*%
%ADD63C,0.001968*%
D62*
X6905315Y1545000D02*
X6944685D01*
X6925000Y1525315D02*
Y1564685D01*
X5596535Y1437726D02*
Y1477097D01*
X5576850Y1457412D02*
X5616221D01*
X7215000Y1435315D02*
Y1474685D01*
X7195315Y1455000D02*
X7234685D01*
X7735315D02*
X7774685D01*
X7755000Y1435315D02*
Y1474685D01*
X7197000Y1455000D02*
X7236370D01*
X7216685Y1435315D02*
Y1474685D01*
X6658685Y1455000D02*
X6698055D01*
X6678370Y1435315D02*
Y1474685D01*
X6120370Y1455000D02*
X6159740D01*
X6140055Y1435315D02*
Y1474685D01*
X5582055Y1455000D02*
X5621425D01*
X5601740Y1435315D02*
Y1474685D01*
X5043740Y1455000D02*
X5083110D01*
X5063425Y1435315D02*
Y1474685D01*
X7605000Y1795315D02*
Y1834685D01*
X7585315Y1815000D02*
X7624685D01*
X7075000Y1785315D02*
Y1824685D01*
X7055315Y1805000D02*
X7094685D01*
X6121000Y1795315D02*
Y1834685D01*
X6101315Y1815000D02*
X6140685D01*
X5273000Y1795315D02*
Y1834685D01*
X5253315Y1815000D02*
X5292685D01*
X4780315Y1540000D02*
X4819685D01*
X4800000Y1520315D02*
Y1559685D01*
X4780315Y1205000D02*
X4819685D01*
X4800000Y1185315D02*
Y1224685D01*
X7365780Y1280000D02*
X7405150D01*
X7385466Y1260315D02*
Y1299685D01*
X7010315Y1280000D02*
X7049685D01*
X7030000Y1260315D02*
Y1299685D01*
X7081408Y1280000D02*
X7120778D01*
X7101093Y1260315D02*
Y1299685D01*
X7152501Y1280000D02*
X7191871D01*
X7172186Y1260315D02*
Y1299685D01*
X7223594Y1280000D02*
X7262964D01*
X7243279Y1260315D02*
Y1299685D01*
X7294687Y1280000D02*
X7334057D01*
X7314372Y1260315D02*
Y1299685D01*
X5405315Y1575000D02*
X5444685D01*
X5425000Y1555315D02*
Y1594685D01*
X5045000Y1575315D02*
Y1614685D01*
X5025315Y1595000D02*
X5064685D01*
X4849000Y1795315D02*
Y1834685D01*
X4829315Y1815000D02*
X4868685D01*
X5697000Y1795315D02*
Y1834685D01*
X5677315Y1815000D02*
X5716685D01*
X6545000Y1795315D02*
Y1834685D01*
X6525315Y1815000D02*
X6564685D01*
X8135000Y1800315D02*
Y1839685D01*
X8115315Y1820000D02*
X8154685D01*
X7810000Y1150315D02*
Y1189685D01*
X7790315Y1170000D02*
X7829685D01*
X8383735Y1815000D02*
X8423105D01*
X8403420Y1795315D02*
Y1834685D01*
X8118402Y1815000D02*
X8157772D01*
X8138087Y1795315D02*
Y1834685D01*
X7853069Y1815000D02*
X7892439D01*
X7872754Y1795315D02*
Y1834685D01*
X7587736Y1815000D02*
X7627106D01*
X7607421Y1795315D02*
Y1834685D01*
X7322403Y1815000D02*
X7361773D01*
X7342088Y1795315D02*
Y1834685D01*
X7057070Y1815000D02*
X7096440D01*
X7076755Y1795315D02*
Y1834685D01*
X6791737Y1815000D02*
X6831107D01*
X6811422Y1795315D02*
Y1834685D01*
X6526404Y1815000D02*
X6565774D01*
X6546089Y1795315D02*
Y1834685D01*
X6261071Y1815000D02*
X6300441D01*
X6280756Y1795315D02*
Y1834685D01*
X5995738Y1815000D02*
X6035108D01*
X6015423Y1795315D02*
Y1834685D01*
X5730405Y1815000D02*
X5769775D01*
X5750090Y1795315D02*
Y1834685D01*
X5199739Y1815000D02*
X5239109D01*
X5219424Y1795315D02*
Y1834685D01*
X5465072Y1815000D02*
X5504442D01*
X5484757Y1795315D02*
Y1834685D01*
X4934406Y1815000D02*
X4973776D01*
X4954091Y1795315D02*
Y1834685D01*
X4669073Y1815000D02*
X4708443D01*
X4688758Y1795315D02*
Y1834685D01*
X4403740Y1815000D02*
X4443110D01*
X4423425Y1795315D02*
Y1834685D01*
X4405315Y1815984D02*
X4444685D01*
X4425000Y1796299D02*
Y1835669D01*
X6469685Y1230000D02*
X6509055D01*
X6489370Y1210315D02*
Y1249685D01*
X6110000Y1230000D02*
X6149370D01*
X6129685Y1210315D02*
Y1249685D01*
X5750315Y1230000D02*
X5789685D01*
X5770000Y1210315D02*
Y1249685D01*
X5750315Y1660000D02*
X5789685D01*
X5770000Y1640315D02*
Y1679685D01*
X6110000Y1660000D02*
X6149370D01*
X6129685Y1640315D02*
Y1679685D01*
X6469685Y1660000D02*
X6509055D01*
X6489370Y1640315D02*
Y1679685D01*
X5425000Y1640315D02*
Y1679685D01*
X5405315Y1660000D02*
X5444685D01*
X5151535Y1410315D02*
Y1449685D01*
X5131850Y1430000D02*
X5171221D01*
X5321535Y1410315D02*
Y1449685D01*
X5301850Y1430000D02*
X5341221D01*
X7805000Y1300315D02*
Y1339685D01*
X7785315Y1320000D02*
X7824685D01*
D63*
X6991929Y1505630D02*
Y1584370D01*
X6858071Y1505630D02*
Y1584370D01*
Y1505630D02*
X6991929D01*
X6858071Y1584370D02*
X6991929D01*
X5529606Y1494813D02*
X5663465D01*
X5529606Y1420010D02*
X5663465D01*
X5529606D02*
Y1494813D01*
X5663465Y1420010D02*
Y1494813D01*
X7148071Y1492401D02*
X7281929D01*
X7148071Y1417598D02*
X7281929D01*
X7148071D02*
Y1492401D01*
X7281929Y1417598D02*
Y1492401D01*
X7625079Y1352638D02*
X7884921D01*
X7625079Y1557362D02*
X7884921D01*
X7625079Y1352638D02*
Y1557362D01*
X7884921Y1352638D02*
Y1557362D01*
X7086764Y1352638D02*
X7346606D01*
X7086764Y1557362D02*
X7346606D01*
X7086764Y1352638D02*
Y1557362D01*
X7346606Y1352638D02*
Y1557362D01*
X6548449Y1352638D02*
X6808291D01*
X6548449Y1557362D02*
X6808291D01*
X6548449Y1352638D02*
Y1557362D01*
X6808291Y1352638D02*
Y1557362D01*
X6010134Y1352638D02*
X6269976D01*
X6010134Y1557362D02*
X6269976D01*
X6010134Y1352638D02*
Y1557362D01*
X6269976Y1352638D02*
Y1557362D01*
X5471819Y1352638D02*
X5731661D01*
X5471819Y1557362D02*
X5731661D01*
X5471819Y1352638D02*
Y1557362D01*
X5731661Y1352638D02*
Y1557362D01*
X4933504Y1352638D02*
X5193346D01*
X4933504Y1557362D02*
X5193346D01*
X4933504Y1352638D02*
Y1557362D01*
X5193346Y1352638D02*
Y1557362D01*
X7538071Y1852401D02*
X7671929D01*
X7538071Y1777598D02*
X7671929D01*
X7538071D02*
Y1852401D01*
X7671929Y1777598D02*
Y1852401D01*
X7008071Y1767599D02*
X7141929D01*
X7008071Y1842402D02*
X7141929D01*
Y1767599D02*
Y1842402D01*
X7008071Y1767599D02*
Y1842402D01*
X6054071Y1777599D02*
X6187929D01*
X6054071Y1852402D02*
X6187929D01*
Y1777599D02*
Y1852402D01*
X6054071Y1777599D02*
Y1852402D01*
X5206071Y1777599D02*
X5339929D01*
X5206071Y1852402D02*
X5339929D01*
Y1777599D02*
Y1852402D01*
X5206071Y1777599D02*
Y1852402D01*
X4956496Y1402205D02*
Y1677795D01*
X4643504Y1402205D02*
Y1677795D01*
Y1402205D02*
X4956496D01*
X4643504Y1677795D02*
X4956496D01*
Y1067205D02*
Y1342795D01*
X4643504Y1067205D02*
Y1342795D01*
Y1067205D02*
X4956496D01*
X4643504Y1342795D02*
X4956496D01*
X7422867Y1213071D02*
Y1346929D01*
X7348064Y1213071D02*
Y1346929D01*
X7422867D01*
X7348064Y1213071D02*
X7422867D01*
X7067401D02*
Y1346929D01*
X6992598Y1213071D02*
Y1346929D01*
X7067401D01*
X6992598Y1213071D02*
X7067401D01*
X7138495D02*
Y1346929D01*
X7063691Y1213071D02*
Y1346929D01*
X7138495D01*
X7063691Y1213071D02*
X7138495D01*
X7209588D02*
Y1346929D01*
X7134785Y1213071D02*
Y1346929D01*
X7209588D01*
X7134785Y1213071D02*
X7209588D01*
X7280681D02*
Y1346929D01*
X7205878Y1213071D02*
Y1346929D01*
X7280681D01*
X7205878Y1213071D02*
X7280681D01*
X7351774D02*
Y1346929D01*
X7276971Y1213071D02*
Y1346929D01*
X7351774D01*
X7276971Y1213071D02*
X7351774D01*
X5340354Y1523819D02*
Y1626181D01*
X5509646Y1523819D02*
Y1626181D01*
X5340354D02*
X5509646D01*
X5340354Y1523819D02*
X5509646D01*
X5011535Y1541850D02*
X5078465D01*
X5011535Y1648150D02*
X5078465D01*
X5011535Y1541850D02*
Y1648150D01*
X5078465Y1541850D02*
Y1648150D01*
X4782071Y1777599D02*
X4915929D01*
X4782071Y1852402D02*
X4915929D01*
Y1777599D02*
Y1852402D01*
X4782071Y1777599D02*
Y1852402D01*
X5630071Y1852401D02*
X5763929D01*
X5630071Y1777598D02*
X5763929D01*
X5630071D02*
Y1852401D01*
X5763929Y1777598D02*
Y1852401D01*
X6478071D02*
X6611929D01*
X6478071Y1777598D02*
X6611929D01*
X6478071D02*
Y1852401D01*
X6611929Y1777598D02*
Y1852401D01*
X8068071Y1857401D02*
X8201929D01*
X8068071Y1782598D02*
X8201929D01*
X8068071D02*
Y1857401D01*
X8201929Y1782598D02*
Y1857401D01*
X7743071Y1207401D02*
X7876929D01*
X7743071Y1132598D02*
X7876929D01*
X7743071D02*
Y1207401D01*
X7876929Y1132598D02*
Y1207401D01*
X8273499Y1712638D02*
X8533341D01*
X8273499Y1917362D02*
X8533341D01*
X8273499Y1712638D02*
Y1917362D01*
X8533341Y1712638D02*
Y1917362D01*
X8008166Y1712638D02*
X8268008D01*
X8008166Y1917362D02*
X8268008D01*
X8008166Y1712638D02*
Y1917362D01*
X8268008Y1712638D02*
Y1917362D01*
X7742833Y1712638D02*
X8002675D01*
X7742833Y1917362D02*
X8002675D01*
X7742833Y1712638D02*
Y1917362D01*
X8002675Y1712638D02*
Y1917362D01*
X7477500Y1712638D02*
X7737342D01*
X7477500Y1917362D02*
X7737342D01*
X7477500Y1712638D02*
Y1917362D01*
X7737342Y1712638D02*
Y1917362D01*
X7212167Y1712638D02*
X7472009D01*
X7212167Y1917362D02*
X7472009D01*
X7212167Y1712638D02*
Y1917362D01*
X7472009Y1712638D02*
Y1917362D01*
X6946834Y1712638D02*
X7206676D01*
X6946834Y1917362D02*
X7206676D01*
X6946834Y1712638D02*
Y1917362D01*
X7206676Y1712638D02*
Y1917362D01*
X6681501Y1712638D02*
X6941343D01*
X6681501Y1917362D02*
X6941343D01*
X6681501Y1712638D02*
Y1917362D01*
X6941343Y1712638D02*
Y1917362D01*
X6416168Y1712638D02*
X6676010D01*
X6416168Y1917362D02*
X6676010D01*
X6416168Y1712638D02*
Y1917362D01*
X6676010Y1712638D02*
Y1917362D01*
X6150835Y1712638D02*
X6410677D01*
X6150835Y1917362D02*
X6410677D01*
X6150835Y1712638D02*
Y1917362D01*
X6410677Y1712638D02*
Y1917362D01*
X5885502Y1712638D02*
X6145344D01*
X5885502Y1917362D02*
X6145344D01*
X5885502Y1712638D02*
Y1917362D01*
X6145344Y1712638D02*
Y1917362D01*
X5620169Y1712638D02*
X5880011D01*
X5620169Y1917362D02*
X5880011D01*
X5620169Y1712638D02*
Y1917362D01*
X5880011Y1712638D02*
Y1917362D01*
X5089503Y1712638D02*
X5349345D01*
X5089503Y1917362D02*
X5349345D01*
X5089503Y1712638D02*
Y1917362D01*
X5349345Y1712638D02*
Y1917362D01*
X5354836Y1712638D02*
X5614678D01*
X5354836Y1917362D02*
X5614678D01*
X5354836Y1712638D02*
Y1917362D01*
X5614678Y1712638D02*
Y1917362D01*
X4824170Y1712638D02*
X5084012D01*
X4824170Y1917362D02*
X5084012D01*
X4824170Y1712638D02*
Y1917362D01*
X5084012Y1712638D02*
Y1917362D01*
X4558837Y1712638D02*
X4818679D01*
X4558837Y1917362D02*
X4818679D01*
X4558837Y1712638D02*
Y1917362D01*
X4818679Y1712638D02*
Y1917362D01*
X4293504Y1712638D02*
X4553346D01*
X4293504Y1917362D02*
X4553346D01*
X4293504Y1712638D02*
Y1917362D01*
X4553346Y1712638D02*
Y1917362D01*
X4491929Y1776614D02*
Y1855354D01*
X4358071Y1776614D02*
Y1855354D01*
Y1776614D02*
X4491929D01*
X4358071Y1855354D02*
X4491929D01*
X6320079Y1127638D02*
Y1430787D01*
X6658661D01*
Y1127638D02*
Y1430787D01*
X6320079Y1127638D02*
X6658661D01*
X5960394D02*
Y1430787D01*
X6298976D01*
Y1127638D02*
Y1430787D01*
X5960394Y1127638D02*
X6298976D01*
X5600709D02*
Y1430787D01*
X5939291D01*
Y1127638D02*
Y1430787D01*
X5600709Y1127638D02*
X5939291D01*
Y1459213D02*
Y1762362D01*
X5600709Y1459213D02*
X5939291D01*
X5600709D02*
Y1762362D01*
X5939291D01*
X6298976Y1459213D02*
Y1762362D01*
X5960394Y1459213D02*
X6298976D01*
X5960394D02*
Y1762362D01*
X6298976D01*
X6658661Y1459213D02*
Y1762362D01*
X6320079Y1459213D02*
X6658661D01*
X6320079D02*
Y1762362D01*
X6658661D01*
X5371850Y1628504D02*
X5478150D01*
X5371850Y1691496D02*
X5478150D01*
Y1628504D02*
Y1691496D01*
X5371850Y1628504D02*
Y1691496D01*
X5084606Y1467401D02*
X5218465D01*
X5084606Y1392598D02*
X5218465D01*
X5084606D02*
Y1467401D01*
X5218465Y1392598D02*
Y1467401D01*
X5254606Y1392599D02*
X5388465D01*
X5254606Y1467402D02*
X5388465D01*
Y1392599D02*
Y1467402D01*
X5254606Y1392599D02*
Y1467402D01*
X7673110Y1422362D02*
X7936890D01*
X7673110Y1217638D02*
X7936890D01*
X7673110D02*
Y1422362D01*
X7936890Y1217638D02*
Y1422362D01*
%TF.MD5,6560dce5f8606c30ae97a0d3c666a71e*%
M02*
